<svg viewBox="0 0 1351 1896" preserveAspectRatio="xMidYMin meet" xmlns="http://www.w3.org/2000/svg">
  <defs>
    <!-- Background: linen top → warm dusty rose bottom -->
    <linearGradient id="heroBg" x1="0" y1="0" x2="0" y2="1">
      <stop offset="0%"   stop-color="#F4EFE6"/>
      <stop offset="60%"  stop-color="#EAD8D0"/>
      <stop offset="100%" stop-color="#D9C0BA"/>
    </linearGradient>
    <!-- Silhouette fill: soft mauve overlay around the body -->
    <linearGradient id="silhouette" x1="0" y1="0" x2="0" y2="1">
      <stop offset="0%"   stop-color="#C49A9A" stop-opacity="0.22"/>
      <stop offset="50%"  stop-color="#9B7A7A" stop-opacity="0.18"/>
      <stop offset="100%" stop-color="#6B4F6B" stop-opacity="0.12"/>
    </linearGradient>
  </defs>

  <!-- Background gradient -->
  <rect width="1351" height="1896" fill="url(#heroBg)"/>

  <!-- Body silhouette: evenodd punches the body shape as a transparent window
       revealing the background, while the area outside the body gets the overlay -->
  <path
    fill-rule="evenodd"
    fill="url(#silhouette)"
    d="M0.5 1895.5H1350.5V0.5H0.5V1895.5ZM762.5 231.5C761.81 235.45 758.95 238.66 756.5 241.5C754.59 243.72 752.8 246.53 749.5 246.5C748.53 253.07 746.57 260.47 742.5 265.5C742.24 277.85 725.3 286.16 728.5 300.5C731.7 314.84 725.65 332.61 734.76 344.24C743.86 355.88 751.43 359.91 763.58 365.42C775.72 370.94 785.07 376.89 797.72 380.28C810.38 383.66 825.51 386.39 837.72 390.28C849.94 394.17 861.08 398.03 869.75 408.25C878.42 418.48 883.77 426.29 887.28 439.72C890.78 453.15 893.29 467.67 894.43 482.57C895.57 497.48 893.96 515.87 893.17 531.17C892.38 546.47 892.46 563.61 892.5 579.5C892.54 595.39 892.7 612.48 893.83 628.17C894.96 643.86 896.25 658.8 897.5 674.5C897.77 677.89 898.83 681.17 899.5 684.5C899.85 686.25 900.13 687.75 900.5 689.5C903.79 705.05 908.03 718.45 913.28 733.72C918.53 748.99 917.96 767.56 921.5 783.5C921.69 783.77 922.45 784.15 922.5 784.5C928.27 824.53 928.86 866.39 934.83 906.17C940.8 945.95 939.63 986.38 951.5 1024.5C951.66 1025.03 952.32 1025.57 952.5 1026.5C953.33 1030.82 954.03 1035.72 953.5 1040.5C952.61 1048.45 947.36 1055.51 945.18 1063.18C943 1070.85 939.46 1078.73 935.73 1085.73C932 1092.73 926.33 1096.87 920.75 1102.75C915.17 1108.63 908.98 1111.09 903.25 1117.25C897.53 1123.42 885.29 1119.73 887.5 1110.5C889.71 1101.27 892.21 1095.49 896.81 1087.81C901.4 1080.12 902.62 1075.18 909.75 1068.75C916.89 1062.33 914.55 1052.68 915.5 1044.5C910.75 1044.86 908.47 1056.02 907.5 1059.5C907.47 1071.72 893.16 1089.11 885.73 1074.27C878.3 1059.43 887.37 1043.43 885.5 1028.5C883.63 1013.57 882.86 997 887.83 983.83C892.8 970.66 900.21 959.72 895.17 945.83C890.14 931.93 886.77 921.58 883.5 907.5C882.75 904.28 880.96 900.82 879.5 897.5C878.49 895.2 877.6 893.08 877.5 890.5C870.53 884.43 868.23 868.02 865.5 859.5C862.83 851.18 859.29 842.71 856.57 834.43C853.86 826.14 847.74 818.61 847.5 809.5C844.98 801.72 840.71 793.76 838.5 785.5C837.79 782.86 837.86 780.29 837.5 777.5C836.48 773.5 833.12 768.93 832.5 764.5C832.27 762.87 832.74 761.13 832.5 759.5C831.42 752.21 828.81 744.59 828.5 736.5C824.01 705.03 822.24 671.95 816.5 640.5C815.48 634.9 815.04 628.32 812.5 623.5C811.01 628.35 810.26 634.04 808.5 638.5C808.41 642.07 807.19 645.13 806.5 648.5C804.41 658.79 802.85 669.22 800.5 679.5C796.61 696.48 794.72 716.17 798.5 733.5C804.68 761.89 820.54 786.55 827.5 814.5C827.61 814.96 828.26 816.73 828.5 817.5C830.17 822.77 833.5 828.81 834.43 834.57C835.35 840.34 840.7 847.43 839.5 853.5C844.51 871.72 851.84 894.12 852.5 913.5C852.53 914.49 852.53 915.51 852.5 916.5C857.11 942.04 862.03 967.49 863.5 994.5C863.78 999.59 862.92 1005.18 862.5 1009.5C862.5 1037.84 855.95 1063.91 852.5 1090.5C852.5 1092.15 852.61 1093.85 852.5 1095.5C851.18 1114.65 842.62 1133.16 841.5 1152.5C851.08 1158.62 860.52 1166.69 869.25 1173.75C877.97 1180.81 890.68 1186.34 895.5 1196.5C875.17 1187.05 858.42 1169.99 839.5 1157.5C836.81 1173.08 831.46 1187.95 828.5 1203.5C828.24 1204.56 827.74 1205.44 827.5 1206.5C820.08 1239.24 812.98 1271.66 809.5 1305.5C809.12 1309.15 808.71 1312.63 808.5 1316.5C807.39 1336.95 807.5 1356.96 807.5 1377.5C807.5 1379.16 807.59 1380.84 807.5 1382.5C808.93 1395.96 811.87 1410.58 812.49 1424.51C813.12 1438.44 817.84 1453.43 816.5 1467.5C816.45 1468 816.5 1468.5 816.5 1468.5C816.5 1497.02 813.98 1523.5 808.5 1550.5C808.3 1551.47 807.61 1552.97 807.5 1553.5C807.25 1554.77 807.65 1556.21 807.5 1557.5C805.7 1573.1 799.49 1587.96 796.52 1603.52C793.56 1619.09 790.22 1634.92 786.51 1650.51C782.8 1666.1 779.87 1681.58 776.52 1697.52C773.18 1713.47 771.47 1734.08 773.5 1750.5C775.53 1766.92 768.05 1782.85 777.81 1797.2C787.56 1811.54 791.66 1816.36 801.27 1830.73C810.88 1845.1 793.08 1863.71 777.5 1858.5C773.66 1864.43 765.16 1864.43 759.5 1861.5C755.72 1867.95 745.97 1866.09 741.5 1861.5C722.26 1877.24 702.76 1860.32 700.51 1838.49C698.26 1816.67 712.66 1794.73 708.5 1771.5C704.34 1748.27 713.26 1729.36 716.43 1706.43C719.59 1683.49 714.39 1656.44 713.5 1633.5C712.61 1610.56 706.44 1588.58 704.5 1565.5C702.56 1542.41 699.06 1516.49 700.5 1492.5C701.94 1468.51 705.83 1446.34 707.5 1422.5C707.5 1418.16 707.5 1413.84 707.5 1409.5C707.5 1370.23 690.91 1335.34 694.5 1294.5C698.09 1253.66 694.32 1209.26 693.5 1168.5C692.4 1113.69 675.65 1057.2 689.5 1002.5C681.12 1005.05 670.82 1005.77 662.5 1002.5C670.79 1044.97 665.44 1089.3 661.5 1132.5C658.25 1158.73 656.5 1185.35 656.5 1212.5C656.5 1226.17 656.5 1239.83 656.5 1253.5C656.5 1278.24 657.49 1304.63 655.5 1328.5C653.51 1352.37 648.33 1372.84 644.5 1395.5C642.94 1404.76 643.31 1414.88 643.5 1424.5C644.03 1450.89 651.95 1475.5 651.5 1502.5C651.05 1529.5 648.66 1556.37 644.5 1582.5C643.4 1589.39 642.46 1596.65 641.5 1603.5C637.24 1634.03 635.43 1664.87 635.5 1696.5C635.5 1697 635.5 1697.5 635.5 1697.5C635.5 1703.43 634.57 1712.37 637.5 1717.5C637.72 1717.88 637.5 1718.5 637.5 1718.5C640.19 1734.84 648.47 1749.28 643.5 1766.5C638.53 1783.72 649.65 1801.34 648.5 1818.5C649.68 1824.03 654.61 1834.92 650.5 1840.5C650.5 1841 650.5 1841.5 650.5 1841.5C649.46 1847.89 645.98 1854.43 642.5 1859.5C642.08 1860.93 642.54 1860.51 641.5 1861.5C633.38 1869.25 618.17 1870.12 610.5 1861.5C605.45 1866.28 595.94 1867.5 591.5 1861.5C586.55 1864.44 580.01 1863.9 575.5 1860.5C572.69 1860.21 569.28 1859.18 566.5 1858.5C552.61 1855.11 542.26 1842.87 551.42 1829.42C560.59 1815.98 562.65 1812.46 571.81 1799.81C580.96 1787.15 578.9 1773.48 577.5 1758.5C576.1 1743.52 581.16 1726.96 577.57 1712.43C573.98 1697.9 573.35 1683.55 569.51 1669.49C565.66 1655.43 563.27 1642.66 560.5 1628.5C557.74 1614.33 554.53 1600.86 551.18 1586.82C547.83 1572.79 544.62 1560.09 542.5 1545.5C540.39 1530.91 536.88 1516.61 535.52 1501.48C534.17 1486.34 535.28 1468.88 535.5 1453.5C535.72 1438.12 541.54 1422.99 540.5 1407.5C540.47 1407 540.5 1406.5 540.5 1406.5C543.58 1397.82 542.36 1387.83 543.5 1378.5C544.64 1369.17 544.5 1358.12 544.5 1348.5C544.5 1333.24 543.18 1317.51 541.5 1302.5C539.69 1286.28 537.05 1269.33 534.5 1253.5C531.95 1237.67 525.18 1223.27 523.5 1207.5C523.33 1205.86 523.56 1204.15 523.5 1202.5C521.3 1189.5 513.23 1176.58 513.5 1162.5C508.37 1166.29 504.03 1169.07 498.8 1172.8C493.58 1176.54 489.4 1178.64 484.27 1183.27C479.14 1187.9 477.56 1189.66 470.75 1194.75C463.94 1199.84 461.43 1193.47 468.58 1189.58C475.73 1185.69 476.59 1182.01 482.58 1178.58C488.58 1175.16 491.22 1171 496.58 1167.58C501.94 1164.17 505.83 1159.8 511.5 1156.5C506.85 1136.35 503.15 1115.94 499.5 1095.5C499.53 1095 499.5 1094.5 499.5 1094.5C491.56 1077.68 494.07 1057.29 490.5 1038.5C486.93 1019.71 488.27 995.86 489.43 976.43C490.59 956.99 492.69 937.07 497.5 918.5C498.28 915.51 498.85 912.57 499.5 909.5C504.98 883.48 510.06 857.28 516.5 831.5C507.01 839.04 497.81 846.77 488.5 854.5C488.35 856 487.92 855.51 487.5 856.5C481.68 870.15 476.96 884.6 471.5 898.5C464.93 915.23 464.12 927.48 456.52 944.52C448.93 961.57 462.76 973.64 465.43 990.57C468.1 1007.51 466.5 1031.86 466.5 1049.5C466.98 1054.49 468 1060.79 467.5 1066.5C466.76 1074.88 459.95 1084.87 451.75 1078.25C443.56 1071.62 444.03 1064.53 442.5 1055.5C441.93 1052.12 441.72 1049.03 441.5 1045.5C439.97 1042.23 436.44 1044.09 435.5 1043.5C435.9 1046.7 433.93 1050.79 434.5 1054.5C436.4 1061.22 439.13 1066.59 444.25 1071.75C449.37 1076.91 450.98 1082.93 454.81 1089.2C458.63 1095.46 461.01 1101.08 463.48 1108.52C465.94 1115.97 457.9 1124.11 451.76 1119.24C445.61 1114.38 440.65 1112.78 435.75 1107.25C430.85 1101.72 425.8 1099.1 421.25 1093.75C416.71 1088.4 413.03 1082.92 410.73 1076.27C408.43 1069.62 406.99 1062.8 403.73 1056.27C400.47 1049.75 397.11 1042.22 397.5 1034.5C397.89 1026.78 400.85 1018.97 402.43 1011.43C404.01 1003.89 405.61 996.87 407.28 989.28C408.95 981.68 410.16 972.38 410.5 964.5C410.84 956.62 413.03 946.88 413.43 939.43C413.83 931.97 418.02 919.14 411.5 917.5C421.26 898.81 418.17 876.54 421.5 855.5C424.83 834.46 425.04 810.96 429.5 790.5C429.5 788.17 429.5 785.83 429.5 783.5C429.5 773.27 432.34 764.34 433.5 754.5C433.56 754.01 433.39 752.97 433.5 752.5C439.11 728.26 449.92 703.71 453.5 679.5C453.5 677.84 453.44 676.16 453.5 674.5C453.72 668.16 454.93 661.81 455.5 655.5C459.83 607.91 464.3 553.93 456.5 506.5C456.42 506.01 456.5 505.5 456.5 505.5C456.5 473.21 458.52 437.72 478.5 412.5C474.2 407.2 479 403.87 484.5 406.5C501.79 386.63 531.7 388.39 554.17 380.17C576.64 371.95 599.66 363.16 616.5 345.5C620.86 338.52 624.04 328.32 623.5 319.5C622.96 310.68 626.15 294.76 622.5 286.5C619.21 281.75 615.74 278.89 613.5 273.5C610.73 268.53 606.73 264.7 605.53 258.48C604.32 252.25 602.76 247.03 597.5 243.5C594.35 242.34 592.97 240.56 591.5 237.5C586.23 229.81 583.59 219.69 581.57 210.43C579.56 201.16 579.48 186.08 590.5 183.5C583.56 143.82 591.09 95.11 629.5 75.5C626.33 52.4 649.11 37.16 669.5 36.5C673.58 36.12 678.42 36.12 682.5 36.5C702.26 38.35 725.67 51.73 721.5 75.5C760.96 94.8 767.29 144.21 761.5 183.5C778.25 192.36 768.67 218.41 762.5 231.5Z"
  />

  <!-- Soft body outline in mauve for subtle definition -->
  <path
    fill="none"
    stroke="#C49A9A"
    stroke-width="2.5"
    stroke-opacity="0.55"
    d="M0.5 1895.5H1350.5V0.5H0.5V1895.5ZM762.5 231.5C761.81 235.45 758.95 238.66 756.5 241.5C754.59 243.72 752.8 246.53 749.5 246.5C748.53 253.07 746.57 260.47 742.5 265.5C742.24 277.85 725.3 286.16 728.5 300.5C731.7 314.84 725.65 332.61 734.76 344.24C743.86 355.88 751.43 359.91 763.58 365.42C775.72 370.94 785.07 376.89 797.72 380.28C810.38 383.66 825.51 386.39 837.72 390.28C849.94 394.17 861.08 398.03 869.75 408.25C878.42 418.48 883.77 426.29 887.28 439.72C890.78 453.15 893.29 467.67 894.43 482.57C895.57 497.48 893.96 515.87 893.17 531.17C892.38 546.47 892.46 563.61 892.5 579.5C892.54 595.39 892.7 612.48 893.83 628.17C894.96 643.86 896.25 658.8 897.5 674.5C897.77 677.89 898.83 681.17 899.5 684.5C899.85 686.25 900.13 687.75 900.5 689.5C903.79 705.05 908.03 718.45 913.28 733.72C918.53 748.99 917.96 767.56 921.5 783.5C921.69 783.77 922.45 784.15 922.5 784.5C928.27 824.53 928.86 866.39 934.83 906.17C940.8 945.95 939.63 986.38 951.5 1024.5C951.66 1025.03 952.32 1025.57 952.5 1026.5C953.33 1030.82 954.03 1035.72 953.5 1040.5C952.61 1048.45 947.36 1055.51 945.18 1063.18C943 1070.85 939.46 1078.73 935.73 1085.73C932 1092.73 926.33 1096.87 920.75 1102.75C915.17 1108.63 908.98 1111.09 903.25 1117.25C897.53 1123.42 885.29 1119.73 887.5 1110.5C889.71 1101.27 892.21 1095.49 896.81 1087.81C901.4 1080.12 902.62 1075.18 909.75 1068.75C916.89 1062.33 914.55 1052.68 915.5 1044.5C910.75 1044.86 908.47 1056.02 907.5 1059.5C907.47 1071.72 893.16 1089.11 885.73 1074.27C878.3 1059.43 887.37 1043.43 885.5 1028.5C883.63 1013.57 882.86 997 887.83 983.83C892.8 970.66 900.21 959.72 895.17 945.83C890.14 931.93 886.77 921.58 883.5 907.5C882.75 904.28 880.96 900.82 879.5 897.5C878.49 895.2 877.6 893.08 877.5 890.5C870.53 884.43 868.23 868.02 865.5 859.5C862.83 851.18 859.29 842.71 856.57 834.43C853.86 826.14 847.74 818.61 847.5 809.5C844.98 801.72 840.71 793.76 838.5 785.5C837.79 782.86 837.86 780.29 837.5 777.5C836.48 773.5 833.12 768.93 832.5 764.5C832.27 762.87 832.74 761.13 832.5 759.5C831.42 752.21 828.81 744.59 828.5 736.5C824.01 705.03 822.24 671.95 816.5 640.5C815.48 634.9 815.04 628.32 812.5 623.5C811.01 628.35 810.26 634.04 808.5 638.5C808.41 642.07 807.19 645.13 806.5 648.5C804.41 658.79 802.85 669.22 800.5 679.5C796.61 696.48 794.72 716.17 798.5 733.5C804.68 761.89 820.54 786.55 827.5 814.5C827.61 814.96 828.26 816.73 828.5 817.5C830.17 822.77 833.5 828.81 834.43 834.57C835.35 840.34 840.7 847.43 839.5 853.5C844.51 871.72 851.84 894.12 852.5 913.5C852.53 914.49 852.53 915.51 852.5 916.5C857.11 942.04 862.03 967.49 863.5 994.5C863.78 999.59 862.92 1005.18 862.5 1009.5C862.5 1037.84 855.95 1063.91 852.5 1090.5C852.5 1092.15 852.61 1093.85 852.5 1095.5C851.18 1114.65 842.62 1133.16 841.5 1152.5C851.08 1158.62 860.52 1166.69 869.25 1173.75C877.97 1180.81 890.68 1186.34 895.5 1196.5C875.17 1187.05 858.42 1169.99 839.5 1157.5C836.81 1173.08 831.46 1187.95 828.5 1203.5C828.24 1204.56 827.74 1205.44 827.5 1206.5C820.08 1239.24 812.98 1271.66 809.5 1305.5C809.12 1309.15 808.71 1312.63 808.5 1316.5C807.39 1336.95 807.5 1356.96 807.5 1377.5C807.5 1379.16 807.59 1380.84 807.5 1382.5C808.93 1395.96 811.87 1410.58 812.49 1424.51C813.12 1438.44 817.84 1453.43 816.5 1467.5C816.45 1468 816.5 1468.5 816.5 1468.5C816.5 1497.02 813.98 1523.5 808.5 1550.5C808.3 1551.47 807.61 1552.97 807.5 1553.5C807.25 1554.77 807.65 1556.21 807.5 1557.5C805.7 1573.1 799.49 1587.96 796.52 1603.52C793.56 1619.09 790.22 1634.92 786.51 1650.51C782.8 1666.1 779.87 1681.58 776.52 1697.52C773.18 1713.47 771.47 1734.08 773.5 1750.5C775.53 1766.92 768.05 1782.85 777.81 1797.2C787.56 1811.54 791.66 1816.36 801.27 1830.73C810.88 1845.1 793.08 1863.71 777.5 1858.5C773.66 1864.43 765.16 1864.43 759.5 1861.5C755.72 1867.95 745.97 1866.09 741.5 1861.5C722.26 1877.24 702.76 1860.32 700.51 1838.49C698.26 1816.67 712.66 1794.73 708.5 1771.5C704.34 1748.27 713.26 1729.36 716.43 1706.43C719.59 1683.49 714.39 1656.44 713.5 1633.5C712.61 1610.56 706.44 1588.58 704.5 1565.5C702.56 1542.41 699.06 1516.49 700.5 1492.5C701.94 1468.51 705.83 1446.34 707.5 1422.5C707.5 1418.16 707.5 1413.84 707.5 1409.5C707.5 1370.23 690.91 1335.34 694.5 1294.5C698.09 1253.66 694.32 1209.26 693.5 1168.5C692.4 1113.69 675.65 1057.2 689.5 1002.5C681.12 1005.05 670.82 1005.77 662.5 1002.5C670.79 1044.97 665.44 1089.3 661.5 1132.5C658.25 1158.73 656.5 1185.35 656.5 1212.5C656.5 1226.17 656.5 1239.83 656.5 1253.5C656.5 1278.24 657.49 1304.63 655.5 1328.5C653.51 1352.37 648.33 1372.84 644.5 1395.5C642.94 1404.76 643.31 1414.88 643.5 1424.5C644.03 1450.89 651.95 1475.5 651.5 1502.5C651.05 1529.5 648.66 1556.37 644.5 1582.5C643.4 1589.39 642.46 1596.65 641.5 1603.5C637.24 1634.03 635.43 1664.87 635.5 1696.5C635.5 1697 635.5 1697.5 635.5 1697.5C635.5 1703.43 634.57 1712.37 637.5 1717.5C637.72 1717.88 637.5 1718.5 637.5 1718.5C640.19 1734.84 648.47 1749.28 643.5 1766.5C638.53 1783.72 649.65 1801.34 648.5 1818.5C649.68 1824.03 654.61 1834.92 650.5 1840.5C650.5 1841 650.5 1841.5 650.5 1841.5C649.46 1847.89 645.98 1854.43 642.5 1859.5C642.08 1860.93 642.54 1860.51 641.5 1861.5C633.38 1869.25 618.17 1870.12 610.5 1861.5C605.45 1866.28 595.94 1867.5 591.5 1861.5C586.55 1864.44 580.01 1863.9 575.5 1860.5C572.69 1860.21 569.28 1859.18 566.5 1858.5C552.61 1855.11 542.26 1842.87 551.42 1829.42C560.59 1815.98 562.65 1812.46 571.81 1799.81C580.96 1787.15 578.9 1773.48 577.5 1758.5C576.1 1743.52 581.16 1726.96 577.57 1712.43C573.98 1697.9 573.35 1683.55 569.51 1669.49C565.66 1655.43 563.27 1642.66 560.5 1628.5C557.74 1614.33 554.53 1600.86 551.18 1586.82C547.83 1572.79 544.62 1560.09 542.5 1545.5C540.39 1530.91 536.88 1516.61 535.52 1501.48C534.17 1486.34 535.28 1468.88 535.5 1453.5C535.72 1438.12 541.54 1422.99 540.5 1407.5C540.47 1407 540.5 1406.5 540.5 1406.5C543.58 1397.82 542.36 1387.83 543.5 1378.5C544.64 1369.17 544.5 1358.12 544.5 1348.5C544.5 1333.24 543.18 1317.51 541.5 1302.5C539.69 1286.28 537.05 1269.33 534.5 1253.5C531.95 1237.67 525.18 1223.27 523.5 1207.5C523.33 1205.86 523.56 1204.15 523.5 1202.5C521.3 1189.5 513.23 1176.58 513.5 1162.5C508.37 1166.29 504.03 1169.07 498.8 1172.8C493.58 1176.54 489.4 1178.64 484.27 1183.27C479.14 1187.9 477.56 1189.66 470.75 1194.75C463.94 1199.84 461.43 1193.47 468.58 1189.58C475.73 1185.69 476.59 1182.01 482.58 1178.58C488.58 1175.16 491.22 1171 496.58 1167.58C501.94 1164.17 505.83 1159.8 511.5 1156.5C506.85 1136.35 503.15 1115.94 499.5 1095.5C499.53 1095 499.5 1094.5 499.5 1094.5C491.56 1077.68 494.07 1057.29 490.5 1038.5C486.93 1019.71 488.27 995.86 489.43 976.43C490.59 956.99 492.69 937.07 497.5 918.5C498.28 915.51 498.85 912.57 499.5 909.5C504.98 883.48 510.06 857.28 516.5 831.5C507.01 839.04 497.81 846.77 488.5 854.5C488.35 856 487.92 855.51 487.5 856.5C481.68 870.15 476.96 884.6 471.5 898.5C464.93 915.23 464.12 927.48 456.52 944.52C448.93 961.57 462.76 973.64 465.43 990.57C468.1 1007.51 466.5 1031.86 466.5 1049.5C466.98 1054.49 468 1060.79 467.5 1066.5C466.76 1074.88 459.95 1084.87 451.75 1078.25C443.56 1071.62 444.03 1064.53 442.5 1055.5C441.93 1052.12 441.72 1049.03 441.5 1045.5C439.97 1042.23 436.44 1044.09 435.5 1043.5C435.9 1046.7 433.93 1050.79 434.5 1054.5C436.4 1061.22 439.13 1066.59 444.25 1071.75C449.37 1076.91 450.98 1082.93 454.81 1089.2C458.63 1095.46 461.01 1101.08 463.48 1108.52C465.94 1115.97 457.9 1124.11 451.76 1119.24C445.61 1114.38 440.65 1112.78 435.75 1107.25C430.85 1101.72 425.8 1099.1 421.25 1093.75C416.71 1088.4 413.03 1082.92 410.73 1076.27C408.43 1069.62 406.99 1062.8 403.73 1056.27C400.47 1049.75 397.11 1042.22 397.5 1034.5C397.89 1026.78 400.85 1018.97 402.43 1011.43C404.01 1003.89 405.61 996.87 407.28 989.28C408.95 981.68 410.16 972.38 410.5 964.5C410.84 956.62 413.03 946.88 413.43 939.43C413.83 931.97 418.02 919.14 411.5 917.5C421.26 898.81 418.17 876.54 421.5 855.5C424.83 834.46 425.04 810.96 429.5 790.5C429.5 788.17 429.5 785.83 429.5 783.5C429.5 773.27 432.34 764.34 433.5 754.5C433.56 754.01 433.39 752.97 433.5 752.5C439.11 728.26 449.92 703.71 453.5 679.5C453.5 677.84 453.44 676.16 453.5 674.5C453.72 668.16 454.93 661.81 455.5 655.5C459.83 607.91 464.3 553.93 456.5 506.5C456.42 506.01 456.5 505.5 456.5 505.5C456.5 473.21 458.52 437.72 478.5 412.5C474.2 407.2 479 403.87 484.5 406.5C501.79 386.63 531.7 388.39 554.17 380.17C576.64 371.95 599.66 363.16 616.5 345.5C620.86 338.52 624.04 328.32 623.5 319.5C622.96 310.68 626.15 294.76 622.5 286.5C619.21 281.75 615.74 278.89 613.5 273.5C610.73 268.53 606.73 264.7 605.53 258.48C604.32 252.25 602.76 247.03 597.5 243.5C594.35 242.34 592.97 240.56 591.5 237.5C586.23 229.81 583.59 219.69 581.57 210.43C579.56 201.16 579.48 186.08 590.5 183.5C583.56 143.82 591.09 95.11 629.5 75.5C626.33 52.4 649.11 37.16 669.5 36.5C673.58 36.12 678.42 36.12 682.5 36.5C702.26 38.35 725.67 51.73 721.5 75.5C760.96 94.8 767.29 144.21 761.5 183.5C778.25 192.36 768.67 218.41 762.5 231.5Z"
  />
</svg>