<svg width="1316" height="1883" viewBox="0 0 1316 1883" fill="none" xmlns="http://www.w3.org/2000/svg">
<path d="M686 1168C686.4 1172.09 686.39 1176.98 686 1181C684.33 1204.84 680.44 1227.01 679 1251C677.56 1274.99 681.06 1300.91 683 1324C684.94 1347.08 691.11 1369.06 692 1392C692.89 1414.94 698.09 1441.99 694.93 1464.93C691.76 1487.86 682.84 1506.77 687 1530C691.16 1553.23 676.76 1575.17 679.01 1596.99C681.26 1618.82 700.76 1635.74 720 1620C724.47 1624.59 734.22 1626.45 738 1620C743.66 1622.93 752.16 1622.93 756 1617C771.58 1622.21 789.38 1603.6 779.77 1589.23C770.16 1574.86 766.06 1570.04 756.31 1555.7C746.55 1541.35 754.03 1525.42 752 1509C749.97 1492.58 751.68 1471.97 755.02 1456.02C758.37 1440.08 761.3 1424.6 765.01 1409.01C768.72 1393.42 772.06 1377.59 775.02 1362.02C777.99 1346.46 784.2 1331.6 786 1316C785.87 1316.22 785 1316 785 1316C779.32 1327.78 779.62 1341.16 775.67 1353.67C771.72 1366.18 769.99 1380 767 1393C764.02 1406.01 761.16 1418.01 758.22 1431.22C755.29 1444.44 753.85 1457.92 750.22 1471.22C746.6 1484.52 752.09 1503.03 751 1516C749.91 1528.97 746.31 1543.56 753.92 1554.08C761.54 1564.6 764.9 1574.34 773.75 1582.25C782.6 1590.15 784.52 1612.44 771 1611C769.77 1611.51 770 1611.23 769 1612C766.77 1615.25 759.71 1619.8 756 1615C755.5 1615 755 1615 755 1615C753.87 1621.82 742.17 1621.27 738 1618C735.81 1622.15 730.14 1624.35 726 1622C723.5 1622.16 721.52 1618.09 719 1618C714.82 1625.9 699.44 1626.16 693 1621C685.8 1620.23 685.93 1610.39 682.22 1604.78C678.51 1599.16 680.94 1588.66 681.78 1581.78C682.61 1574.9 685.03 1564.98 686 1558C686.51 1554.32 687.55 1550.12 688 1547C688 1523.73 685.55 1503.2 692.98 1481.98C700.4 1460.76 696.2 1434.17 695 1412C694.27 1398.58 692.53 1383.61 692 1371C691.69 1369.25 691.22 1367.86 691 1366C689.87 1362.31 689.63 1360.7 690 1357C689.86 1355.35 690.09 1353.66 690 1352C686.31 1334.6 682 1315.03 682 1296C682 1280.62 679.22 1264.5 680.98 1248.98C682.73 1233.45 684.31 1219.17 686 1204C691.22 1157.3 675 1116.15 675 1070C674.36 1063.39 674.37 1055.54 675 1049C675 1045 675 1041 675 1037C675 1008.33 675 979.67 675 951C674.51 945.96 674 939.72 674 934C674 932.33 674.01 930.67 674 929C673.87 928.62 672.16 927.45 672 927C672.82 967.76 676.59 1012.16 673 1053C669.41 1093.84 686 1128.73 686 1168Z" fill="#916564" fill-opacity="0.09" stroke="black"/>
<path d="M774 1609C773.24 1609.5 771.8 1610.67 771 1611C784.52 1612.44 782.6 1590.15 773.75 1582.25C764.9 1574.34 761.54 1564.6 753.92 1554.08C746.31 1543.56 749.91 1528.97 751 1516C752.09 1503.03 746.6 1484.52 750.22 1471.22C753.85 1457.92 755.29 1444.44 758.22 1431.22C761.16 1418.01 764.02 1406.01 767 1393C769.99 1380 771.72 1366.18 775.67 1353.67C779.62 1341.16 779.32 1327.78 785 1316C783.41 1314.04 784.2 1311.34 784 1309C786.03 1308.36 786.06 1310.69 786 1312C786.11 1311.47 786.8 1309.97 787 1309C786.1 1290.42 793 1269.99 793 1250C793 1241.66 793 1233.33 793 1225C793 1198.6 784.72 1172.75 785 1147C784.67 1146.64 783.29 1146.52 783 1146C784.22 1162.88 787.68 1179.07 789 1196C790.32 1212.93 791.18 1232.88 791 1250C790.82 1267.12 787.84 1283.03 784.98 1298.98C782.11 1314.92 778.4 1329.57 774.99 1344.99C771.58 1360.41 767.65 1374.34 764.78 1389.78C761.91 1405.22 757.48 1420.49 754.99 1435.99C752.51 1451.49 747 1468.17 747 1484C747 1499.83 749.66 1519.72 746 1534C742.34 1548.28 757.81 1563.24 762.75 1573.25C767.7 1583.25 789.13 1599 774 1609Z" fill="#6D4C43" fill-opacity="0.74" stroke="black"/>
<path d="M508 149C505.61 149.41 503.53 150.02 501 150C504.22 151.25 512.87 153.83 520.01 153.99C527.14 154.16 532.91 162.1 531 169C529.09 175.9 528.55 183.07 525.22 189.22C521.89 195.38 521.67 202.25 518 208C518.15 210.08 520.78 213.85 523 212C528.41 199.17 531.83 190.46 535.32 176.32C538.81 162.19 554.36 157.93 568 162C581.64 166.07 597.45 165.17 611 168C624.56 170.83 629.11 181.64 634.77 193.23C640.43 204.81 642.14 219.58 644 233C645.86 246.42 647.62 264.84 647 279C646.38 293.16 645.87 309.77 641.22 322.22C636.58 334.68 629.76 341.11 618.77 347.77C607.78 354.43 594.95 358.48 581.99 359.99C569.04 361.5 551.21 358.79 540.77 352.23C530.33 345.67 521.33 338.71 516.7 327.3C512.06 315.9 506.44 299.79 508.02 286.98C509.61 274.17 496.6 258.5 501.31 247.31C506.01 236.11 514.14 227.52 520 217C519.94 213.72 517.25 212.7 515 213C513.68 222.68 503.9 231.73 499.08 240.08C494.26 248.44 485.41 256.97 480.08 265.08C474.75 273.19 467.24 283.63 462.75 291.75C458.26 299.86 449.7 317.09 442 305C441.33 315.5 443.33 327.32 441 337C441 344.52 441.79 352.52 441 360C444.93 360.61 446.51 360.09 448 357C446.53 346.49 452.37 333.39 454 323C455.63 312.61 461.24 304.6 465.92 294.92C470.61 285.25 475.44 281.28 482.75 271.75C490.07 262.23 503.24 267.33 502.99 280.01C502.74 292.69 505.72 304.13 507 316C508.27 327.88 511.36 337.83 513.93 349.07C516.5 360.32 518.18 370.88 521 382C521.35 383.37 521.7 384.57 522 386C522.17 380.08 521.84 367.17 527.75 362.75C533.67 358.34 544.35 365.37 550.23 367.77C556.11 370.17 564.14 372.52 567.92 379.08C571.7 385.64 574.62 392.52 575.33 400.67C576.04 408.82 578.56 418.07 578 427C577.44 435.93 578.64 446.98 578 456C577.36 465.02 576.97 474.09 576.01 483.01C575.04 491.92 574.31 501.22 573 510C571.69 518.78 570.63 527.93 571 537C571.37 546.07 571.25 556.16 572.33 564.67C573.41 573.18 574.98 583.29 573.22 591.22C571.46 599.15 572.35 607.81 563.92 610.92C555.5 614.04 548.3 607.31 541.75 604.25C535.21 601.18 532.49 594.34 526.25 590.75C520 587.16 518.86 576.28 514 573C509.7 574.99 505.73 577.17 507 582C519.53 608.61 526.66 637.09 525 668C540.45 675.45 538.59 697.8 544 713C549.4 728.21 554.06 745.63 560.32 760.68C566.59 775.72 573.15 790.35 579.78 805.22C586.41 820.09 593.59 834.7 599 850C599.38 851.02 600.04 851.42 600 853C605.52 868.74 611.98 881.03 615.98 898.02C619.98 915.01 623.7 932.28 624 951C624.3 969.73 625.72 991.58 625 1011C624.28 1030.42 626.33 1046.92 617.69 1064.69C609.06 1082.47 590.77 1071.83 587.07 1054.93C583.38 1038.03 580.9 1017.36 582 1000C577.66 1009 565.06 1015.22 557 1007C556.17 1021.2 564.83 1039.96 556.68 1053.68C548.53 1067.4 536.07 1047.6 532.23 1036.77C528.39 1025.94 522.35 1010.47 519.07 997.93C515.8 985.38 511.23 969.87 508.67 956.33C506.11 942.79 501.08 927.2 500 913C497.32 913.24 494.49 916.14 495 919C502.55 937.7 502.78 958.6 508.98 978.02C515.17 997.45 517.89 1019.59 521 1040C521.46 1043.02 521.93 1045.72 522 1049C523.34 1060.11 526 1072.12 526 1084C526 1107.91 527.62 1132.7 524.07 1156.07C520.53 1179.44 518 1201.94 518 1226C518 1233.67 518 1241.33 518 1249C518 1266.1 521.16 1281.54 523 1298C523.62 1300.67 524.54 1305.47 529 1304C528.02 1292.53 525.07 1281.22 524.22 1269.78C523.37 1258.33 521.92 1242.31 523 1231C524.08 1219.69 522.92 1203.93 526.33 1194.33C529.74 1184.73 526.65 1169.85 535.25 1164.25C543.85 1158.65 549.35 1177.6 551.78 1185.22C554.2 1192.85 558.63 1206.73 560.78 1216.22C562.92 1225.71 566.01 1237.51 567.78 1248.22C569.54 1258.94 570.83 1271.89 572.78 1283.22C574.73 1294.55 575.02 1308.05 576 1320C576.98 1331.96 577.05 1344.78 578 1357C578.95 1369.22 579.21 1382.63 580 1395C580.79 1407.37 583.14 1418.56 584 1431C584.85 1443.44 591.01 1451.31 589 1465C586.99 1478.69 572.09 1469.81 571.22 1458.78C570.35 1447.74 566.26 1436.51 564.02 1425.98C561.79 1415.44 558.19 1406.07 555.07 1395.93C551.96 1385.78 549.51 1374.9 546.02 1364.98C542.54 1355.05 540.93 1343.52 537.02 1333.98C533.12 1324.44 535.1 1308.3 525 1306C527.71 1316.13 528.71 1326.77 531 1337C531.72 1338.63 532.52 1340.29 533 1342C535.83 1352.04 536.81 1362.03 539.93 1372.07C543.04 1382.12 543.58 1393.44 546.33 1403.67C549.08 1413.9 551.05 1424.54 552.99 1435.01C554.94 1445.48 557.51 1456.47 559 1467C560.49 1477.53 564.87 1490.31 561.02 1501.02C557.18 1511.74 560.24 1523.34 562.93 1533.07C565.61 1542.81 556.89 1553.8 553.08 1561.08C549.28 1568.37 542.73 1578.33 537.7 1583.7C532.66 1589.07 523.88 1607.17 535 1609C536 1609.05 537 1608.96 538 1609C537.88 1602.07 541.52 1595.16 547 1591C543.04 1596.51 535.22 1613 547.01 1613.99C558.79 1614.98 551.76 1594.42 563 1593C558.36 1599.04 548.87 1617.09 562 1618C575.13 1618.91 567.55 1597.77 578 1594C576.5 1602.21 566.06 1611.96 574 1620C576.29 1620.72 578.44 1621.1 581 1621C583.14 1617.08 589.03 1621.25 587.97 1613.97C586.91 1606.7 593.49 1599.33 599 1596C593.24 1602.85 583.16 1617.41 598 1621C609.18 1619.92 615.45 1620.39 621 1610C626.69 1594.38 626.15 1581.58 621.23 1565.77C616.31 1549.97 618.04 1531.87 619.78 1515.78C621.51 1499.69 611.6 1485.84 611 1470C608.8 1454.62 609.69 1436.78 611 1421C612.31 1405.22 608.18 1390.24 604.07 1375.93C599.97 1361.61 597.02 1347.81 595 1333C592.98 1318.19 589.41 1302.35 590 1287C590.59 1271.65 590.24 1253.96 595 1240C599.76 1226.04 600.97 1214.89 609.31 1202.31C617.64 1189.72 615.93 1173.97 619 1160C619 1159 618.98 1158 619 1157C619.05 1154.68 619.64 1153.18 620 1151C624.24 1124.97 631 1099.14 631 1072C631 1061.67 631 1051.33 631 1041C631 1021.83 630.09 1002.44 630 983C629.91 963.56 632 945.14 632 926C632 913.47 626.71 902.22 623.22 890.78C619.73 879.34 616.97 867.31 612.68 856.32C608.39 845.34 604.84 834.54 600.07 823.93C595.31 813.31 590.46 803.86 585.69 793.31C580.93 782.75 576.4 772.77 572.02 761.98C567.65 751.18 563.08 742.09 559.22 730.78C555.37 719.46 551.57 708.97 548.02 696.98C544.48 684.98 540.65 675.21 538.01 661.99C535.37 648.77 529.45 641.57 529 626C528.56 610.42 544.13 623.62 548.25 633.75C552.36 643.88 560.83 650.37 566.75 659.25C572.68 668.13 579.87 675.99 586.75 684.25C593.64 692.5 600.75 700.22 607.25 708.75C613.75 717.28 618.9 727.55 624.31 736.7C629.71 745.84 635.94 757.2 647 759C653.97 759.38 661.66 759.34 668 757C675.86 754.1 678.99 743.38 683.77 736.77C688.55 730.16 692.47 721.18 697.3 714.3C702.13 707.42 708.32 700.24 713.75 693.75C719.18 687.27 724.8 680.56 730.25 674.25C735.69 667.93 741.77 659.76 746.25 653.25C750.74 646.75 757.94 638.4 761.25 632.25C764.56 626.1 775.75 610.61 778.99 621.01C782.23 631.41 775.08 642.06 773.67 651.67C772.26 661.29 767.59 670.86 765.22 680.22C762.86 689.59 759.79 698.86 757.02 708.02C754.26 717.19 750.23 726.3 747.22 735.22C744.22 744.15 740.68 752.55 737.08 761.08C733.48 769.6 729.31 778.33 725.7 786.69C722.08 795.06 718.17 803.25 714.23 811.23C710.29 819.21 703.66 830.87 716 834C722.37 820.61 727.17 807.08 733.78 793.78C740.38 780.48 744.96 766.54 750.93 752.93C756.89 739.31 760.23 722.83 764.93 708.93C769.62 695.02 769.16 674.39 783 668C782.89 648.8 784.63 630.08 789 612C778.09 611.43 765.62 611 754 611C742 611 730 611 718 611C713.71 622.49 711.69 637.66 706.68 648.68C701.66 659.69 699.15 674.28 693.07 684.07C686.99 693.86 682.51 708.44 667.93 707.93C653.35 707.41 655.18 684.1 656 671C656.82 657.9 657.91 637.81 657 623C656.09 608.19 658.28 590.71 658.93 575.93C659.57 561.14 674.27 554.71 687.07 555.07C699.88 555.44 720.74 549.09 723.93 565.07C727.11 581.06 719.96 594.05 719 609C726 609 733 609 740 609C729.63 583.94 738.87 556.12 737 529C735.13 501.88 730.83 475.4 730 448C714.25 444.82 729.02 467.97 719.25 474.25C709.48 480.53 696.07 474.09 685.99 473.01C675.91 471.92 661.88 471.78 659.08 459.92C656.27 448.07 658.59 433.21 658 421C657.41 408.79 670.28 402.32 679.23 407.77C688.18 413.22 696.22 416.38 704.08 422.92C711.94 429.46 718.18 436.53 721 446C724 446 727 446 730 446C730 426.67 729.58 395.21 739.92 379.92C750.26 364.64 782.74 352.72 785 375C785.29 376.19 786.8 378.16 786 380C787.65 378.99 786.93 375.8 789 375C791.23 363.53 793.5 352.8 796.33 341.33C799.15 329.86 799.5 317.78 802 306C804.5 294.22 802.37 282.01 807.77 270.77C813.17 259.53 826.44 270.7 831.3 278.7C836.17 286.69 843.48 294.42 846.97 304.03C850.46 313.63 855.55 324.12 856.98 335.02C858.4 345.93 861.66 359.57 862 371C862.34 382.43 865.22 398.97 862 410C858.78 421.03 861.08 435.38 855 445C860.23 444.73 864.48 445.92 870 444C872.2 443.23 873.53 445.05 874 442C872.56 429.95 870.48 418.49 870 406C869.8 400.86 869 396.28 869 391C868.58 386.61 868 381.07 868 376C868 370 868 364 868 358C866.38 341.27 867.97 321.62 866 305C857.19 316.89 849.66 298.33 844.23 289.77C838.8 281.21 832.17 270.26 825.7 261.3C819.23 252.35 811.24 244.85 805.23 234.77C799.22 224.69 793.68 215.8 789.08 203.92C784.47 192.05 779.36 183.21 777.02 168.98C774.69 154.75 796.16 150.51 808 152C808.63 149.47 805.47 150.1 804 150C798.88 148.31 791.44 145.94 786 146C776.58 148.56 767.96 150.92 758.02 152.02C748.09 153.13 739.14 154.6 729 156C718.86 157.4 708.3 156.75 698 159C687.71 161.25 682.77 159.09 673.75 167.75C664.73 176.41 661.03 165.26 666.23 156.23C671.43 147.2 671.63 140.7 674.68 131.68C677.72 122.66 679.28 113.84 682.02 105.02C684.77 96.21 686.2 87.61 689.02 79.02C691.85 70.44 695.03 62.74 697 54C684.43 65.35 670.47 75.3 653 75C635.53 74.7 623.58 64.16 611 53C613.82 62.8 618.03 73.62 620.67 83.33C623.31 93.04 626.61 105.82 629.07 114.93C631.54 124.03 634.85 138.66 638.07 145.93C641.3 153.19 649.23 175.1 638.75 171.25C628.27 167.4 623.39 158.42 611.01 158.99C598.62 159.57 586.69 156.49 574.67 155.33C562.65 154.17 551.15 154.03 539.67 150.33C528.2 146.62 519.75 146.97 508 149ZM759 161C775.83 163.73 774.1 188.3 780.93 201.07C787.75 213.85 794.11 228.67 803.3 241.7C812.49 254.72 799.35 275.76 800 292C800.65 308.24 794.24 325.37 784.25 338.25C774.25 351.12 759.64 358 742.99 359.99C726.34 361.99 705.57 356.88 691.31 348.7C677.04 340.51 666.87 329.78 664.02 312.98C661.17 296.17 661.44 270.31 662 253C662.56 235.69 666.04 214.15 671.32 199.32C676.6 184.5 684.42 167.14 702.02 167.02C719.63 166.91 741.2 158.11 759 161ZM644 354C653.84 357.28 651.58 380.94 645.25 387.25C638.91 393.55 626.5 400.48 618.25 404.25C610.01 408.03 598.91 423.8 588.33 418.67C577.75 413.54 581.87 393.32 585.77 384.77C589.67 376.22 599.9 366.94 609.69 364.69C619.49 362.45 632.84 350.28 644 354ZM673 354C686.46 356.41 696.95 363.14 709.75 370.25C722.54 377.37 727.43 390.51 726 407C724.57 423.49 704.9 418.59 695.92 408.08C686.94 397.58 671.79 398.09 663.25 387.75C654.7 377.41 654.52 350.69 673 354ZM643 406C651.17 409.32 650.03 423.88 650 432C649.97 440.12 651.85 455.13 647.23 463.23C642.61 471.32 632.12 472.34 623 473C613.87 473.65 603.07 478.31 593.33 476.67C583.59 475.03 585.09 458.77 586 451C586.91 443.23 592.28 434.51 597.75 428.75C603.23 423 610.77 418.48 617.23 414.23C623.69 409.98 634.43 402.51 643 406ZM638 479C650.57 481.6 650.71 501.82 650 512C649.29 522.18 652.31 543.1 639.77 547.77C627.23 552.44 611.46 546 598 546C584.54 546.01 582.23 526.04 583 516C583.77 505.96 583.23 485.14 597.02 484.03C610.82 482.91 624.07 476.12 638 479ZM681 479C692.3 480.09 708 479.65 718.23 486.77C728.46 493.89 723.1 512.93 725 525C726.9 537.07 713.72 549.75 701 547C688.28 544.25 673.05 555.6 663.75 543.25C654.45 530.89 661.21 518.16 659 503C656.79 487.84 665 477.45 681 479ZM610 554C621 555.06 641.34 553.6 646.92 566.08C652.5 578.56 651.81 596.59 651 611C650.19 625.41 653.05 645.21 652 659C650.95 672.79 657.17 693.97 648.75 704.75C640.32 715.52 624.6 700.91 619.7 691.31C614.79 681.7 608.65 669.14 605.02 656.98C601.39 644.81 596.65 634.02 593.02 619.98C589.4 605.93 586.7 596.1 585 579C583.3 561.9 590.25 552.09 610 554Z" fill="#E9D5C6" stroke="black"/>
<path d="M676 924C675.47 948.2 677.94 973.05 678 998C678.06 1022.95 674.6 1049.25 677 1074C680.19 1088.9 679.8 1105.89 682.98 1121.02C686.16 1136.16 690 1152.32 690 1168C690.42 1172.36 691.46 1177.93 691 1183C702.23 1212.96 718 1240.53 718 1274C718.64 1280.61 718.63 1288.46 718 1295C718 1314.17 712.87 1333.81 710.02 1352.02C707.18 1370.24 699.51 1386.4 697 1404C698.4 1413.72 698 1424.14 698 1434C698.73 1441.55 698.72 1450.52 698 1458C698 1476.27 690.42 1490.77 689 1508C687.58 1525.23 693.49 1544.6 687.22 1561.22C680.96 1577.85 681.27 1594.09 687 1610C689.04 1614.12 692.55 1619.23 697 1621C703.6 1622.78 714.72 1623.35 718.75 1615.75C722.79 1608.15 711.05 1602.21 710 1596C722.2 1600.87 717.64 1616.5 728 1621C730.11 1620.66 732.02 1620.83 734 1620C743.69 1614.36 730.08 1599.76 730 1593C737.48 1599.17 737.25 1609.82 741 1618C741.35 1618.23 742 1618 742 1618C760.03 1618 750.6 1602.72 746 1593C756.23 1595.81 749.59 1614.92 761 1614C772.42 1613.08 766.05 1596.31 761 1591C769.15 1594.35 767.59 1606.46 774 1609C789.13 1599 767.7 1583.25 762.75 1573.25C757.81 1563.24 742.34 1548.28 746 1534C749.66 1519.72 747 1499.83 747 1484C747 1468.17 752.51 1451.49 754.99 1435.99C757.48 1420.49 761.91 1405.22 764.78 1389.78C767.65 1374.34 771.58 1360.41 774.99 1344.99C778.4 1329.57 782.11 1314.92 784.98 1298.98C787.84 1283.03 790.82 1267.12 791 1250C791.18 1232.88 790.32 1212.93 789 1196C787.68 1179.07 784.22 1162.88 783 1146C782.86 1144.09 782.83 1141.91 783 1140C780.71 1116.35 778.52 1087.72 784 1064C784.11 1063.53 783.99 1062.5 784 1062C784.61 1038.57 791.6 1014.64 795.99 991.99C800.38 969.34 806.86 947.47 812 925C812.54 922.65 812.67 920.51 813 918C815.45 905.39 808 910.67 807.98 918.98C807.95 927.28 804.15 931.79 803.33 939.33C802.51 946.87 800.11 953.81 798.98 960.98C797.84 968.14 795.59 974.14 793.93 980.93C792.26 987.72 790.04 993.67 788.33 1000.33C786.61 1006.99 784.27 1013.6 781.98 1019.98C779.68 1026.36 778.3 1032.21 775.31 1038.31C772.31 1044.4 770.05 1048.41 766.25 1054.25C762.45 1060.09 753 1060.92 750.99 1053.01C748.99 1045.1 749.16 1038.21 749 1030C748.84 1021.79 750.19 1014.86 751 1007C743.32 1015.59 730.11 1008.99 726 1000C726.64 1011.46 725.75 1035.27 723 1046C720.24 1056.73 716.17 1077.68 702.07 1074.93C687.98 1072.17 687.18 1054.29 684 1042C680.82 1029.71 684.25 1007.36 683 993C681.75 978.64 685.01 959.44 685 945C684.99 930.56 688.6 913.82 691.68 900.68C694.76 887.54 700.17 874.88 704.02 863.02C707.88 851.17 719.92 837.18 706 831C700.87 845.99 691.96 860.59 689.32 876.32C686.68 892.05 675.4 907.82 676 924ZM772 1163C778.72 1164.8 778.03 1177.93 779.98 1184.02C781.92 1190.12 783.24 1201.33 784 1209C784.76 1216.67 785.89 1227.63 786 1236C786.11 1244.37 785.52 1255.55 785 1264C784.48 1272.45 783.06 1281.52 781.67 1289.67C780.28 1297.82 778.35 1305.75 776.67 1313.67C774.99 1321.59 772.67 1328.95 770.67 1336.67C768.67 1344.4 766.3 1351.62 764.22 1359.22C762.14 1366.82 760.12 1374.22 757.68 1381.68C755.23 1389.14 753 1396.37 751.01 1404.01C749.01 1411.65 746.47 1418.57 744.22 1426.22C741.97 1433.87 742.04 1442.53 739.07 1450.07C736.1 1457.62 738.2 1464.73 730.75 1470.75C723.3 1476.78 717.41 1467 719.78 1458.78C722.15 1450.56 722.19 1442.34 723.93 1433.93C725.67 1425.52 725.68 1416.65 727 1408C728.32 1399.35 728.58 1389.99 729 1381C729.42 1372.01 730.13 1362.91 730.98 1353.98C731.82 1345.05 731 1334.85 732 1326C733 1317.15 732.95 1307.67 734 1299C735.05 1290.33 736.14 1281.48 737 1273C737.86 1264.52 739.77 1256.09 740.99 1247.99C742.22 1239.9 744.03 1231.42 745.93 1223.93C747.82 1216.44 749.64 1207.65 751.93 1200.93C754.22 1194.2 756.26 1184.4 758.93 1178.93C761.59 1173.45 764.42 1160.96 772 1163Z" fill="#E8D6C6" stroke="black"/>
<path d="M545 1617C544.76 1616.69 545.19 1615.08 545 1615C542.37 1613.84 540.61 1612.53 538 1611C533.13 1609.49 531.05 1611.77 529 1605C524.49 1590.14 538.87 1581.42 544.92 1569.92C550.96 1558.42 563.89 1546.82 560 1532C556.11 1517.18 558.86 1498.82 559 1483C559.14 1467.18 553.83 1452.75 551.22 1437.78C548.61 1422.81 544.85 1408.8 542.01 1393.99C539.17 1379.18 535.78 1364.57 532 1350C529.94 1342.04 528.68 1334.12 527 1326C519.15 1302.13 518.48 1275.67 516 1250C515.3 1242.74 515 1234.02 515 1226C515 1220.74 515.9 1216.24 516 1211C516.14 1204.01 518.04 1194.59 518.02 1188.02C518.01 1181.46 522.9 1171.27 519 1166C520.04 1181.49 514.22 1196.62 514 1212C513.78 1227.38 512.67 1244.84 514.02 1259.98C515.38 1275.11 518.89 1289.41 521 1304C523.12 1318.59 526.33 1331.29 529.68 1345.32C533.03 1359.36 536.24 1372.83 539 1387C541.77 1401.16 544.16 1413.93 548.01 1427.99C551.85 1442.05 552.48 1456.4 556.07 1470.93C559.66 1485.46 554.6 1502.02 556 1517C557.4 1531.98 559.46 1545.65 550.31 1558.31C541.15 1570.96 539.09 1574.48 529.92 1587.92C520.76 1601.37 531.11 1613.61 545 1617Z" fill="#946565" fill-opacity="0.09" stroke="black"/>
</svg>
