<svg width="1316" height="1883" viewBox="0 0 1316 1883" fill="none" xmlns="http://www.w3.org/2000/svg"><g xmlns="http://www.w3.org/2000/svg" id="muscle_quad-outer-left.svg">
<path d="M487 1098C494.75 1096.28 499.68 1087.78 507 1085C507.24 1082.09 505.24 1079.82 505 1077C493.11 1035.32 489.19 990.02 491 946C471.51 994.04 478.6 1048.28 487 1098Z" fill="#C8A38E"/>
<path d="M487 1098C494.75 1096.28 499.68 1087.78 507 1085C507.24 1082.09 505.24 1079.82 505 1077C493.11 1035.32 489.19 990.02 491 946C471.51 994.04 478.6 1048.28 487 1098Z" fill="#FF2D55" fill-opacity="0.5"/>
<path d="M521 1223L509.5 1191L489 1106.5L493 1097L505.5 1089H509.5V1094.5L538 1178.5L544 1214V1235.5L538 1245.5L531.5 1243L521 1223Z" fill="#C8A38E"/>
<path d="M521 1223L509.5 1191L489 1106.5L493 1097L505.5 1089H509.5V1094.5L538 1178.5L544 1214V1235.5L538 1245.5L531.5 1243L521 1223Z" fill="#FF383C" fill-opacity="0.5"/>
<path d="M487 1098C494.75 1096.28 499.68 1087.78 507 1085C507.24 1082.09 505.24 1079.82 505 1077C493.11 1035.32 489.19 990.02 491 946C471.51 994.04 478.6 1048.28 487 1098Z" stroke="black"/>
<path d="M521 1223L509.5 1191L489 1106.5L493 1097L505.5 1089H509.5V1094.5L538 1178.5L544 1214V1235.5L538 1245.5L531.5 1243L521 1223Z" stroke="black"/>
</g>
</svg>
