<svg width="1316" height="1883" viewBox="0 0 1316 1883" fill="none" xmlns="http://www.w3.org/2000/svg"><g xmlns="http://www.w3.org/2000/svg" id="muscle_tibialis-right.svg">
<path d="M759 1356C752.94 1353.69 749.34 1366.62 747.31 1371.31C745.27 1375.99 742.68 1384.94 740.98 1390.98C739.27 1397.01 736.77 1404.51 735.33 1411.33C733.89 1418.14 732.11 1426.72 731 1434C729.89 1441.27 728.29 1448.79 727.33 1456.33C726.37 1463.87 725.13 1471.28 724 1479C722.87 1486.72 722.58 1494.9 722 1503C721.42 1511.1 721.3 1520.76 721 1529C720.7 1537.23 719.28 1544.8 719 1553C718.72 1561.21 718.66 1569.92 718 1578C717.34 1586.08 716.5 1594.82 715.78 1602.78C715.05 1610.74 714.24 1617.82 712.33 1625.33C710.42 1632.84 711.7 1640.76 708.98 1647.98C706.25 1655.2 711.11 1664.61 717.25 1658.25C723.38 1651.88 721.58 1645.37 724.22 1638.22C726.87 1631.08 727.33 1624.23 729.07 1617.07C730.82 1609.92 733.22 1604.02 735.02 1597.02C736.82 1590.03 738.86 1582.84 741.02 1576.02C743.19 1569.21 745 1562.89 747.07 1556.07C749.15 1549.25 750.85 1542.59 752.69 1535.69C754.54 1528.8 757.03 1522.77 758.67 1515.67C760.31 1508.58 762.03 1501.15 764 1494C765.98 1486.85 765.72 1478.96 767.67 1471.67C769.62 1464.38 768.72 1455.52 770 1448C771.29 1440.48 771.5 1429.63 771 1422C770.5 1414.38 769.84 1405.12 768.78 1398.22C767.72 1391.32 767.14 1381.53 764.98 1376.02C762.81 1370.52 764.8 1358.21 759 1356Z" fill="#C9A48F"/>
<path d="M759 1356C752.94 1353.69 749.34 1366.62 747.31 1371.31C745.27 1375.99 742.68 1384.94 740.98 1390.98C739.27 1397.01 736.77 1404.51 735.33 1411.33C733.89 1418.14 732.11 1426.72 731 1434C729.89 1441.27 728.29 1448.79 727.33 1456.33C726.37 1463.87 725.13 1471.28 724 1479C722.87 1486.72 722.58 1494.9 722 1503C721.42 1511.1 721.3 1520.76 721 1529C720.7 1537.23 719.28 1544.8 719 1553C718.72 1561.21 718.66 1569.92 718 1578C717.34 1586.08 716.5 1594.82 715.78 1602.78C715.05 1610.74 714.24 1617.82 712.33 1625.33C710.42 1632.84 711.7 1640.76 708.98 1647.98C706.25 1655.2 711.11 1664.61 717.25 1658.25C723.38 1651.88 721.58 1645.37 724.22 1638.22C726.87 1631.08 727.33 1624.23 729.07 1617.07C730.82 1609.92 733.22 1604.02 735.02 1597.02C736.82 1590.03 738.86 1582.84 741.02 1576.02C743.19 1569.21 745 1562.89 747.07 1556.07C749.15 1549.25 750.85 1542.59 752.69 1535.69C754.54 1528.8 757.03 1522.77 758.67 1515.67C760.31 1508.58 762.03 1501.15 764 1494C765.98 1486.85 765.72 1478.96 767.67 1471.67C769.62 1464.38 768.72 1455.52 770 1448C771.29 1440.48 771.5 1429.63 771 1422C770.5 1414.38 769.84 1405.12 768.78 1398.22C767.72 1391.32 767.14 1381.53 764.98 1376.02C762.81 1370.52 764.8 1358.21 759 1356Z" fill="#34C759" fill-opacity="0.5"/>
<path d="M759 1356C752.94 1353.69 749.34 1366.62 747.31 1371.31C745.27 1375.99 742.68 1384.94 740.98 1390.98C739.27 1397.01 736.77 1404.51 735.33 1411.33C733.89 1418.14 732.11 1426.72 731 1434C729.89 1441.27 728.29 1448.79 727.33 1456.33C726.37 1463.87 725.13 1471.28 724 1479C722.87 1486.72 722.58 1494.9 722 1503C721.42 1511.1 721.3 1520.76 721 1529C720.7 1537.23 719.28 1544.8 719 1553C718.72 1561.21 718.66 1569.92 718 1578C717.34 1586.08 716.5 1594.82 715.78 1602.78C715.05 1610.74 714.24 1617.82 712.33 1625.33C710.42 1632.84 711.7 1640.76 708.98 1647.98C706.25 1655.2 711.11 1664.61 717.25 1658.25C723.38 1651.88 721.58 1645.37 724.22 1638.22C726.87 1631.08 727.33 1624.23 729.07 1617.07C730.82 1609.92 733.22 1604.02 735.02 1597.02C736.82 1590.03 738.86 1582.84 741.02 1576.02C743.19 1569.21 745 1562.89 747.07 1556.07C749.15 1549.25 750.85 1542.59 752.69 1535.69C754.54 1528.8 757.03 1522.77 758.67 1515.67C760.31 1508.58 762.03 1501.15 764 1494C765.98 1486.85 765.72 1478.96 767.67 1471.67C769.62 1464.38 768.72 1455.52 770 1448C771.29 1440.48 771.5 1429.63 771 1422C770.5 1414.38 769.84 1405.12 768.78 1398.22C767.72 1391.32 767.14 1381.53 764.98 1376.02C762.81 1370.52 764.8 1358.21 759 1356Z" stroke="black"/>
</g>
</svg>
