<svg width="1316" height="1883" viewBox="0 0 1316 1883" fill="none" xmlns="http://www.w3.org/2000/svg"><g xmlns="http://www.w3.org/2000/svg" id="muscle_adductor-right.svg">
<path d="M679.5 914.541L760.5 810.015L763 807V810.015L756.5 843.685L736.5 917.556L687.5 1028.11L661.5 1105L659 1064.3L654 1018.56V985.9L661.5 945.196L679.5 914.541Z" fill="#C7A28D"/>
<path d="M679.5 914.541L760.5 810.015L763 807V810.015L756.5 843.685L736.5 917.556L687.5 1028.11L661.5 1105L659 1064.3L654 1018.56V985.9L661.5 945.196L679.5 914.541Z" fill="#FF2D55" fill-opacity="0.5"/>
<path d="M679.5 914.541L760.5 810.015L763 807V810.015L756.5 843.685L736.5 917.556L687.5 1028.11L661.5 1105L659 1064.3L654 1018.56V985.9L661.5 945.196L679.5 914.541Z" stroke="black"/>
</g>
</svg>
