<svg width="1316" height="1883" viewBox="0 0 1316 1883" fill="none" xmlns="http://www.w3.org/2000/svg"><g xmlns="http://www.w3.org/2000/svg" id="muscle_oblique-right.svg">
<path d="M735 564.5C736.667 564.5 740.8 563.9 744 561.5L760 553.5L768.5 557C768.5 562 769.2 572 772 572C774.8 572 770.833 589 768.5 597.5L760 635.5H721V597.5L725.5 578L735 564.5Z" fill="#C9A48E"/>
<path d="M735 564.5C736.667 564.5 740.8 563.9 744 561.5L760 553.5L768.5 557C768.5 562 769.2 572 772 572C774.8 572 770.833 589 768.5 597.5L760 635.5H721V597.5L725.5 578L735 564.5Z" fill="#00C0E8" fill-opacity="0.5"/>
<path d="M760 639H721V658.5L725.5 694V748.5V785C725.5 788.2 728.5 793.333 730 795.5L740.5 799L749.5 795.5L760 785L777 767L781.5 748.5L777 732.5L763 694L757.5 670L760 639Z" fill="#C9A48E"/>
<path d="M760 639H721V658.5L725.5 694V748.5V785C725.5 788.2 728.5 793.333 730 795.5L740.5 799L749.5 795.5L760 785L777 767L781.5 748.5L777 732.5L763 694L757.5 670L760 639Z" fill="#00C0E8" fill-opacity="0.5"/>
<path d="M735 564.5C736.667 564.5 740.8 563.9 744 561.5L760 553.5L768.5 557C768.5 562 769.2 572 772 572C774.8 572 770.833 589 768.5 597.5L760 635.5H721V597.5L725.5 578L735 564.5Z" stroke="black"/>
<path d="M760 639H721V658.5L725.5 694V748.5V785C725.5 788.2 728.5 793.333 730 795.5L740.5 799L749.5 795.5L760 785L777 767L781.5 748.5L777 732.5L763 694L757.5 670L760 639Z" stroke="black"/>
</g>
</svg>
