<svg width="1316" height="1883" viewBox="0 0 1316 1883" fill="none" xmlns="http://www.w3.org/2000/svg"><g xmlns="http://www.w3.org/2000/svg" id="muscle_abs-upper-left.svg">
<path d="M630 546C622.24 542.84 612.2 551.42 605.23 553.23C598.26 555.04 590.7 559.8 584.7 563.7C578.7 567.59 572.93 574.99 572 582C571.07 589.01 568.7 602.37 576.33 606.67C583.96 610.97 591.61 599.37 597.31 596.31C603 593.24 610.96 587.51 616.92 584.92C622.89 582.33 631.98 577.08 633.67 570.67C635.36 564.26 637.6 549.09 630 546Z" fill="#C7A28D"/>
<path d="M630 546C622.24 542.84 612.2 551.42 605.23 553.23C598.26 555.04 590.7 559.8 584.7 563.7C578.7 567.59 572.93 574.99 572 582C571.07 589.01 568.7 602.37 576.33 606.67C583.96 610.97 591.61 599.37 597.31 596.31C603 593.24 610.96 587.51 616.92 584.92C622.89 582.33 631.98 577.08 633.67 570.67C635.36 564.26 637.6 549.09 630 546Z" fill="#00C0E8" fill-opacity="0.5"/>
<path d="M630 546C622.24 542.84 612.2 551.42 605.23 553.23C598.26 555.04 590.7 559.8 584.7 563.7C578.7 567.59 572.93 574.99 572 582C571.07 589.01 568.7 602.37 576.33 606.67C583.96 610.97 591.61 599.37 597.31 596.31C603 593.24 610.96 587.51 616.92 584.92C622.89 582.33 631.98 577.08 633.67 570.67C635.36 564.26 637.6 549.09 630 546Z" stroke="black"/>
</g>
</svg>
