<svg width="1316" height="1883" viewBox="0 0 1316 1883" fill="none" xmlns="http://www.w3.org/2000/svg"><g xmlns="http://www.w3.org/2000/svg" id="muscle_abs-lower-right.svg">
<path d="M647.5 685.5L651.5 679L654 675L661.5 672.5H682.5L702.5 679L710 685.5V715C709 718.833 706.6 726.8 705 728C703.4 729.2 699.167 734.5 696 737L682.5 733.5C676.833 733.5 665.5 734.2 665.5 737C665.5 739.8 657.833 735.833 654 733.5L647.5 724V712V685.5Z" fill="#C9A48F"/>
<path d="M647.5 685.5L651.5 679L654 675L661.5 672.5H682.5L702.5 679L710 685.5V715C709 718.833 706.6 726.8 705 728C703.4 729.2 699.167 734.5 696 737L682.5 733.5C676.833 733.5 665.5 734.2 665.5 737C665.5 739.8 657.833 735.833 654 733.5L647.5 724V712V685.5Z" fill="#00C0E8" fill-opacity="0.5"/>
<path d="M647.5 685.5L651.5 679L654 675L661.5 672.5H682.5L702.5 679L710 685.5V715C709 718.833 706.6 726.8 705 728C703.4 729.2 699.167 734.5 696 737L682.5 733.5C676.833 733.5 665.5 734.2 665.5 737C665.5 739.8 657.833 735.833 654 733.5L647.5 724V712V685.5Z" stroke="black"/>
</g>
</svg>
