<svg width="1316" height="1883" viewBox="0 0 1316 1883" fill="none" xmlns="http://www.w3.org/2000/svg"><g xmlns="http://www.w3.org/2000/svg" id="muscle_adductor-left.svg">
<path d="M541 898L519.5 819V810.5L527.5 815.5L541 835L561.5 863L586 891L606.5 921.5L625.5 959.5L628 1017.5L619.5 1099L610 1065L579.5 990L541 898Z" fill="#C9A48F"/>
<path d="M541 898L519.5 819V810.5L527.5 815.5L541 835L561.5 863L586 891L606.5 921.5L625.5 959.5L628 1017.5L619.5 1099L610 1065L579.5 990L541 898Z" fill="#FF2D55" fill-opacity="0.5"/>
<path d="M541 898L519.5 819V810.5L527.5 815.5L541 835L561.5 863L586 891L606.5 921.5L625.5 959.5L628 1017.5L619.5 1099L610 1065L579.5 990L541 898Z" stroke="black"/>
</g>
</svg>
