<svg width="1316" height="1883" viewBox="0 0 1316 1883" fill="none" xmlns="http://www.w3.org/2000/svg"><g xmlns="http://www.w3.org/2000/svg" id="muscle_abs-upper-right.svg">
<path d="M673 551.5L655.5 546.5L646.5 551.5L649.5 570L661.5 583L684.5 596.5L700.5 605.5L707.5 603L711 591.5L707.5 575.5L697.5 564.5L673 551.5Z" fill="#C9A48F"/>
<path d="M673 551.5L655.5 546.5L646.5 551.5L649.5 570L661.5 583L684.5 596.5L700.5 605.5L707.5 603L711 591.5L707.5 575.5L697.5 564.5L673 551.5Z" fill="#00C0E8" fill-opacity="0.5"/>
<path d="M673 551.5L655.5 546.5L646.5 551.5L649.5 570L661.5 583L684.5 596.5L700.5 605.5L707.5 603L711 591.5L707.5 575.5L697.5 564.5L673 551.5Z" stroke="black"/>
</g>
</svg>
