<svg width="1316" height="1883" viewBox="0 0 1316 1883" fill="none" xmlns="http://www.w3.org/2000/svg"><g xmlns="http://www.w3.org/2000/svg" id="muscle_quad-inner-left.svg">
<path d="M494.5 939L504.5 913.5L511.819 870.5L512.5 864H518.5L522.5 875L532 913.5L552.5 965.5L578 1028.5L583 1053L580.5 1127.5L575.5 1166L564 1193L552.5 1198.5L545.5 1193L542.5 1187L539.5 1176.5L508.5 1078.5L502 1053L494.5 997V939Z" fill="#C8A38E"/>
<path d="M494.5 939L504.5 913.5L511.819 870.5L512.5 864H518.5L522.5 875L532 913.5L552.5 965.5L578 1028.5L583 1053L580.5 1127.5L575.5 1166L564 1193L552.5 1198.5L545.5 1193L542.5 1187L539.5 1176.5L508.5 1078.5L502 1053L494.5 997V939Z" fill="#6155F5" fill-opacity="0.5"/>
<path d="M584 1111.5L587 1041L597.5 1075.5L604 1096.5L609 1152.5V1224L600.5 1255C598.667 1255.67 595 1257.5 595 1259.5C595 1261.5 589.667 1260.33 587 1259.5L580 1251.5L574 1227.5L571.5 1203L580 1160.5L584 1111.5Z" fill="#C9A48F"/>
<path d="M584 1111.5L587 1041L597.5 1075.5L604 1096.5L609 1152.5V1224L600.5 1255C598.667 1255.67 595 1257.5 595 1259.5C595 1261.5 589.667 1260.33 587 1259.5L580 1251.5L574 1227.5L571.5 1203L580 1160.5L584 1111.5Z" fill="#6155F5" fill-opacity="0.5"/>
<path d="M494.5 939L504.5 913.5L511.819 870.5L512.5 864H518.5L522.5 875L532 913.5L552.5 965.5L578 1028.5L583 1053L580.5 1127.5L575.5 1166L564 1193L552.5 1198.5L545.5 1193L542.5 1187L539.5 1176.5L508.5 1078.5L502 1053L494.5 997V939Z" stroke="black"/>
<path d="M584 1111.5L587 1041L597.5 1075.5L604 1096.5L609 1152.5V1224L600.5 1255C598.667 1255.67 595 1257.5 595 1259.5C595 1261.5 589.667 1260.33 587 1259.5L580 1251.5L574 1227.5L571.5 1203L580 1160.5L584 1111.5Z" stroke="black"/>
</g>
</svg>
