<svg width="1316" height="1883" viewBox="0 0 1316 1883" fill="none" xmlns="http://www.w3.org/2000/svg"><g xmlns="http://www.w3.org/2000/svg" id="muscle_hip-flexor-left.svg">
<path d="M618.5 748.5L623.5 750.5L630.5 755.5L634 760L635 775.5V792L636.5 817V855V881.5L634 892.5L627 895.5L618.5 891L610.5 881.5L599 857.5L587 824L579.5 794.5L575.5 775.5L574 765L575.5 757L578 752.5L582 748.5L589 747H596H606.5L618.5 748.5Z" fill="#C8A38E"/>
<path d="M618.5 748.5L623.5 750.5L630.5 755.5L634 760L635 775.5V792L636.5 817V855V881.5L634 892.5L627 895.5L618.5 891L610.5 881.5L599 857.5L587 824L579.5 794.5L575.5 775.5L574 765L575.5 757L578 752.5L582 748.5L589 747H596H606.5L618.5 748.5Z" fill="#00C0E8" fill-opacity="0.5"/>
<path d="M618.5 748.5L623.5 750.5L630.5 755.5L634 760L635 775.5V792L636.5 817V855V881.5L634 892.5L627 895.5L618.5 891L610.5 881.5L599 857.5L587 824L579.5 794.5L575.5 775.5L574 765L575.5 757L578 752.5L582 748.5L589 747H596H606.5L618.5 748.5Z" stroke="black"/>
</g>
</svg>
