<svg width="1316" height="1883" viewBox="0 0 1316 1883" fill="none" xmlns="http://www.w3.org/2000/svg"><g xmlns="http://www.w3.org/2000/svg" id="muscle_abs-mid-right.svg">
<path d="M707 642C706.64 641.25 705.39 640.35 706 639C699.33 639 692.67 639 686 639C684.36 649.54 668.62 649.47 668.01 637.99C667.4 626.52 683.29 624.79 686 636C691.89 634.78 701.53 638.51 705 634C701.13 625.34 694.96 616.86 686.08 611.92C677.2 606.98 670.67 598.3 659 598C647.33 597.71 645.52 617.14 647 627C648.48 636.86 643.34 654.56 656.93 658.07C670.51 661.59 676.96 660.27 691.78 664.22C706.59 668.18 708.88 654.89 707 642Z" fill="#C7A28D"/>
<path d="M707 642C706.64 641.25 705.39 640.35 706 639C699.33 639 692.67 639 686 639C684.36 649.54 668.62 649.47 668.01 637.99C667.4 626.52 683.29 624.79 686 636C691.89 634.78 701.53 638.51 705 634C701.13 625.34 694.96 616.86 686.08 611.92C677.2 606.98 670.67 598.3 659 598C647.33 597.71 645.52 617.14 647 627C648.48 636.86 643.34 654.56 656.93 658.07C670.51 661.59 676.96 660.27 691.78 664.22C706.59 668.18 708.88 654.89 707 642Z" fill="#00C0E8" fill-opacity="0.5"/>
<path d="M707 642C706.64 641.25 705.39 640.35 706 639C699.33 639 692.67 639 686 639C684.36 649.54 668.62 649.47 668.01 637.99C667.4 626.52 683.29 624.79 686 636C691.89 634.78 701.53 638.51 705 634C701.13 625.34 694.96 616.86 686.08 611.92C677.2 606.98 670.67 598.3 659 598C647.33 597.71 645.52 617.14 647 627C648.48 636.86 643.34 654.56 656.93 658.07C670.51 661.59 676.96 660.27 691.78 664.22C706.59 668.18 708.88 654.89 707 642Z" stroke="black"/>
</g>
</svg>
