<svg width="1316" height="1883" viewBox="0 0 1316 1883" fill="none" xmlns="http://www.w3.org/2000/svg"><g xmlns="http://www.w3.org/2000/svg" id="muscle_tfl-right.svg">
<path d="M780 797C784.61 798.17 793.18 800.29 800 799C800 798 800 797 800 796C798.29 791.98 798.15 787.22 797 783C796.41 781.59 796.07 780.96 796 779C795.63 777.53 794.54 774.79 794 773C790.83 769.95 787.46 780.32 785.78 782.78C784.1 785.23 782.01 794.43 780 797Z" fill="#E6CEBD"/>
<path d="M780 797C784.61 798.17 793.18 800.29 800 799C800 798 800 797 800 796C798.29 791.98 798.15 787.22 797 783C796.41 781.59 796.07 780.96 796 779C795.63 777.53 794.54 774.79 794 773C790.83 769.95 787.46 780.32 785.78 782.78C784.1 785.23 782.01 794.43 780 797Z" fill="#CB30E0" fill-opacity="0.5"/>
<path d="M778 802C775.96 813.3 773.82 824.68 773.33 836.33C772.84 847.98 772.71 862.48 773 874C773.29 885.52 776.54 896.28 779.22 906.78C781.91 917.28 785.82 924.7 789.22 934.78C792.63 944.86 796.62 953.38 799.01 963.99C801.4 974.6 803.16 984.87 805 996C806.84 1007.13 805.34 1022.49 806 1034C806.66 1045.51 802.38 1057.35 802 1068C801.62 1078.65 794.47 1091.24 802 1098C802.11 1096.76 803.59 1095.85 804 1095C809.96 1059.76 819.84 1025.24 822 989C822.27 984.43 823.53 979.89 824 976C824.17 971.68 824 967.32 824 963C824 952.67 824 942.33 824 932C824 922.52 822.91 913.38 822 904C821.03 900.72 820.6 896.75 820 893C817.6 877.94 814.55 861.87 812 847C809.45 832.13 802.39 818.11 802 803C795.45 799.38 785.73 801.18 778 802Z" fill="#E9D6C7"/>
<path d="M778 802C775.96 813.3 773.82 824.68 773.33 836.33C772.84 847.98 772.71 862.48 773 874C773.29 885.52 776.54 896.28 779.22 906.78C781.91 917.28 785.82 924.7 789.22 934.78C792.63 944.86 796.62 953.38 799.01 963.99C801.4 974.6 803.16 984.87 805 996C806.84 1007.13 805.34 1022.49 806 1034C806.66 1045.51 802.38 1057.35 802 1068C801.62 1078.65 794.47 1091.24 802 1098C802.11 1096.76 803.59 1095.85 804 1095C809.96 1059.76 819.84 1025.24 822 989C822.27 984.43 823.53 979.89 824 976C824.17 971.68 824 967.32 824 963C824 952.67 824 942.33 824 932C824 922.52 822.91 913.38 822 904C821.03 900.72 820.6 896.75 820 893C817.6 877.94 814.55 861.87 812 847C809.45 832.13 802.39 818.11 802 803C795.45 799.38 785.73 801.18 778 802Z" fill="#CB30E0" fill-opacity="0.5"/>
<path d="M748 798C756.46 797.2 767.71 800.68 777 799C777.11 798 776.53 796.27 778 796C778.03 785.14 791.23 776.35 791 766C789.07 760.76 787.85 755.19 786 750C786 750.79 782.16 760.38 780.77 764.77C779.38 769.16 774.9 773.95 771.75 777.75C768.6 781.55 764.08 784.79 760.75 788.75C757.42 792.71 752.44 795.65 748 798Z" fill="#E6CFBE"/>
<path d="M748 798C756.46 797.2 767.71 800.68 777 799C777.11 798 776.53 796.27 778 796C778.03 785.14 791.23 776.35 791 766C789.07 760.76 787.85 755.19 786 750C786 750.79 782.16 760.38 780.77 764.77C779.38 769.16 774.9 773.95 771.75 777.75C768.6 781.55 764.08 784.79 760.75 788.75C757.42 792.71 752.44 795.65 748 798Z" fill="#CB30E0" fill-opacity="0.5"/>
<path d="M780 797C784.61 798.17 793.18 800.29 800 799C800 798 800 797 800 796C798.29 791.98 798.15 787.22 797 783C796.41 781.59 796.07 780.96 796 779C795.63 777.53 794.54 774.79 794 773C790.83 769.95 787.46 780.32 785.78 782.78C784.1 785.23 782.01 794.43 780 797Z" stroke="black"/>
<path d="M778 802C775.96 813.3 773.82 824.68 773.33 836.33C772.84 847.98 772.71 862.48 773 874C773.29 885.52 776.54 896.28 779.22 906.78C781.91 917.28 785.82 924.7 789.22 934.78C792.63 944.86 796.62 953.38 799.01 963.99C801.4 974.6 803.16 984.87 805 996C806.84 1007.13 805.34 1022.49 806 1034C806.66 1045.51 802.38 1057.35 802 1068C801.62 1078.65 794.47 1091.24 802 1098C802.11 1096.76 803.59 1095.85 804 1095C809.96 1059.76 819.84 1025.24 822 989C822.27 984.43 823.53 979.89 824 976C824.17 971.68 824 967.32 824 963C824 952.67 824 942.33 824 932C824 922.52 822.91 913.38 822 904C821.03 900.72 820.6 896.75 820 893C817.6 877.94 814.55 861.87 812 847C809.45 832.13 802.39 818.11 802 803C795.45 799.38 785.73 801.18 778 802Z" stroke="black"/>
<path d="M748 798C756.46 797.2 767.71 800.68 777 799C777.11 798 776.53 796.27 778 796C778.03 785.14 791.23 776.35 791 766C789.07 760.76 787.85 755.19 786 750C786 750.79 782.16 760.38 780.77 764.77C779.38 769.16 774.9 773.95 771.75 777.75C768.6 781.55 764.08 784.79 760.75 788.75C757.42 792.71 752.44 795.65 748 798Z" stroke="black"/>
</g>
</svg>
