<svg width="1316" height="1883" viewBox="0 0 1316 1883" fill="none" xmlns="http://www.w3.org/2000/svg"><g xmlns="http://www.w3.org/2000/svg" id="muscle_trapezius-left.svg">
<path d="M592 242C592.39 246.25 592 250.73 592 255C593.05 284.77 598.15 320.87 578 345C596.91 344.94 615.33 348.67 630 360C625.04 339.27 617.42 318.55 611.98 298.02C606.53 277.5 602.11 256.12 592 238C592.01 239.33 591.98 240.67 592 242Z" fill="#C9A590"/>
<path d="M592 242C592.39 246.25 592 250.73 592 255C593.05 284.77 598.15 320.87 578 345C596.91 344.94 615.33 348.67 630 360C625.04 339.27 617.42 318.55 611.98 298.02C606.53 277.5 602.11 256.12 592 238C592.01 239.33 591.98 240.67 592 242Z" fill="#34C759" fill-opacity="0.5"/>
<path d="M563.5 314.5L589 288.5V320L580 339.5L567 343L536.5 339.5L516.5 334.5L563.5 314.5Z" fill="#C9A48F"/>
<path d="M563.5 314.5L589 288.5V320L580 339.5L567 343L536.5 339.5L516.5 334.5L563.5 314.5Z" fill="#24B147" fill-opacity="0.5"/>
<path d="M592 242C592.39 246.25 592 250.73 592 255C593.05 284.77 598.15 320.87 578 345C596.91 344.94 615.33 348.67 630 360C625.04 339.27 617.42 318.55 611.98 298.02C606.53 277.5 602.11 256.12 592 238C592.01 239.33 591.98 240.67 592 242Z" stroke="black"/>
<path d="M563.5 314.5L589 288.5V320L580 339.5L567 343L536.5 339.5L516.5 334.5L563.5 314.5Z" stroke="black"/>
</g>
</svg>
