<svg width="1316" height="1883" viewBox="0 0 1316 1883" fill="none" xmlns="http://www.w3.org/2000/svg"><g xmlns="http://www.w3.org/2000/svg" id="muscle_abs-mid-left.svg">
<path d="M593.5 613L624 596H628.5L632 600.5L634.5 618.5V648C632 649.833 627.3 653.9 628.5 655.5C629.7 657.1 623 657.833 619.5 658L591 665L577 662.5L574 650.5L579.5 629.5L593.5 613Z" fill="#C7A28D"/>
<path d="M593.5 613L624 596H628.5L632 600.5L634.5 618.5V648C632 649.833 627.3 653.9 628.5 655.5C629.7 657.1 623 657.833 619.5 658L591 665L577 662.5L574 650.5L579.5 629.5L593.5 613Z" fill="#00C0E8" fill-opacity="0.5"/>
<path d="M593.5 613L624 596H628.5L632 600.5L634.5 618.5V648C632 649.833 627.3 653.9 628.5 655.5C629.7 657.1 623 657.833 619.5 658L591 665L577 662.5L574 650.5L579.5 629.5L593.5 613Z" stroke="black"/>
</g>
</svg>
