<svg width="1316" height="1883" viewBox="0 0 1316 1883" fill="none" xmlns="http://www.w3.org/2000/svg"><g xmlns="http://www.w3.org/2000/svg" id="muscle_bicep-right.svg ">
<path d="M817.549 647.662C820.315 650.559 820.872 651.381 814 645L817.549 647.662C815.808 645.837 813.19 643.19 811 641H840L830 657L817.549 647.662Z" fill="#C9A48F"/>
<path d="M817.549 647.662C820.315 650.559 820.872 651.381 814 645L817.549 647.662C815.808 645.837 813.19 643.19 811 641H840L830 657L817.549 647.662Z" fill="#FF383C" fill-opacity="0.5"/>
<path d="M810.504 634.643C814.304 637.793 820.934 634.463 825.504 635.643C830.074 636.823 836.254 634.673 840.504 634.643C839.074 624.813 846.884 614.183 846.514 603.653C846.134 593.123 848.544 578.623 847.504 567.643C846.464 556.663 846.734 544.083 844.284 533.863C841.834 523.653 840.064 513.733 836.764 504.383C833.464 495.033 830.754 487.573 824.254 479.893C817.764 472.213 817.584 465.613 807.734 459.413C797.884 453.213 793.274 468.843 793.504 478.643C793.734 488.443 792.204 501.553 789.504 511.643C786.804 521.733 788.334 534.053 789.504 544.643C790.674 555.243 791.594 567.343 793.504 577.643C795.414 587.933 796.984 598.323 800.184 607.963C803.384 617.603 806.944 625.343 810.504 634.643Z" fill="#C9A48F"/>
<path d="M810.504 634.643C814.304 637.793 820.934 634.463 825.504 635.643C830.074 636.823 836.254 634.673 840.504 634.643C839.074 624.813 846.884 614.183 846.514 603.653C846.134 593.123 848.544 578.623 847.504 567.643C846.464 556.663 846.734 544.083 844.284 533.863C841.834 523.653 840.064 513.733 836.764 504.383C833.464 495.033 830.754 487.573 824.254 479.893C817.764 472.213 817.584 465.613 807.734 459.413C797.884 453.213 793.274 468.843 793.504 478.643C793.734 488.443 792.204 501.553 789.504 511.643C786.804 521.733 788.334 534.053 789.504 544.643C790.674 555.243 791.594 567.343 793.504 577.643C795.414 587.933 796.984 598.323 800.184 607.963C803.384 617.603 806.944 625.343 810.504 634.643Z" fill="#FF383C" fill-opacity="0.5"/>
<path d="M817.549 647.662C820.315 650.559 820.872 651.381 814 645L817.549 647.662ZM817.549 647.662C815.808 645.837 813.19 643.19 811 641H840L830 657L817.549 647.662ZM810.504 634.643C814.304 637.793 820.934 634.463 825.504 635.643C830.074 636.823 836.254 634.673 840.504 634.643C839.074 624.813 846.884 614.183 846.514 603.653C846.134 593.123 848.544 578.623 847.504 567.643C846.464 556.663 846.734 544.083 844.284 533.863C841.834 523.653 840.064 513.733 836.764 504.383C833.464 495.033 830.754 487.573 824.254 479.893C817.764 472.213 817.584 465.613 807.734 459.413C797.884 453.213 793.274 468.843 793.504 478.643C793.734 488.443 792.204 501.553 789.504 511.643C786.804 521.733 788.334 534.053 789.504 544.643C790.674 555.243 791.594 567.343 793.504 577.643C795.414 587.933 796.984 598.323 800.184 607.963C803.384 617.603 806.944 625.343 810.504 634.643Z" stroke="black"/>
</g>
</svg>
