<svg width="1316" height="1883" viewBox="0 0 1316 1883" fill="none" xmlns="http://www.w3.org/2000/svg"><g xmlns="http://www.w3.org/2000/svg" id="muscle_abs-lower-left.svg">
<path d="M585.5 676.5L607 671.5H614.5H621L631 674C632.167 675.667 634.5 679.5 634.5 681.5V693.5V721.5L628 734.5L607 737L585.5 734.5L577.5 729.5L574.5 721.5L572 699L577.5 681.5L585.5 676.5Z" fill="#C8A38E"/>
<path d="M585.5 676.5L607 671.5H614.5H621L631 674C632.167 675.667 634.5 679.5 634.5 681.5V693.5V721.5L628 734.5L607 737L585.5 734.5L577.5 729.5L574.5 721.5L572 699L577.5 681.5L585.5 676.5Z" fill="#00C0E8" fill-opacity="0.5"/>
<path d="M585.5 676.5L607 671.5H614.5H621L631 674C632.167 675.667 634.5 679.5 634.5 681.5V693.5V721.5L628 734.5L607 737L585.5 734.5L577.5 729.5L574.5 721.5L572 699L577.5 681.5L585.5 676.5Z" stroke="black"/>
</g>
</svg>
