<svg width="1316" height="1883" viewBox="0 0 1316 1883" fill="none" xmlns="http://www.w3.org/2000/svg"><g xmlns="http://www.w3.org/2000/svg" id="muscle_forearm-outer-left.svg">
<path d="M389 856.5L396.5 851L392.5 880L384 887V869L389 856.5Z" fill="#FF383C" fill-opacity="0.5"/>
<path d="M416.5 657.5L421 639L424 636L429.5 644.5L437 670L439.5 694L435.5 729.5L399 843L389 852.5V840.5L391 814L393 806.5L394.5 781.5L397 763.5L399 750V728.5L400.5 720.5L408 683L416.5 657.5Z" fill="#FF383C" fill-opacity="0.5"/>
<path d="M389 856.5L396.5 851L392.5 880L384 887V869L389 856.5Z" stroke="black"/>
<path d="M416.5 657.5L421 639L424 636L429.5 644.5L437 670L439.5 694L435.5 729.5L399 843L389 852.5V840.5L391 814L393 806.5L394.5 781.5L397 763.5L399 750V728.5L400.5 720.5L408 683L416.5 657.5Z" stroke="black"/>
</g>
</svg>
