<svg width="1316" height="1883" viewBox="0 0 1316 1883" fill="none" xmlns="http://www.w3.org/2000/svg"><g xmlns="http://www.w3.org/2000/svg" id="muscle_bicep-left.svg">
<path d="M441 525L458 482L472 461L488 458V482L496 525L488 602L468 649L453 656L441 643L435 602L441 525Z" fill="#C9A48E"/>
<path d="M441 525L458 482L472 461L488 458V482L496 525L488 602L468 649L453 656L441 643L435 602L441 525Z" fill="#FF383C" fill-opacity="0.5"/>
<path d="M441 525L458 482L472 461L488 458V482L496 525L488 602L468 649L453 656L441 643L435 602L441 525Z" stroke="black"/>
</g>
</svg>
