<svg width="1316" height="1883" viewBox="0 0 1316 1883" fill="none" xmlns="http://www.w3.org/2000/svg"><g xmlns="http://www.w3.org/2000/svg" id="muscle_quad-inner-right.svg">
<path d="M704.433 1028C705.693 1032.65 715.513 1033.96 718.663 1037.77C721.813 1041.58 728.313 1044.64 732.183 1048.25C736.043 1051.87 742.393 1055.67 746.513 1058.92C750.633 1062.17 757.283 1064.75 760.183 1069.25C763.093 1073.74 772.523 1075.94 774.433 1080C778.893 1056.46 786.463 1033.38 787.433 1009C788.403 984.63 791.333 953.17 784.203 930.23C777.073 907.29 767.873 887.91 768.433 863C754.893 877.07 755.403 901.76 748.413 919.98C741.413 938.19 736.493 957.7 727.353 974.92C718.223 992.15 713.493 1011.04 704.433 1028Z" fill="#C9A48E"/>
<path d="M704.433 1028C705.693 1032.65 715.513 1033.96 718.663 1037.77C721.813 1041.58 728.313 1044.64 732.183 1048.25C736.043 1051.87 742.393 1055.67 746.513 1058.92C750.633 1062.17 757.283 1064.75 760.183 1069.25C763.093 1073.74 772.523 1075.94 774.433 1080C778.893 1056.46 786.463 1033.38 787.433 1009C788.403 984.63 791.333 953.17 784.203 930.23C777.073 907.29 767.873 887.91 768.433 863C754.893 877.07 755.403 901.76 748.413 919.98C741.413 938.19 736.493 957.7 727.353 974.92C718.223 992.15 713.493 1011.04 704.433 1028Z" fill="#6155F5" fill-opacity="0.5"/>
<path d="M772.433 1080C767.513 1081.1 761.973 1071.93 757.513 1069.92C753.053 1067.91 747.833 1063.19 743.513 1059.92C739.203 1056.64 734.103 1052.17 729.513 1048.92C724.933 1045.67 720.383 1041.84 715.513 1038.92C710.643 1035.99 706.823 1030.85 701.433 1029C695.073 1042.78 698.583 1062.86 697.433 1078C696.283 1093.14 700.443 1113.63 700.503 1127.93C700.573 1142.22 707.213 1160.7 707.443 1172.99C707.663 1185.28 721.223 1204.58 732.683 1197.25C744.133 1189.91 742.393 1172.03 748.113 1160.68C753.833 1149.33 756.023 1132.94 761.113 1120.68C766.203 1108.41 768.713 1092.85 772.433 1080Z" fill="#C9A38E"/>
<path d="M772.433 1080C767.513 1081.1 761.973 1071.93 757.513 1069.92C753.053 1067.91 747.833 1063.19 743.513 1059.92C739.203 1056.64 734.103 1052.17 729.513 1048.92C724.933 1045.67 720.383 1041.84 715.513 1038.92C710.643 1035.99 706.823 1030.85 701.433 1029C695.073 1042.78 698.583 1062.86 697.433 1078C696.283 1093.14 700.443 1113.63 700.503 1127.93C700.573 1142.22 707.213 1160.7 707.443 1172.99C707.663 1185.28 721.223 1204.58 732.683 1197.25C744.133 1189.91 742.393 1172.03 748.113 1160.68C753.833 1149.33 756.023 1132.94 761.113 1120.68C766.203 1108.41 768.713 1092.85 772.433 1080Z" fill="#6155F5" fill-opacity="0.5"/>
<path d="M695.433 1042C691.463 1055.73 685.253 1067.33 681.763 1081.33C678.273 1095.33 674.363 1110.16 673.413 1124.98C672.453 1139.79 670.393 1159.3 670.433 1174C670.473 1188.7 668.933 1212.18 671.433 1225C673.933 1237.81 672.293 1257.38 686.213 1262.22C700.133 1267.06 705.163 1243.5 707.453 1232.02C709.753 1220.55 710.293 1197.72 707.363 1184.07C704.423 1170.43 701.303 1154.89 699.433 1140C697.563 1125.11 696.943 1107.59 695.433 1092C693.923 1076.41 697.223 1056.81 695.433 1042Z" fill="#C8A38E"/>
<path d="M695.433 1042C691.463 1055.73 685.253 1067.33 681.763 1081.33C678.273 1095.33 674.363 1110.16 673.413 1124.98C672.453 1139.79 670.393 1159.3 670.433 1174C670.473 1188.7 668.933 1212.18 671.433 1225C673.933 1237.81 672.293 1257.38 686.213 1262.22C700.133 1267.06 705.163 1243.5 707.453 1232.02C709.753 1220.55 710.293 1197.72 707.363 1184.07C704.423 1170.43 701.303 1154.89 699.433 1140C697.563 1125.11 696.943 1107.59 695.433 1092C693.923 1076.41 697.223 1056.81 695.433 1042Z" fill="#6155F5" fill-opacity="0.5"/>
<path d="M704.433 1028C705.693 1032.65 715.513 1033.96 718.663 1037.77C721.813 1041.58 728.313 1044.64 732.183 1048.25C736.043 1051.87 742.393 1055.67 746.513 1058.92C750.633 1062.17 757.283 1064.75 760.183 1069.25C763.093 1073.74 772.523 1075.94 774.433 1080C778.893 1056.46 786.463 1033.38 787.433 1009C788.403 984.63 791.333 953.17 784.203 930.23C777.073 907.29 767.873 887.91 768.433 863C754.893 877.07 755.403 901.76 748.413 919.98C741.413 938.19 736.493 957.7 727.353 974.92C718.223 992.15 713.493 1011.04 704.433 1028Z" stroke="black"/>
<path d="M772.433 1080C767.513 1081.1 761.973 1071.93 757.513 1069.92C753.053 1067.91 747.833 1063.19 743.513 1059.92C739.203 1056.64 734.103 1052.17 729.513 1048.92C724.933 1045.67 720.383 1041.84 715.513 1038.92C710.643 1035.99 706.823 1030.85 701.433 1029C695.073 1042.78 698.583 1062.86 697.433 1078C696.283 1093.14 700.443 1113.63 700.503 1127.93C700.573 1142.22 707.213 1160.7 707.443 1172.99C707.663 1185.28 721.223 1204.58 732.683 1197.25C744.133 1189.91 742.393 1172.03 748.113 1160.68C753.833 1149.33 756.023 1132.94 761.113 1120.68C766.203 1108.41 768.713 1092.85 772.433 1080Z" stroke="black"/>
<path d="M695.433 1042C691.463 1055.73 685.253 1067.33 681.763 1081.33C678.273 1095.33 674.363 1110.16 673.413 1124.98C672.453 1139.79 670.393 1159.3 670.433 1174C670.473 1188.7 668.933 1212.18 671.433 1225C673.933 1237.81 672.293 1257.38 686.213 1262.22C700.133 1267.06 705.163 1243.5 707.453 1232.02C709.753 1220.55 710.293 1197.72 707.363 1184.07C704.423 1170.43 701.303 1154.89 699.433 1140C697.563 1125.11 696.943 1107.59 695.433 1092C693.923 1076.41 697.223 1056.81 695.433 1042Z" stroke="black"/>
</g>
</svg>
