<svg width="1316" height="1883" viewBox="0 0 1316 1883" fill="none" xmlns="http://www.w3.org/2000/svg"><g xmlns="http://www.w3.org/2000/svg" id="muscle_tfl-left.svg">
<path d="M487 779C485.95 782.32 484.96 785.65 484 789C482.96 792.61 482.23 796.78 481 800C480.08 803.94 478.82 808.48 478 812C477.62 815.92 477.38 818.4 476 822C473.54 831.79 471.82 842.05 470 852C469.26 856.07 467.95 859.97 467 864C459.15 897.23 454.57 936.53 458 972C462.24 976.11 458.04 987.78 460.33 993.67C462.62 999.56 462.33 1008.33 463 1015C463.67 1021.67 465.76 1028.39 466.93 1035.07C468.09 1041.76 468.32 1049.41 470 1056C471.67 1062.6 472.83 1069 474.33 1075.67C475.83 1082.34 477.78 1089.22 479 1096C479.48 1097.65 480.95 1099.87 481 1102C483 1102.11 485.17 1100.05 485 1098C476.74 1061.53 473.7 1017.52 479.67 980.67C485.64 943.83 505.2 916.65 509 880C512.8 843.35 509.83 800.81 489 772C488.41 774.37 487.73 776.71 487 779Z" fill="#E9D6C6"/>
<path d="M487 779C485.95 782.32 484.96 785.65 484 789C482.96 792.61 482.23 796.78 481 800C480.08 803.94 478.82 808.48 478 812C477.62 815.92 477.38 818.4 476 822C473.54 831.79 471.82 842.05 470 852C469.26 856.07 467.95 859.97 467 864C459.15 897.23 454.57 936.53 458 972C462.24 976.11 458.04 987.78 460.33 993.67C462.62 999.56 462.33 1008.33 463 1015C463.67 1021.67 465.76 1028.39 466.93 1035.07C468.09 1041.76 468.32 1049.41 470 1056C471.67 1062.6 472.83 1069 474.33 1075.67C475.83 1082.34 477.78 1089.22 479 1096C479.48 1097.65 480.95 1099.87 481 1102C483 1102.11 485.17 1100.05 485 1098C476.74 1061.53 473.7 1017.52 479.67 980.67C485.64 943.83 505.2 916.65 509 880C512.8 843.35 509.83 800.81 489 772C488.41 774.37 487.73 776.71 487 779Z" fill="#CB30E0" fill-opacity="0.5"/>
<path d="M487 779C485.95 782.32 484.96 785.65 484 789C482.96 792.61 482.23 796.78 481 800C480.08 803.94 478.82 808.48 478 812C477.62 815.92 477.38 818.4 476 822C473.54 831.79 471.82 842.05 470 852C469.26 856.07 467.95 859.97 467 864C459.15 897.23 454.57 936.53 458 972C462.24 976.11 458.04 987.78 460.33 993.67C462.62 999.56 462.33 1008.33 463 1015C463.67 1021.67 465.76 1028.39 466.93 1035.07C468.09 1041.76 468.32 1049.41 470 1056C471.67 1062.6 472.83 1069 474.33 1075.67C475.83 1082.34 477.78 1089.22 479 1096C479.48 1097.65 480.95 1099.87 481 1102C483 1102.11 485.17 1100.05 485 1098C476.74 1061.53 473.7 1017.52 479.67 980.67C485.64 943.83 505.2 916.65 509 880C512.8 843.35 509.83 800.81 489 772C488.41 774.37 487.73 776.71 487 779Z" stroke="black"/>
</g>
</svg>
