<svg width="1316" height="1883" viewBox="0 0 1316 1883" fill="none" xmlns="http://www.w3.org/2000/svg"><g xmlns="http://www.w3.org/2000/svg" id="muscle_hip-flexor-right.svg">
<path d="M685.2 748H700.7L705.867 749L710 756.5V769L707.417 780.5L704.833 793L700.7 809L696.05 828.5L688.3 847.5L683.65 861L679.517 868.5L672.8 881L666.083 888.5L658.333 892H653.167L650.067 887.5L648 876.5V863.5V852V837.5V817V795L650.067 772L651.1 760.5L658.333 752L662.467 750.5L672.8 748H685.2Z" fill="#C7A28D"/>
<path d="M685.2 748H700.7L705.867 749L710 756.5V769L707.417 780.5L704.833 793L700.7 809L696.05 828.5L688.3 847.5L683.65 861L679.517 868.5L672.8 881L666.083 888.5L658.333 892H653.167L650.067 887.5L648 876.5V863.5V852V837.5V817V795L650.067 772L651.1 760.5L658.333 752L662.467 750.5L672.8 748H685.2Z" fill="#00C0E8" fill-opacity="0.5"/>
<path d="M685.2 748H700.7L705.867 749L710 756.5V769L707.417 780.5L704.833 793L700.7 809L696.05 828.5L688.3 847.5L683.65 861L679.517 868.5L672.8 881L666.083 888.5L658.333 892H653.167L650.067 887.5L648 876.5V863.5V852V837.5V817V795L650.067 772L651.1 760.5L658.333 752L662.467 750.5L672.8 748H685.2Z" stroke="black"/>
</g>
</svg>
