<svg width="1316" height="1883" viewBox="0 0 1316 1883" fill="none" xmlns="http://www.w3.org/2000/svg"><g xmlns="http://www.w3.org/2000/svg" id="muscle_deltoid-left.svg">
<path d="M456 354C454.68 355.15 453.96 357.57 452 358C457.82 366.66 468.19 373.25 476.75 379.25C485.3 385.26 493.94 394.35 503 397C506.32 382.6 511.66 377.52 515.07 362.07C518.48 346.63 501.76 344.26 489.01 342.99C476.26 341.73 466.12 346.47 456 354Z" fill="#C9A48F"/>
<path d="M456 354C454.68 355.15 453.96 357.57 452 358C457.82 366.66 468.19 373.25 476.75 379.25C485.3 385.26 493.94 394.35 503 397C506.32 382.6 511.66 377.52 515.07 362.07C518.48 346.63 501.76 344.26 489.01 342.99C476.26 341.73 466.12 346.47 456 354Z" fill="#FF8D28" fill-opacity="0.5"/>
<path d="M447 362C444.17 363.73 441.37 370.93 439.23 374.23C437.09 377.53 434 385.36 433 389C433.63 403.83 426.24 416.52 426.07 432.07C425.9 447.63 427.41 465.67 428 481C428.86 487.02 432.08 501.54 438.75 494.75C445.42 487.97 445.81 482.36 450.77 475.77C455.73 469.18 457.74 462.64 462.77 456.77C467.8 450.9 471.28 444.65 476.3 439.3C481.33 433.96 484.41 426.05 489.3 421.3C494.2 416.55 495.26 404.67 501 402C499.18 396.62 488.44 390.86 483.75 387.25C479.07 383.64 470.28 376.45 465.75 373.25C461.21 370.06 451.27 359.52 447 362Z" fill="#C9A48E"/>
<path d="M447 362C444.17 363.73 441.37 370.93 439.23 374.23C437.09 377.53 434 385.36 433 389C433.63 403.83 426.24 416.52 426.07 432.07C425.9 447.63 427.41 465.67 428 481C428.86 487.02 432.08 501.54 438.75 494.75C445.42 487.97 445.81 482.36 450.77 475.77C455.73 469.18 457.74 462.64 462.77 456.77C467.8 450.9 471.28 444.65 476.3 439.3C481.33 433.96 484.41 426.05 489.3 421.3C494.2 416.55 495.26 404.67 501 402C499.18 396.62 488.44 390.86 483.75 387.25C479.07 383.64 470.28 376.45 465.75 373.25C461.21 370.06 451.27 359.52 447 362Z" fill="#FF8D28" fill-opacity="0.5"/>
<path d="M456 354C454.68 355.15 453.96 357.57 452 358C457.82 366.66 468.19 373.25 476.75 379.25C485.3 385.26 493.94 394.35 503 397C506.32 382.6 511.66 377.52 515.07 362.07C518.48 346.63 501.76 344.26 489.01 342.99C476.26 341.73 466.12 346.47 456 354Z" stroke="black"/>
<path d="M447 362C444.17 363.73 441.37 370.93 439.23 374.23C437.09 377.53 434 385.36 433 389C433.63 403.83 426.24 416.52 426.07 432.07C425.9 447.63 427.41 465.67 428 481C428.86 487.02 432.08 501.54 438.75 494.75C445.42 487.97 445.81 482.36 450.77 475.77C455.73 469.18 457.74 462.64 462.77 456.77C467.8 450.9 471.28 444.65 476.3 439.3C481.33 433.96 484.41 426.05 489.3 421.3C494.2 416.55 495.26 404.67 501 402C499.18 396.62 488.44 390.86 483.75 387.25C479.07 383.64 470.28 376.45 465.75 373.25C461.21 370.06 451.27 359.52 447 362Z" stroke="black"/>
</g>
</svg>
