<svg width="1316" height="1883" viewBox="0 0 1316 1883" fill="none" xmlns="http://www.w3.org/2000/svg"><g xmlns="http://www.w3.org/2000/svg" id="muscle_trapezius-right.svg">
<path d="M690 239C672.45 276.93 665.9 320.26 652 360C660.39 357.93 664.99 349.64 674.33 348.33C683.67 347.02 694.31 345.32 704 345C680.57 316.17 693.22 274.5 690 239Z" fill="#C9A48F"/>
<path d="M690 239C672.45 276.93 665.9 320.26 652 360C660.39 357.93 664.99 349.64 674.33 348.33C683.67 347.02 694.31 345.32 704 345C680.57 316.17 693.22 274.5 690 239Z" fill="#24B147" fill-opacity="0.5"/>
<path d="M693 287C690.76 301.39 691.8 314.63 696.08 328.92C700.37 343.21 712.91 345.38 726 342C739.09 338.62 754.39 341.41 767 336C743.68 321.52 704.18 317.73 693 287Z" fill="#C7A28E"/>
<path d="M693 287C690.76 301.39 691.8 314.63 696.08 328.92C700.37 343.21 712.91 345.38 726 342C739.09 338.62 754.39 341.41 767 336C743.68 321.52 704.18 317.73 693 287Z" fill="#34C759" fill-opacity="0.5"/>
<path d="M690 239C672.45 276.93 665.9 320.26 652 360C660.39 357.93 664.99 349.64 674.33 348.33C683.67 347.02 694.31 345.32 704 345C680.57 316.17 693.22 274.5 690 239Z" stroke="black"/>
<path d="M693 287C690.76 301.39 691.8 314.63 696.08 328.92C700.37 343.21 712.91 345.38 726 342C739.09 338.62 754.39 341.41 767 336C743.68 321.52 704.18 317.73 693 287Z" stroke="black"/>
</g>
</svg>
