<svg width="1316" height="1883" viewBox="0 0 1316 1883" fill="none" xmlns="http://www.w3.org/2000/svg"><g xmlns="http://www.w3.org/2000/svg" id="muscle_oblique-left.svg">
<path d="M524.5 652.5L515.5 598.5L511.5 573.5L514 559L520.5 554.5L530 557L545.5 565L554.5 573.5L560.5 590.5L563 630L560.5 678L554.5 722.5L557.5 758.5V788L550 798.5H539L520.5 785L508 770L501.5 755.5V744.5L515.5 712.5L524.5 678V652.5Z" fill="#C8A38E"/>
<path d="M524.5 652.5L515.5 598.5L511.5 573.5L514 559L520.5 554.5L530 557L545.5 565L554.5 573.5L560.5 590.5L563 630L560.5 678L554.5 722.5L557.5 758.5V788L550 798.5H539L520.5 785L508 770L501.5 755.5V744.5L515.5 712.5L524.5 678V652.5Z" fill="#00C0E8" fill-opacity="0.5"/>
<path d="M524.5 652.5L515.5 598.5L511.5 573.5L514 559L520.5 554.5L530 557L545.5 565L554.5 573.5L560.5 590.5L563 630L560.5 678L554.5 722.5L557.5 758.5V788L550 798.5H539L520.5 785L508 770L501.5 755.5V744.5L515.5 712.5L524.5 678V652.5Z" stroke="black"/>
</g>
</svg>
