<svg width="1316" height="1883" viewBox="0 0 1316 1883" fill="none" xmlns="http://www.w3.org/2000/svg"><g xmlns="http://www.w3.org/2000/svg" id="muscle_calf-left.svg">
<path d="M589 1415.5L604.5 1380L606.5 1390L608.5 1404.5L612 1432.5V1473L606.5 1529.5L599 1584L595.5 1573.5L589 1547.5L581.5 1508.5L579.5 1477.5L581.5 1446.5L589 1415.5Z" fill="#C9A48F"/>
<path d="M589 1415.5L604.5 1380L606.5 1390L608.5 1404.5L612 1432.5V1473L606.5 1529.5L599 1584L595.5 1573.5L589 1547.5L581.5 1508.5L579.5 1477.5L581.5 1446.5L589 1415.5Z" fill="#34C759" fill-opacity="0.5"/>
<path d="M589 1415.5L604.5 1380L606.5 1390L608.5 1404.5L612 1432.5V1473L606.5 1529.5L599 1584L595.5 1573.5L589 1547.5L581.5 1508.5L579.5 1477.5L581.5 1446.5L589 1415.5Z" stroke="black"/>
</g>
</svg>
