<svg width="1316" height="1883" viewBox="0 0 1316 1883" fill="none" xmlns="http://www.w3.org/2000/svg"><g xmlns="http://www.w3.org/2000/svg" id="muscle_calf-right.svg">
<path d="M675 1390C675 1391.33 675.03 1392.67 675 1394C674.7 1409.29 670.15 1423.17 670 1439C669.85 1454.83 671 1472.37 671 1488C671 1498.65 673.11 1509.67 675 1520C678.79 1542.75 680.17 1566.62 684 1589C702.71 1522.41 717.27 1441.81 677 1380C676.47 1383.17 675.38 1387.21 675 1390Z" fill="#C9A38E"/>
<path d="M675 1390C675 1391.33 675.03 1392.67 675 1394C674.7 1409.29 670.15 1423.17 670 1439C669.85 1454.83 671 1472.37 671 1488C671 1498.65 673.11 1509.67 675 1520C678.79 1542.75 680.17 1566.62 684 1589C702.71 1522.41 717.27 1441.81 677 1380C676.47 1383.17 675.38 1387.21 675 1390Z" fill="#34C759" fill-opacity="0.5"/>
<path d="M675 1390C675 1391.33 675.03 1392.67 675 1394C674.7 1409.29 670.15 1423.17 670 1439C669.85 1454.83 671 1472.37 671 1488C671 1498.65 673.11 1509.67 675 1520C678.79 1542.75 680.17 1566.62 684 1589C702.71 1522.41 717.27 1441.81 677 1380C676.47 1383.17 675.38 1387.21 675 1390Z" stroke="black"/>
</g>
</svg>
