<svg width="1316" height="1883" viewBox="0 0 1316 1883" fill="none" xmlns="http://www.w3.org/2000/svg"><g xmlns="http://www.w3.org/2000/svg" id="muscle_quad-outer-right.svg">
<path d="M786.5 1042L791.5 998L793.5 951.5L801.5 991L803.5 1025L800 1071L793.5 1097V1099L778 1169.5L766.5 1209L761.5 1222L757 1233L750.5 1243.5L745 1246L740.5 1240.5L739 1234.5V1226.5L740.5 1205.5L743.5 1188.5L749 1171L763.5 1126L778.5 1078L779.5 1074.5L786.5 1042Z" fill="#C7A28D"/>
<path d="M786.5 1042L791.5 998L793.5 951.5L801.5 991L803.5 1025L800 1071L793.5 1097V1099L778 1169.5L766.5 1209L761.5 1222L757 1233L750.5 1243.5L745 1246L740.5 1240.5L739 1234.5V1226.5L740.5 1205.5L743.5 1188.5L749 1171L763.5 1126L778.5 1078L779.5 1074.5L786.5 1042Z" fill="#FF2D55" fill-opacity="0.5"/>
<path d="M793 951.5L791.5 998M791.5 998L786.5 1042L779.5 1074.5L778.5 1078L763.5 1126L749 1171L743.5 1188.5L740.5 1205.5L739 1226.5V1234.5L740.5 1240.5L745 1246L750.5 1243.5L757 1233L761.5 1222L766.5 1209L778 1169.5L793.5 1099V1097L800 1071L803.5 1025L801.5 991L793.5 951.5L791.5 998Z" stroke="black"/>
</g>
</svg>
