<svg width="1316" height="1883" viewBox="0 0 1316 1883" fill="none" xmlns="http://www.w3.org/2000/svg"><g xmlns="http://www.w3.org/2000/svg" id="muscle_forearm-outer-right.svg">
<path d="M846.5 669L852 646.5L858 640.147L863.5 635V644L869.5 669L878.5 696L883.5 739.5L890.5 810L895 859.5L898 888.5L890.5 878C889.333 869.667 887 852.5 887 850.5C887 848.5 875.333 809.333 869.5 790L855.5 755.5L846.5 720L843.5 696L846.5 669Z" fill="#FF383C" fill-opacity="0.5"/>
<path d="M860.5 637.5L858 640.147M858 640.147L852 646.5L846.5 669L843.5 696L846.5 720L855.5 755.5L869.5 790C875.333 809.333 887 848.5 887 850.5C887 852.5 889.333 869.667 890.5 878L898 888.5L895 859.5L890.5 810L883.5 739.5L878.5 696L869.5 669L863.5 644V635L858 640.147Z" stroke="black"/>
</g>
</svg>
