<svg width="1316" height="1883" viewBox="0 0 1316 1883" fill="none" xmlns="http://www.w3.org/2000/svg"><g xmlns="http://www.w3.org/2000/svg" id="muscle_tibialis-left.svg">
<path d="M515 1392.5L517 1384.5L519 1376V1366.5L520.5 1362.5L523 1360C523.833 1360 525.5 1359.6 525.5 1358C525.5 1356.4 527.833 1358.67 529 1360L537.5 1380.5L549.5 1426L558.5 1490L563.5 1568.5L566 1601.5L569.5 1626.5L572 1637L575 1651L573.5 1657.5L569.5 1660L565 1657.5L560.5 1647L559.5 1639.5L543 1578.5L517 1486L512 1435L513.5 1401L515 1392.5Z" fill="#C8A38E"/>
<path d="M515 1392.5L517 1384.5L519 1376V1366.5L520.5 1362.5L523 1360C523.833 1360 525.5 1359.6 525.5 1358C525.5 1356.4 527.833 1358.67 529 1360L537.5 1380.5L549.5 1426L558.5 1490L563.5 1568.5L566 1601.5L569.5 1626.5L572 1637L575 1651L573.5 1657.5L569.5 1660L565 1657.5L560.5 1647L559.5 1639.5L543 1578.5L517 1486L512 1435L513.5 1401L515 1392.5Z" fill="#34C759" fill-opacity="0.5"/>
<path d="M515 1392.5L517 1384.5L519 1376V1366.5L520.5 1362.5L523 1360C523.833 1360 525.5 1359.6 525.5 1358C525.5 1356.4 527.833 1358.67 529 1360L537.5 1380.5L549.5 1426L558.5 1490L563.5 1568.5L566 1601.5L569.5 1626.5L572 1637L575 1651L573.5 1657.5L569.5 1660L565 1657.5L560.5 1647L559.5 1639.5L543 1578.5L517 1486L512 1435L513.5 1401L515 1392.5Z" stroke="black"/>
</g>
</svg>
