<svg width="1387" height="1848" viewBox="0 0 1387 1848" fill="none" xmlns="http://www.w3.org/2000/svg">
<g id="Frame 1">
<g id="traps_left">
<path d="M682.844 325C677.184 304.06 669.314 282.67 664.174 261.67C659.024 240.68 653.644 219.58 643.844 201C643.424 237.33 652.654 279.91 629.844 310C639.854 309.84 651.414 311.38 660.764 313.08C670.124 314.77 673.704 324.02 682.844 325Z" fill="#CAA693"/>
<path d="M682.844 325C677.184 304.06 669.314 282.67 664.174 261.67C659.024 240.68 653.644 219.58 643.844 201C643.424 237.33 652.654 279.91 629.844 310C639.854 309.84 651.414 311.38 660.764 313.08C670.124 314.77 673.704 324.02 682.844 325Z" fill="#34C759" fill-opacity="0.5"/>
<path d="M566.844 300C579.974 306.41 595.024 302.49 608.774 307.07C622.514 311.65 634.214 305.25 637.914 291.07C641.624 276.89 644.554 263.43 641.844 249C631.674 281.01 590.934 286.08 566.844 300Z" fill="#CAA693"/>
<path d="M566.844 300C579.974 306.41 595.024 302.49 608.774 307.07C622.514 311.65 634.214 305.25 637.914 291.07C641.624 276.89 644.554 263.43 641.844 249C631.674 281.01 590.934 286.08 566.844 300Z" fill="#34C759" fill-opacity="0.5"/>
<path d="M682.844 325C677.184 304.06 669.314 282.67 664.174 261.67C659.024 240.68 653.644 219.58 643.844 201C643.424 237.33 652.654 279.91 629.844 310C639.854 309.84 651.414 311.38 660.764 313.08C670.124 314.77 673.704 324.02 682.844 325Z" stroke="black"/>
<path d="M566.844 300C579.974 306.41 595.024 302.49 608.774 307.07C622.514 311.65 634.214 305.25 637.914 291.07C641.624 276.89 644.554 263.43 641.844 249C631.674 281.01 590.934 286.08 566.844 300Z" stroke="black"/>
</g>
<g id="traps_right">
<path d="M743.844 214C743.844 210.75 743.454 207.23 743.844 204C743.844 203 743.844 202 743.844 201C725.584 239.87 719.204 284.33 704.844 325C713.814 323.05 717.714 315.08 727.174 313.33C736.624 311.57 747.764 309.85 757.844 310C738.544 283.97 740.784 245.62 743.844 214Z" fill="#C9A492"/>
<path d="M743.844 214C743.844 210.75 743.454 207.23 743.844 204C743.844 203 743.844 202 743.844 201C725.584 239.87 719.204 284.33 704.844 325C713.814 323.05 717.714 315.08 727.174 313.33C736.624 311.57 747.764 309.85 757.844 310C738.544 283.97 740.784 245.62 743.844 214Z" fill="#34C759" fill-opacity="0.5"/>
<path d="M745.844 250C744.014 259.07 744.504 274.9 747.064 283.78C749.634 292.65 752.104 301.44 760.094 306.75C768.084 312.06 782.054 305.69 791.624 305.78C801.194 305.86 812.554 302.73 820.844 299C794.914 286.59 757.724 280.69 745.844 250Z" fill="#C9A492"/>
<path d="M745.844 250C744.014 259.07 744.504 274.9 747.064 283.78C749.634 292.65 752.104 301.44 760.094 306.75C768.084 312.06 782.054 305.69 791.624 305.78C801.194 305.86 812.554 302.73 820.844 299C794.914 286.59 757.724 280.69 745.844 250Z" fill="#34C759" fill-opacity="0.5"/>
<path d="M743.844 214C743.844 210.75 743.454 207.23 743.844 204C743.844 203 743.844 202 743.844 201C725.584 239.87 719.204 284.33 704.844 325C713.814 323.05 717.714 315.08 727.174 313.33C736.624 311.57 747.764 309.85 757.844 310C738.544 283.97 740.784 245.62 743.844 214Z" stroke="black"/>
<path d="M745.844 250C744.014 259.07 744.504 274.9 747.064 283.78C749.634 292.65 752.104 301.44 760.094 306.75C768.084 312.06 782.054 305.69 791.624 305.78C801.194 305.86 812.554 302.73 820.844 299C794.914 286.59 757.724 280.69 745.844 250Z" stroke="black"/>
</g>
<g id="front_delts_left">
<path d="M475.844 390C475.954 393.9 475.174 397.47 474.844 401C473.704 413.16 475.844 425.05 475.844 437C475.844 437.5 475.844 438.5 475.844 439C478.084 444.27 476.374 461.02 482.624 464.22C488.864 467.42 493.614 452.54 497.074 448.23C500.534 443.92 505.954 433.14 508.844 428C513.254 420.17 519.564 412.28 525.844 406C532.264 397.87 539.664 388.3 544.094 379.25C548.514 370.2 556.944 358.31 558.864 349.02C560.794 339.73 572.474 321.79 564.594 314.25C556.724 306.71 537.994 307.25 527.864 308.02C517.744 308.8 507.124 317.46 499.594 324.75C492.064 332.04 485.244 342.33 482.834 352.99C480.434 363.66 476.894 379.13 475.844 390Z" fill="#CAA693"/>
<path d="M475.844 390C475.954 393.9 475.174 397.47 474.844 401C473.704 413.16 475.844 425.05 475.844 437C475.844 437.5 475.844 438.5 475.844 439C478.084 444.27 476.374 461.02 482.624 464.22C488.864 467.42 493.614 452.54 497.074 448.23C500.534 443.92 505.954 433.14 508.844 428C513.254 420.17 519.564 412.28 525.844 406C532.264 397.87 539.664 388.3 544.094 379.25C548.514 370.2 556.944 358.31 558.864 349.02C560.794 339.73 572.474 321.79 564.594 314.25C556.724 306.71 537.994 307.25 527.864 308.02C517.744 308.8 507.124 317.46 499.594 324.75C492.064 332.04 485.244 342.33 482.834 352.99C480.434 363.66 476.894 379.13 475.844 390Z" fill="#34C759" fill-opacity="0.5"/>
<path d="M475.844 390C475.954 393.9 475.174 397.47 474.844 401C473.704 413.16 475.844 425.05 475.844 437C475.844 437.5 475.844 438.5 475.844 439C478.084 444.27 476.374 461.02 482.624 464.22C488.864 467.42 493.614 452.54 497.074 448.23C500.534 443.92 505.954 433.14 508.844 428C513.254 420.17 519.564 412.28 525.844 406C532.264 397.87 539.664 388.3 544.094 379.25C548.514 370.2 556.944 358.31 558.864 349.02C560.794 339.73 572.474 321.79 564.594 314.25C556.724 306.71 537.994 307.25 527.864 308.02C517.744 308.8 507.124 317.46 499.594 324.75C492.064 332.04 485.244 342.33 482.834 352.99C480.434 363.66 476.894 379.13 475.844 390Z" stroke="black"/>
</g>
<g id="front_delts_right">
<path d="M859.844 307C849.444 304.85 836.014 309.22 825.924 312.08C815.844 314.95 823.204 332.72 825.864 339.98C828.534 347.24 832.714 359.14 836.924 366.92C841.124 374.71 845.404 384.42 850.924 391.92C856.444 399.41 861.634 405.56 867.594 413.25C873.544 420.95 877.224 427.15 882.924 435.92C888.634 444.69 890.654 450.3 897.924 459.92C905.204 469.54 910.664 455.83 910.844 445C911.024 434.17 912.024 419.36 911.844 408C911.664 396.64 910.674 382.64 908.624 372.22C906.564 361.81 904.494 351.41 900.164 342.68C895.834 333.95 891.674 326.57 884.094 320.75C876.504 314.94 868.724 308.84 859.844 307Z" fill="#CAA693"/>
<path d="M859.844 307C849.444 304.85 836.014 309.22 825.924 312.08C815.844 314.95 823.204 332.72 825.864 339.98C828.534 347.24 832.714 359.14 836.924 366.92C841.124 374.71 845.404 384.42 850.924 391.92C856.444 399.41 861.634 405.56 867.594 413.25C873.544 420.95 877.224 427.15 882.924 435.92C888.634 444.69 890.654 450.3 897.924 459.92C905.204 469.54 910.664 455.83 910.844 445C911.024 434.17 912.024 419.36 911.844 408C911.664 396.64 910.674 382.64 908.624 372.22C906.564 361.81 904.494 351.41 900.164 342.68C895.834 333.95 891.674 326.57 884.094 320.75C876.504 314.94 868.724 308.84 859.844 307Z" fill="#34C759" fill-opacity="0.5"/>
<path d="M859.844 307C849.444 304.85 836.014 309.22 825.924 312.08C815.844 314.95 823.204 332.72 825.864 339.98C828.534 347.24 832.714 359.14 836.924 366.92C841.124 374.71 845.404 384.42 850.924 391.92C856.444 399.41 861.634 405.56 867.594 413.25C873.544 420.95 877.224 427.15 882.924 435.92C888.634 444.69 890.654 450.3 897.924 459.92C905.204 469.54 910.664 455.83 910.844 445C911.024 434.17 912.024 419.36 911.844 408C911.664 396.64 910.674 382.64 908.624 372.22C906.564 361.81 904.494 351.41 900.164 342.68C895.834 333.95 891.674 326.57 884.094 320.75C876.504 314.94 868.724 308.84 859.844 307Z" stroke="black"/>
</g>
<g id="chest_left">
<path d="M665.844 337C657.864 326.05 646.884 325.16 634.844 323C620.004 321.99 604.904 317.44 589.844 318C574.794 318.57 574.074 336.75 570.624 347.78C567.174 358.81 559.604 370.75 555.144 381.3C550.684 391.86 535.974 401.51 540.534 413.31C545.104 425.1 548.044 440.94 548.844 454C549.644 467.05 552.954 480.75 560.544 491.3C568.134 501.86 577.144 508.24 589.174 512.67C601.204 517.1 619.794 516.92 632.174 513.33C644.544 509.74 655.604 506.59 665.594 497.75C675.594 488.92 680.524 478.38 682.844 465C685.164 451.62 683.324 431.36 683.844 417C684.364 402.64 681.074 386.51 678.834 373.01C676.604 359.51 672.604 348.75 665.844 337Z" fill="#CBA694"/>
<path d="M665.844 337C657.864 326.05 646.884 325.16 634.844 323C620.004 321.99 604.904 317.44 589.844 318C574.794 318.57 574.074 336.75 570.624 347.78C567.174 358.81 559.604 370.75 555.144 381.3C550.684 391.86 535.974 401.51 540.534 413.31C545.104 425.1 548.044 440.94 548.844 454C549.644 467.05 552.954 480.75 560.544 491.3C568.134 501.86 577.144 508.24 589.174 512.67C601.204 517.1 619.794 516.92 632.174 513.33C644.544 509.74 655.604 506.59 665.594 497.75C675.594 488.92 680.524 478.38 682.844 465C685.164 451.62 683.324 431.36 683.844 417C684.364 402.64 681.074 386.51 678.834 373.01C676.604 359.51 672.604 348.75 665.844 337Z" fill="#FF383C" fill-opacity="0.5"/>
<path d="M665.844 337C657.864 326.05 646.884 325.16 634.844 323C620.004 321.99 604.904 317.44 589.844 318C574.794 318.57 574.074 336.75 570.624 347.78C567.174 358.81 559.604 370.75 555.144 381.3C550.684 391.86 535.974 401.51 540.534 413.31C545.104 425.1 548.044 440.94 548.844 454C549.644 467.05 552.954 480.75 560.544 491.3C568.134 501.86 577.144 508.24 589.174 512.67C601.204 517.1 619.794 516.92 632.174 513.33C644.544 509.74 655.604 506.59 665.594 497.75C675.594 488.92 680.524 478.38 682.844 465C685.164 451.62 683.324 431.36 683.844 417C684.364 402.64 681.074 386.51 678.834 373.01C676.604 359.51 672.604 348.75 665.844 337Z" stroke="black"/>
</g>
<g id="chest_right">
<path d="M802.844 318C790.314 314.2 773.044 321.96 760.844 322C748.644 322.04 733.834 323.4 725.594 332.75C717.364 342.11 714.564 351.08 710.824 362.98C707.074 374.87 705.834 389.87 704.824 402.98C703.804 416.08 703.694 433.66 703.844 447C703.994 460.34 705.994 473.87 711.924 484.92C717.844 495.98 725.514 500.99 736.164 506.68C746.814 512.36 759.574 514.9 771.844 516C784.114 517.1 799.234 513.35 809.154 507.31C819.064 501.26 826.504 495 831.074 484.23C835.644 473.46 840.824 459.33 839.844 447C838.864 434.67 847.244 420.02 847.844 409C848.434 397.99 835.984 389.37 831.764 380.08C827.554 370.78 820.984 357.17 817.624 348.22C814.254 339.28 813.084 321.11 802.844 318Z" fill="#CBA693"/>
<path d="M802.844 318C790.314 314.2 773.044 321.96 760.844 322C748.644 322.04 733.834 323.4 725.594 332.75C717.364 342.11 714.564 351.08 710.824 362.98C707.074 374.87 705.834 389.87 704.824 402.98C703.804 416.08 703.694 433.66 703.844 447C703.994 460.34 705.994 473.87 711.924 484.92C717.844 495.98 725.514 500.99 736.164 506.68C746.814 512.36 759.574 514.9 771.844 516C784.114 517.1 799.234 513.35 809.154 507.31C819.064 501.26 826.504 495 831.074 484.23C835.644 473.46 840.824 459.33 839.844 447C838.864 434.67 847.244 420.02 847.844 409C848.434 397.99 835.984 389.37 831.764 380.08C827.554 370.78 820.984 357.17 817.624 348.22C814.254 339.28 813.084 321.11 802.844 318Z" fill="#FF383C" fill-opacity="0.5"/>
<path d="M802.844 318C790.314 314.2 773.044 321.96 760.844 322C748.644 322.04 733.834 323.4 725.594 332.75C717.364 342.11 714.564 351.08 710.824 362.98C707.074 374.87 705.834 389.87 704.824 402.98C703.804 416.08 703.694 433.66 703.844 447C703.994 460.34 705.994 473.87 711.924 484.92C717.844 495.98 725.514 500.99 736.164 506.68C746.814 512.36 759.574 514.9 771.844 516C784.114 517.1 799.234 513.35 809.154 507.31C819.064 501.26 826.504 495 831.074 484.23C835.644 473.46 840.824 459.33 839.844 447C838.864 434.67 847.244 420.02 847.844 409C848.434 397.99 835.984 389.37 831.764 380.08C827.554 370.78 820.984 357.17 817.624 348.22C814.254 339.28 813.084 321.11 802.844 318Z" stroke="black"/>
</g>
<g id="biceps_left">
<path d="M532.844 424C526.024 421.76 520.454 431.31 516.594 435.75C512.744 440.2 508.484 446.69 505.144 452.3C501.814 457.92 497.884 464.24 495.824 470.98C493.754 477.71 491.394 484.54 489.844 492C488.294 499.45 487.294 508.09 485.844 516C484.394 523.91 484.894 533.77 483.844 542C482.794 550.23 484.814 559.99 484.844 568C484.874 576.01 487.814 584.56 488.854 591.99C489.894 599.42 493.164 607.21 495.064 613.78C496.974 620.34 503.194 628.48 509.594 623.75C515.994 619.02 517.044 613.09 520.874 607.03C524.694 600.96 526.324 593.97 529.064 587.22C531.814 580.48 533.734 574.25 535.844 567C537.964 559.76 538.644 550.9 540.064 543.22C541.494 535.55 543.154 526.1 542.864 518.02C542.584 509.95 546.504 501.76 545.844 494C545.184 486.24 543.044 477.23 541.824 470.02C540.594 462.81 539.684 451.23 538.844 445C538.004 438.77 539.044 426.04 532.844 424Z" fill="#CAA593"/>
<path d="M532.844 424C526.024 421.76 520.454 431.31 516.594 435.75C512.744 440.2 508.484 446.69 505.144 452.3C501.814 457.92 497.884 464.24 495.824 470.98C493.754 477.71 491.394 484.54 489.844 492C488.294 499.45 487.294 508.09 485.844 516C484.394 523.91 484.894 533.77 483.844 542C482.794 550.23 484.814 559.99 484.844 568C484.874 576.01 487.814 584.56 488.854 591.99C489.894 599.42 493.164 607.21 495.064 613.78C496.974 620.34 503.194 628.48 509.594 623.75C515.994 619.02 517.044 613.09 520.874 607.03C524.694 600.96 526.324 593.97 529.064 587.22C531.814 580.48 533.734 574.25 535.844 567C537.964 559.76 538.644 550.9 540.064 543.22C541.494 535.55 543.154 526.1 542.864 518.02C542.584 509.95 546.504 501.76 545.844 494C545.184 486.24 543.044 477.23 541.824 470.02C540.594 462.81 539.684 451.23 538.844 445C538.004 438.77 539.044 426.04 532.844 424Z" fill="#00C8B3" fill-opacity="0.5"/>
<path d="M532.844 424C526.024 421.76 520.454 431.31 516.594 435.75C512.744 440.2 508.484 446.69 505.144 452.3C501.814 457.92 497.884 464.24 495.824 470.98C493.754 477.71 491.394 484.54 489.844 492C488.294 499.45 487.294 508.09 485.844 516C484.394 523.91 484.894 533.77 483.844 542C482.794 550.23 484.814 559.99 484.844 568C484.874 576.01 487.814 584.56 488.854 591.99C489.894 599.42 493.164 607.21 495.064 613.78C496.974 620.34 503.194 628.48 509.594 623.75C515.994 619.02 517.044 613.09 520.874 607.03C524.694 600.96 526.324 593.97 529.064 587.22C531.814 580.48 533.734 574.25 535.844 567C537.964 559.76 538.644 550.9 540.064 543.22C541.494 535.55 543.154 526.1 542.864 518.02C542.584 509.95 546.504 501.76 545.844 494C545.184 486.24 543.044 477.23 541.824 470.02C540.594 462.81 539.684 451.23 538.844 445C538.004 438.77 539.044 426.04 532.844 424Z" stroke="black"/>
</g>
<g id="biceps_right">
<path d="M859.844 424C848.574 421.23 848.424 441.72 847.844 450C847.264 458.28 845.534 473.47 843.774 482.93C842.004 492.39 842.544 507.88 843.914 517.93C845.294 527.97 846.714 541.64 848.524 551.32C850.334 561.01 853.064 572.29 856.064 580.78C859.074 589.26 863.374 600.07 866.924 606.92C870.464 613.78 876.504 628.44 885.144 624.3C893.794 620.17 894.734 607.46 897.514 598.67C900.294 589.88 902.084 577.28 902.844 567C903.604 556.72 902.704 540.65 902.844 530C902.984 519.35 899.984 506.47 898.174 496.67C896.364 486.87 894.204 475.49 890.614 467.23C887.024 458.97 882.424 449.77 877.144 443.7C871.864 437.62 867.804 425.95 859.844 424Z" fill="#CAA593"/>
<path d="M859.844 424C848.574 421.23 848.424 441.72 847.844 450C847.264 458.28 845.534 473.47 843.774 482.93C842.004 492.39 842.544 507.88 843.914 517.93C845.294 527.97 846.714 541.64 848.524 551.32C850.334 561.01 853.064 572.29 856.064 580.78C859.074 589.26 863.374 600.07 866.924 606.92C870.464 613.78 876.504 628.44 885.144 624.3C893.794 620.17 894.734 607.46 897.514 598.67C900.294 589.88 902.084 577.28 902.844 567C903.604 556.72 902.704 540.65 902.844 530C902.984 519.35 899.984 506.47 898.174 496.67C896.364 486.87 894.204 475.49 890.614 467.23C887.024 458.97 882.424 449.77 877.144 443.7C871.864 437.62 867.804 425.95 859.844 424Z" fill="#00C8B3" fill-opacity="0.5"/>
<path d="M859.844 424C848.574 421.23 848.424 441.72 847.844 450C847.264 458.28 845.534 473.47 843.774 482.93C842.004 492.39 842.544 507.88 843.914 517.93C845.294 527.97 846.714 541.64 848.524 551.32C850.334 561.01 853.064 572.29 856.064 580.78C859.074 589.26 863.374 600.07 866.924 606.92C870.464 613.78 876.504 628.44 885.144 624.3C893.794 620.17 894.734 607.46 897.514 598.67C900.294 589.88 902.084 577.28 902.844 567C903.604 556.72 902.704 540.65 902.844 530C902.984 519.35 899.984 506.47 898.174 496.67C896.364 486.87 894.204 475.49 890.614 467.23C887.024 458.97 882.424 449.77 877.144 443.7C871.864 437.62 867.804 425.95 859.844 424Z" stroke="black"/>
</g>
<g id="upper_abs_left">
<path d="M683.844 514C676.584 510.83 667.064 517.63 660.534 519.7C654.014 521.76 648.164 525.83 641.544 528.7C634.914 531.56 631.004 535.44 627.094 542.25C623.194 549.07 622.614 556.88 622.914 565.93C623.214 574.98 632.394 577.57 638.764 572.92C645.134 568.27 649.234 565.17 655.154 561.31C661.064 557.44 667.474 554.29 673.154 551.31C678.824 548.32 686.074 543.09 686.864 537.02C687.654 530.95 690.514 516.91 683.844 514Z" fill="#C9A593"/>
<path d="M683.844 514C676.584 510.83 667.064 517.63 660.534 519.7C654.014 521.76 648.164 525.83 641.544 528.7C634.914 531.56 631.004 535.44 627.094 542.25C623.194 549.07 622.614 556.88 622.914 565.93C623.214 574.98 632.394 577.57 638.764 572.92C645.134 568.27 649.234 565.17 655.154 561.31C661.064 557.44 667.474 554.29 673.154 551.31C678.824 548.32 686.074 543.09 686.864 537.02C687.654 530.95 690.514 516.91 683.844 514Z" fill="#CB30E0" fill-opacity="0.5"/>
<path d="M683.844 514C676.584 510.83 667.064 517.63 660.534 519.7C654.014 521.76 648.164 525.83 641.544 528.7C634.914 531.56 631.004 535.44 627.094 542.25C623.194 549.07 622.614 556.88 622.914 565.93C623.214 574.98 632.394 577.57 638.764 572.92C645.134 568.27 649.234 565.17 655.154 561.31C661.064 557.44 667.474 554.29 673.154 551.31C678.824 548.32 686.074 543.09 686.864 537.02C687.654 530.95 690.514 516.91 683.844 514Z" stroke="black"/>
</g>
<g id="upper_abs_right">
<path d="M713.844 514C696.154 510.34 696.834 535.99 705.594 545.25C714.354 554.51 728.184 555.1 737.094 564.75C746.004 574.39 763.884 580.12 764.844 564C765.804 547.88 760.704 536.02 748.074 529.77C735.444 523.52 726.714 516.66 713.844 514Z" fill="#CAA592"/>
<path d="M713.844 514C696.154 510.34 696.834 535.99 705.594 545.25C714.354 554.51 728.184 555.1 737.094 564.75C746.004 574.39 763.884 580.12 764.844 564C765.804 547.88 760.704 536.02 748.074 529.77C735.444 523.52 726.714 516.66 713.844 514Z" fill="#CB30E0" fill-opacity="0.5"/>
<path d="M713.844 514C696.154 510.34 696.834 535.99 705.594 545.25C714.354 554.51 728.184 555.1 737.094 564.75C746.004 574.39 763.884 580.12 764.844 564C765.804 547.88 760.704 536.02 748.074 529.77C735.444 523.52 726.714 516.66 713.844 514Z" stroke="black"/>
</g>
<g id="obliques_left">
<path d="M563.844 565C564.084 566.08 564.754 567.37 564.844 569C565.584 572.65 567.194 576.91 567.844 581C569.434 590.98 572.294 600.8 572.844 611C574.724 622.59 576.024 638.76 573.624 650.78C571.214 662.79 567.514 672.53 563.614 683.77C559.714 695.01 553.484 702.19 550.844 714C548.204 725.81 554.394 737.48 561.594 746.25C568.784 755.03 574.404 759.94 584.154 766.7C593.894 773.45 607.974 771.54 609.064 757.22C610.154 742.9 609.094 730.84 607.844 717C606.594 703.16 608.074 688.33 608.844 675C609.614 661.67 611.644 649.07 612.844 636C614.044 622.93 614.314 607.96 614.844 595C615.374 582.04 612.074 567.12 611.174 555.67C610.264 544.23 602.154 534.67 593.544 530.31C584.924 525.94 568.294 515.96 563.834 526.99C559.384 538.02 561.394 553.95 563.844 565Z" fill="#CAA593"/>
<path d="M563.844 565C564.084 566.08 564.754 567.37 564.844 569C565.584 572.65 567.194 576.91 567.844 581C569.434 590.98 572.294 600.8 572.844 611C574.724 622.59 576.024 638.76 573.624 650.78C571.214 662.79 567.514 672.53 563.614 683.77C559.714 695.01 553.484 702.19 550.844 714C548.204 725.81 554.394 737.48 561.594 746.25C568.784 755.03 574.404 759.94 584.154 766.7C593.894 773.45 607.974 771.54 609.064 757.22C610.154 742.9 609.094 730.84 607.844 717C606.594 703.16 608.074 688.33 608.844 675C609.614 661.67 611.644 649.07 612.844 636C614.044 622.93 614.314 607.96 614.844 595C615.374 582.04 612.074 567.12 611.174 555.67C610.264 544.23 602.154 534.67 593.544 530.31C584.924 525.94 568.294 515.96 563.834 526.99C559.384 538.02 561.394 553.95 563.844 565Z" fill="#CB30E0" fill-opacity="0.5"/>
<path d="M563.844 565C564.084 566.08 564.754 567.37 564.844 569C565.584 572.65 567.194 576.91 567.844 581C569.434 590.98 572.294 600.8 572.844 611C574.724 622.59 576.024 638.76 573.624 650.78C571.214 662.79 567.514 672.53 563.614 683.77C559.714 695.01 553.484 702.19 550.844 714C548.204 725.81 554.394 737.48 561.594 746.25C568.784 755.03 574.404 759.94 584.154 766.7C593.894 773.45 607.974 771.54 609.064 757.22C610.154 742.9 609.094 730.84 607.844 717C606.594 703.16 608.074 688.33 608.844 675C609.614 661.67 611.644 649.07 612.844 636C614.044 622.93 614.314 607.96 614.844 595C615.374 582.04 612.074 567.12 611.174 555.67C610.264 544.23 602.154 534.67 593.544 530.31C584.924 525.94 568.294 515.96 563.834 526.99C559.384 538.02 561.394 553.95 563.844 565Z" stroke="black"/>
</g>
<g id="obliques_right">
<path d="M813.844 645C811.344 624.84 815.464 605.84 818.844 587C820.924 575.37 823.984 561.73 824.844 550C825.704 538.27 825.314 518.35 811.874 523.03C798.434 527.7 794.014 528.71 784.594 537.75C775.184 546.8 777.034 557.87 774.834 569.99C772.634 582.12 774.524 597.98 773.844 611C773.164 624.02 775.804 637.31 776.844 650C777.884 662.69 779.854 675.32 780.844 688C781.834 700.68 779.064 715.67 778.844 728C778.624 740.33 774.774 754.56 781.094 765.75C787.414 776.94 802.104 768.55 809.594 762.75C817.094 756.95 824.334 749.52 830.074 741.23C835.814 732.94 839.984 718.18 834.764 708.08C829.544 697.97 827.194 688.6 822.614 678.23C818.034 667.86 815.264 656.43 813.844 645Z" fill="#CAA593"/>
<path d="M813.844 645C811.344 624.84 815.464 605.84 818.844 587C820.924 575.37 823.984 561.73 824.844 550C825.704 538.27 825.314 518.35 811.874 523.03C798.434 527.7 794.014 528.71 784.594 537.75C775.184 546.8 777.034 557.87 774.834 569.99C772.634 582.12 774.524 597.98 773.844 611C773.164 624.02 775.804 637.31 776.844 650C777.884 662.69 779.854 675.32 780.844 688C781.834 700.68 779.064 715.67 778.844 728C778.624 740.33 774.774 754.56 781.094 765.75C787.414 776.94 802.104 768.55 809.594 762.75C817.094 756.95 824.334 749.52 830.074 741.23C835.814 732.94 839.984 718.18 834.764 708.08C829.544 697.97 827.194 688.6 822.614 678.23C818.034 667.86 815.264 656.43 813.844 645Z" fill="#CB30E0" fill-opacity="0.5"/>
<path d="M813.844 645C811.344 624.84 815.464 605.84 818.844 587C820.924 575.37 823.984 561.73 824.844 550C825.704 538.27 825.314 518.35 811.874 523.03C798.434 527.7 794.014 528.71 784.594 537.75C775.184 546.8 777.034 557.87 774.834 569.99C772.634 582.12 774.524 597.98 773.844 611C773.164 624.02 775.804 637.31 776.844 650C777.884 662.69 779.854 675.32 780.844 688C781.834 700.68 779.064 715.67 778.844 728C778.624 740.33 774.774 754.56 781.094 765.75C787.414 776.94 802.104 768.55 809.594 762.75C817.094 756.95 824.334 749.52 830.074 741.23C835.814 732.94 839.984 718.18 834.764 708.08C829.544 697.97 827.194 688.6 822.614 678.23C818.034 667.86 815.264 656.43 813.844 645Z" stroke="black"/>
</g>
<g id="mid_abs_left">
<path d="M679.844 566C670.774 563.7 661.544 572.71 654.074 577.23C646.604 581.75 639.934 585.46 633.764 593.92C627.604 602.39 627.274 611.94 626.844 624C626.414 636.06 642.594 635.61 651.844 632C661.094 628.39 675.014 632.02 682.594 625.75C690.184 619.48 687.924 601.92 687.844 594C687.764 586.08 688.814 568.27 679.844 566Z" fill="#CAA593"/>
<path d="M679.844 566C670.774 563.7 661.544 572.71 654.074 577.23C646.604 581.75 639.934 585.46 633.764 593.92C627.604 602.39 627.274 611.94 626.844 624C626.414 636.06 642.594 635.61 651.844 632C661.094 628.39 675.014 632.02 682.594 625.75C690.184 619.48 687.924 601.92 687.844 594C687.764 586.08 688.814 568.27 679.844 566Z" fill="#CB30E0" fill-opacity="0.5"/>
<path d="M679.844 566C670.774 563.7 661.544 572.71 654.074 577.23C646.604 581.75 639.934 585.46 633.764 593.92C627.604 602.39 627.274 611.94 626.844 624C626.414 636.06 642.594 635.61 651.844 632C661.094 628.39 675.014 632.02 682.594 625.75C690.184 619.48 687.924 601.92 687.844 594C687.764 586.08 688.814 568.27 679.844 566Z" stroke="black"/>
</g>
<g id="mid_abs_right">
<path d="M712.844 566C699.164 564.27 699.514 586.17 699.844 596C700.174 605.83 697.144 624.58 710.774 628.07C724.404 631.57 732.874 630.56 747.844 634C762.814 637.44 763.344 615.31 759.614 605.23C755.884 595.15 749.344 586.65 740.544 581.3C731.744 575.96 722.774 567.25 712.844 566Z" fill="#CAA693"/>
<path d="M712.844 566C699.164 564.27 699.514 586.17 699.844 596C700.174 605.83 697.144 624.58 710.774 628.07C724.404 631.57 732.874 630.56 747.844 634C762.814 637.44 763.344 615.31 759.614 605.23C755.884 595.15 749.344 586.65 740.544 581.3C731.744 575.96 722.774 567.25 712.844 566Z" fill="#CB30E0" fill-opacity="0.5"/>
<path d="M712.844 566C699.164 564.27 699.514 586.17 699.844 596C700.174 605.83 697.144 624.58 710.774 628.07C724.404 631.57 732.874 630.56 747.844 634C762.814 637.44 763.344 615.31 759.614 605.23C755.884 595.15 749.344 586.65 740.544 581.3C731.744 575.96 722.774 567.25 712.844 566Z" stroke="black"/>
</g>
<g id="lower_abs_left">
<path d="M677.844 641C664.694 637.94 652.324 645.33 639.064 645.22C625.804 645.11 624.124 662.93 623.844 673C623.564 683.07 622.844 702.16 635.824 704.02C648.794 705.89 662.664 709.25 675.624 706.78C688.574 704.31 687.074 684.51 686.844 675C686.614 665.49 690.374 643.91 677.844 641Z" fill="#CAA593"/>
<path d="M677.844 641C664.694 637.94 652.324 645.33 639.064 645.22C625.804 645.11 624.124 662.93 623.844 673C623.564 683.07 622.844 702.16 635.824 704.02C648.794 705.89 662.664 709.25 675.624 706.78C688.574 704.31 687.074 684.51 686.844 675C686.614 665.49 690.374 643.91 677.844 641Z" fill="#CB30E0" fill-opacity="0.5"/>
<path d="M677.844 641C664.694 637.94 652.324 645.33 639.064 645.22C625.804 645.11 624.124 662.93 623.844 673C623.564 683.07 622.844 702.16 635.824 704.02C648.794 705.89 662.664 709.25 675.624 706.78C688.574 704.31 687.074 684.51 686.844 675C686.614 665.49 690.374 643.91 677.844 641Z" stroke="black"/>
</g>
<g id="lower_abs_right">
<path d="M728.844 642C716.584 640.25 699.904 641.78 700.844 657C701.784 672.22 699.024 683.97 702.924 697.92C706.814 711.88 724.794 706.27 735.624 706.78C746.454 707.29 762.014 703.29 762.914 691.07C763.824 678.86 765.764 663.04 760.144 652.7C754.534 642.36 738.334 643.36 728.844 642Z" fill="#CAA593"/>
<path d="M728.844 642C716.584 640.25 699.904 641.78 700.844 657C701.784 672.22 699.024 683.97 702.924 697.92C706.814 711.88 724.794 706.27 735.624 706.78C746.454 707.29 762.014 703.29 762.914 691.07C763.824 678.86 765.764 663.04 760.144 652.7C754.534 642.36 738.334 643.36 728.844 642Z" fill="#CB30E0" fill-opacity="0.5"/>
<path d="M728.844 642C716.584 640.25 699.904 641.78 700.844 657C701.784 672.22 699.024 683.97 702.924 697.92C706.814 711.88 724.794 706.27 735.624 706.78C746.454 707.29 762.014 703.29 762.914 691.07C763.824 678.86 765.764 663.04 760.144 652.7C754.534 642.36 738.334 643.36 728.844 642Z" stroke="black"/>
</g>
<g id="forearms_left">
<path d="M455.844 653C455.274 659.82 452.174 666.77 450.844 673C450.864 673.95 450.974 675.06 450.844 676C444.024 725.4 441.784 777.11 433.844 826C433.564 831.21 433.054 835.8 432.844 841C432.624 846.32 429.434 865.72 437.094 859.25C444.744 852.77 439.764 842.86 442.914 835.07C446.074 827.29 445.474 818.32 448.514 810.67C451.554 803.02 452.314 794.76 455.064 787.22C457.824 779.68 460.044 773.19 462.524 765.68C465.004 758.17 468.154 751.49 470.874 744.03C473.584 736.57 476.524 729.77 478.864 722.02C481.214 714.28 483.344 706.71 485.514 698.67C487.684 690.63 486.994 680.27 488.844 672C490.694 663.73 486.974 652.45 486.844 645C486.714 637.55 482.164 626.38 481.624 620.22C481.084 614.07 473.064 600.83 469.174 607.33C465.284 613.83 465.684 623.9 462.774 630.93C459.854 637.95 457.874 646.03 455.844 653Z" fill="#CAA693"/>
<path d="M455.844 653C455.274 659.82 452.174 666.77 450.844 673C450.864 673.95 450.974 675.06 450.844 676C444.024 725.4 441.784 777.11 433.844 826C433.564 831.21 433.054 835.8 432.844 841C432.624 846.32 429.434 865.72 437.094 859.25C444.744 852.77 439.764 842.86 442.914 835.07C446.074 827.29 445.474 818.32 448.514 810.67C451.554 803.02 452.314 794.76 455.064 787.22C457.824 779.68 460.044 773.19 462.524 765.68C465.004 758.17 468.154 751.49 470.874 744.03C473.584 736.57 476.524 729.77 478.864 722.02C481.214 714.28 483.344 706.71 485.514 698.67C487.684 690.63 486.994 680.27 488.844 672C490.694 663.73 486.974 652.45 486.844 645C486.714 637.55 482.164 626.38 481.624 620.22C481.084 614.07 473.064 600.83 469.174 607.33C465.284 613.83 465.684 623.9 462.774 630.93C459.854 637.95 457.874 646.03 455.844 653Z" fill="#00C8B3" fill-opacity="0.5"/>
<path d="M514.844 650C509.544 647.85 504.694 657.47 502.154 661.31C499.604 665.14 496.674 672.1 495.174 677.33C493.674 682.55 492.184 690.12 490.774 695.93C489.364 701.73 488.164 708.87 486.824 714.98C485.474 721.08 483.534 727.94 481.844 734C480.154 740.06 479.544 746.96 477.764 752.92C475.984 758.88 473.414 764 471.824 769.98C470.224 775.95 468.424 781.84 466.624 787.78C464.824 793.72 463.104 800.48 461.174 806.33C459.244 812.17 458.104 819.05 456.624 824.78C455.144 830.51 453.654 838.68 452.834 843.99C452.014 849.3 449.684 861.7 456.814 860.97C463.954 860.24 462.294 849.86 464.864 845.02C467.444 840.19 467.494 832.31 469.864 827.02C472.244 821.74 473.234 815.37 475.914 810.07C478.604 804.78 479.704 798.7 482.074 793.23C484.444 787.76 486.754 781.73 489.064 776.22C491.384 770.72 493.594 765.54 495.924 760.08C498.244 754.61 500.804 749.63 502.874 744.03C504.934 738.43 507.434 732.96 508.914 727.07C510.394 721.18 512.894 714.43 514.514 708.67C516.134 702.92 517.754 695.56 518.844 690C519.944 684.45 520.744 672.89 519.844 668C518.934 663.12 519.364 651.83 514.844 650Z" fill="#CAA693"/>
<path d="M514.844 650C509.544 647.85 504.694 657.47 502.154 661.31C499.604 665.14 496.674 672.1 495.174 677.33C493.674 682.55 492.184 690.12 490.774 695.93C489.364 701.73 488.164 708.87 486.824 714.98C485.474 721.08 483.534 727.94 481.844 734C480.154 740.06 479.544 746.96 477.764 752.92C475.984 758.88 473.414 764 471.824 769.98C470.224 775.95 468.424 781.84 466.624 787.78C464.824 793.72 463.104 800.48 461.174 806.33C459.244 812.17 458.104 819.05 456.624 824.78C455.144 830.51 453.654 838.68 452.834 843.99C452.014 849.3 449.684 861.7 456.814 860.97C463.954 860.24 462.294 849.86 464.864 845.02C467.444 840.19 467.494 832.31 469.864 827.02C472.244 821.74 473.234 815.37 475.914 810.07C478.604 804.78 479.704 798.7 482.074 793.23C484.444 787.76 486.754 781.73 489.064 776.22C491.384 770.72 493.594 765.54 495.924 760.08C498.244 754.61 500.804 749.63 502.874 744.03C504.934 738.43 507.434 732.96 508.914 727.07C510.394 721.18 512.894 714.43 514.514 708.67C516.134 702.92 517.754 695.56 518.844 690C519.944 684.45 520.744 672.89 519.844 668C518.934 663.12 519.364 651.83 514.844 650Z" fill="#00C8B3" fill-opacity="0.5"/>
<path d="M455.844 653C455.274 659.82 452.174 666.77 450.844 673C450.864 673.95 450.974 675.06 450.844 676C444.024 725.4 441.784 777.11 433.844 826C433.564 831.21 433.054 835.8 432.844 841C432.624 846.32 429.434 865.72 437.094 859.25C444.744 852.77 439.764 842.86 442.914 835.07C446.074 827.29 445.474 818.32 448.514 810.67C451.554 803.02 452.314 794.76 455.064 787.22C457.824 779.68 460.044 773.19 462.524 765.68C465.004 758.17 468.154 751.49 470.874 744.03C473.584 736.57 476.524 729.77 478.864 722.02C481.214 714.28 483.344 706.71 485.514 698.67C487.684 690.63 486.994 680.27 488.844 672C490.694 663.73 486.974 652.45 486.844 645C486.714 637.55 482.164 626.38 481.624 620.22C481.084 614.07 473.064 600.83 469.174 607.33C465.284 613.83 465.684 623.9 462.774 630.93C459.854 637.95 457.874 646.03 455.844 653Z" stroke="black"/>
<path d="M514.844 650C509.544 647.85 504.694 657.47 502.154 661.31C499.604 665.14 496.674 672.1 495.174 677.33C493.674 682.55 492.184 690.12 490.774 695.93C489.364 701.73 488.164 708.87 486.824 714.98C485.474 721.08 483.534 727.94 481.844 734C480.154 740.06 479.544 746.96 477.764 752.92C475.984 758.88 473.414 764 471.824 769.98C470.224 775.95 468.424 781.84 466.624 787.78C464.824 793.72 463.104 800.48 461.174 806.33C459.244 812.17 458.104 819.05 456.624 824.78C455.144 830.51 453.654 838.68 452.834 843.99C452.014 849.3 449.684 861.7 456.814 860.97C463.954 860.24 462.294 849.86 464.864 845.02C467.444 840.19 467.494 832.31 469.864 827.02C472.244 821.74 473.234 815.37 475.914 810.07C478.604 804.78 479.704 798.7 482.074 793.23C484.444 787.76 486.754 781.73 489.064 776.22C491.384 770.72 493.594 765.54 495.924 760.08C498.244 754.61 500.804 749.63 502.874 744.03C504.934 738.43 507.434 732.96 508.914 727.07C510.394 721.18 512.894 714.43 514.514 708.67C516.134 702.92 517.754 695.56 518.844 690C519.944 684.45 520.744 672.89 519.844 668C518.934 663.12 519.364 651.83 514.844 650Z" stroke="black"/>
</g>
<g id="forearms_right">
<path d="M954.844 841C953.504 831.86 951.844 822.35 951.844 813C951.124 805.55 950.554 797.05 949.844 789C948.364 772.11 944.494 755.02 943.844 738C943.624 732.15 943.404 726.81 942.844 721C941.354 705.56 939.794 688.58 936.844 673C935.714 667.03 933.034 660.38 931.844 654C926.444 638.32 922.044 621.38 917.844 605C906.904 606.63 907.464 618.85 904.624 627.78C901.774 636.7 899.364 646.87 898.844 657C898.324 667.13 899.484 681.09 900.914 690.93C902.354 700.77 905.304 709.66 907.864 718.98C910.434 728.29 914.164 736.36 917.524 745.32C920.874 754.29 923.564 761.79 926.914 770.93C930.274 780.06 932.454 788.43 935.864 797.98C939.274 807.52 938.834 815.76 942.854 825.99C946.874 836.23 941.594 845.16 948.874 855.97C956.154 866.79 956.224 850.44 954.844 841Z" fill="#C9A492"/>
<path d="M954.844 841C953.504 831.86 951.844 822.35 951.844 813C951.124 805.55 950.554 797.05 949.844 789C948.364 772.11 944.494 755.02 943.844 738C943.624 732.15 943.404 726.81 942.844 721C941.354 705.56 939.794 688.58 936.844 673C935.714 667.03 933.034 660.38 931.844 654C926.444 638.32 922.044 621.38 917.844 605C906.904 606.63 907.464 618.85 904.624 627.78C901.774 636.7 899.364 646.87 898.844 657C898.324 667.13 899.484 681.09 900.914 690.93C902.354 700.77 905.304 709.66 907.864 718.98C910.434 728.29 914.164 736.36 917.524 745.32C920.874 754.29 923.564 761.79 926.914 770.93C930.274 780.06 932.454 788.43 935.864 797.98C939.274 807.52 938.834 815.76 942.854 825.99C946.874 836.23 941.594 845.16 948.874 855.97C956.154 866.79 956.224 850.44 954.844 841Z" fill="#00C8B3" fill-opacity="0.5"/>
<path d="M876.844 650C868.734 648.01 867.614 664.62 867.844 671C868.074 677.38 868.004 690.78 870.064 697.78C872.134 704.77 874.934 713.66 876.924 720.92C878.904 728.19 882.004 735.22 884.524 742.32C887.044 749.43 890.134 755.9 892.924 762.92C895.704 769.95 899.124 776.86 901.914 783.93C904.704 790.99 907.394 797.68 909.914 804.93C912.444 812.17 916.004 818.27 917.864 825.98C919.734 833.69 923.324 841.58 923.914 849.93C924.514 858.27 934.614 865.42 935.844 855C937.074 844.58 933.264 837.85 931.844 829C930.424 820.15 928.504 813.69 926.164 805.68C923.824 797.67 922.004 790.78 919.824 783.02C917.634 775.27 915.014 767.8 912.624 760.22C910.234 752.64 908.374 744.89 906.624 737.22C904.874 729.56 902.644 721.45 900.834 714.01C899.034 706.56 897.774 696.03 895.624 689.22C893.464 682.41 892.534 672.21 888.614 667.23C884.694 662.25 883.044 651.52 876.844 650Z" fill="#C9A492"/>
<path d="M876.844 650C868.734 648.01 867.614 664.62 867.844 671C868.074 677.38 868.004 690.78 870.064 697.78C872.134 704.77 874.934 713.66 876.924 720.92C878.904 728.19 882.004 735.22 884.524 742.32C887.044 749.43 890.134 755.9 892.924 762.92C895.704 769.95 899.124 776.86 901.914 783.93C904.704 790.99 907.394 797.68 909.914 804.93C912.444 812.17 916.004 818.27 917.864 825.98C919.734 833.69 923.324 841.58 923.914 849.93C924.514 858.27 934.614 865.42 935.844 855C937.074 844.58 933.264 837.85 931.844 829C930.424 820.15 928.504 813.69 926.164 805.68C923.824 797.67 922.004 790.78 919.824 783.02C917.634 775.27 915.014 767.8 912.624 760.22C910.234 752.64 908.374 744.89 906.624 737.22C904.874 729.56 902.644 721.45 900.834 714.01C899.034 706.56 897.774 696.03 895.624 689.22C893.464 682.41 892.534 672.21 888.614 667.23C884.694 662.25 883.044 651.52 876.844 650Z" fill="#00C8B3" fill-opacity="0.5"/>
<path d="M954.844 841C953.504 831.86 951.844 822.35 951.844 813C951.124 805.55 950.554 797.05 949.844 789C948.364 772.11 944.494 755.02 943.844 738C943.624 732.15 943.404 726.81 942.844 721C941.354 705.56 939.794 688.58 936.844 673C935.714 667.03 933.034 660.38 931.844 654C926.444 638.32 922.044 621.38 917.844 605C906.904 606.63 907.464 618.85 904.624 627.78C901.774 636.7 899.364 646.87 898.844 657C898.324 667.13 899.484 681.09 900.914 690.93C902.354 700.77 905.304 709.66 907.864 718.98C910.434 728.29 914.164 736.36 917.524 745.32C920.874 754.29 923.564 761.79 926.914 770.93C930.274 780.06 932.454 788.43 935.864 797.98C939.274 807.52 938.834 815.76 942.854 825.99C946.874 836.23 941.594 845.16 948.874 855.97C956.154 866.79 956.224 850.44 954.844 841Z" stroke="black"/>
<path d="M876.844 650C868.734 648.01 867.614 664.62 867.844 671C868.074 677.38 868.004 690.78 870.064 697.78C872.134 704.77 874.934 713.66 876.924 720.92C878.904 728.19 882.004 735.22 884.524 742.32C887.044 749.43 890.134 755.9 892.924 762.92C895.704 769.95 899.124 776.86 901.914 783.93C904.704 790.99 907.394 797.68 909.914 804.93C912.444 812.17 916.004 818.27 917.864 825.98C919.734 833.69 923.324 841.58 923.914 849.93C924.514 858.27 934.614 865.42 935.844 855C937.074 844.58 933.264 837.85 931.844 829C930.424 820.15 928.504 813.69 926.164 805.68C923.824 797.67 922.004 790.78 919.824 783.02C917.634 775.27 915.014 767.8 912.624 760.22C910.234 752.64 908.374 744.89 906.624 737.22C904.874 729.56 902.644 721.45 900.834 714.01C899.034 706.56 897.774 696.03 895.624 689.22C893.464 682.41 892.534 672.21 888.614 667.23C884.694 662.25 883.044 651.52 876.844 650Z" stroke="black"/>
</g>
<g id="v_cut_left">
<path d="M656.844 718C645.234 716.88 625.394 715.38 625.844 730C626.294 744.62 626.574 756.29 630.064 768.78C633.564 781.27 636.294 790.37 639.864 801.98C643.444 813.58 646.964 822.81 650.924 833.92C654.874 845.04 659.104 850.95 666.094 860.75C673.084 870.55 690.134 872.17 688.844 857C687.554 841.83 689.674 828.42 688.844 814C688.014 799.58 689.754 784.73 688.844 771C687.934 757.27 689.024 743.54 685.764 731.08C682.514 718.61 666.444 718.93 656.844 718Z" fill="#CAA694"/>
<path d="M656.844 718C645.234 716.88 625.394 715.38 625.844 730C626.294 744.62 626.574 756.29 630.064 768.78C633.564 781.27 636.294 790.37 639.864 801.98C643.444 813.58 646.964 822.81 650.924 833.92C654.874 845.04 659.104 850.95 666.094 860.75C673.084 870.55 690.134 872.17 688.844 857C687.554 841.83 689.674 828.42 688.844 814C688.014 799.58 689.754 784.73 688.844 771C687.934 757.27 689.024 743.54 685.764 731.08C682.514 718.61 666.444 718.93 656.844 718Z" fill="#CB30E0" fill-opacity="0.5"/>
<path d="M656.844 718C645.234 716.88 625.394 715.38 625.844 730C626.294 744.62 626.574 756.29 630.064 768.78C633.564 781.27 636.294 790.37 639.864 801.98C643.444 813.58 646.964 822.81 650.924 833.92C654.874 845.04 659.104 850.95 666.094 860.75C673.084 870.55 690.134 872.17 688.844 857C687.554 841.83 689.674 828.42 688.844 814C688.014 799.58 689.754 784.73 688.844 771C687.934 757.27 689.024 743.54 685.764 731.08C682.514 718.61 666.444 718.93 656.844 718Z" stroke="black"/>
</g>
<g id="v_cut_right">
<path d="M698.844 802C698.844 820.99 696.904 841.12 698.844 860C702.774 877.75 722.094 864.43 727.544 852.7C732.994 840.96 739.724 828.68 743.064 815.22C746.414 801.77 753.584 789.68 755.854 775.01C758.114 760.33 765.714 745.8 762.824 729.02C759.924 712.25 736.824 718.98 721.914 719.07C707.014 719.16 697.814 732.93 698.844 749C699.874 765.07 698.844 785.53 698.844 802Z" fill="#CAA693"/>
<path d="M698.844 802C698.844 820.99 696.904 841.12 698.844 860C702.774 877.75 722.094 864.43 727.544 852.7C732.994 840.96 739.724 828.68 743.064 815.22C746.414 801.77 753.584 789.68 755.854 775.01C758.114 760.33 765.714 745.8 762.824 729.02C759.924 712.25 736.824 718.98 721.914 719.07C707.014 719.16 697.814 732.93 698.844 749C699.874 765.07 698.844 785.53 698.844 802Z" fill="#CB30E0" fill-opacity="0.5"/>
<path d="M698.844 802C698.844 820.99 696.904 841.12 698.844 860C702.774 877.75 722.094 864.43 727.544 852.7C732.994 840.96 739.724 828.68 743.064 815.22C746.414 801.77 753.584 789.68 755.854 775.01C758.114 760.33 765.714 745.8 762.824 729.02C759.924 712.25 736.824 718.98 721.914 719.07C707.014 719.16 697.814 732.93 698.844 749C699.874 765.07 698.844 785.53 698.844 802Z" stroke="black"/>
</g>
<g id="inner_thigh_left">
<path d="M677.844 1035C677.844 1024.33 679.274 1014.51 679.844 1004C680.884 984.83 679.844 965.17 679.844 946C678.944 931.81 672.544 916.98 664.154 905.69C655.754 894.41 651.984 882.08 643.094 871.75C634.204 861.42 626.554 851.95 618.094 841.75C609.634 831.55 601.204 821.74 593.614 811.23C586.024 800.72 580.424 786.94 568.844 781C581.924 887.14 645.534 977.02 671.844 1079C674.404 1065.15 676.474 1049.16 677.844 1035Z" fill="#CAA593"/>
<path d="M677.844 1035C677.844 1024.33 679.274 1014.51 679.844 1004C680.884 984.83 679.844 965.17 679.844 946C678.944 931.81 672.544 916.98 664.154 905.69C655.754 894.41 651.984 882.08 643.094 871.75C634.204 861.42 626.554 851.95 618.094 841.75C609.634 831.55 601.204 821.74 593.614 811.23C586.024 800.72 580.424 786.94 568.844 781C581.924 887.14 645.534 977.02 671.844 1079C674.404 1065.15 676.474 1049.16 677.844 1035Z" fill="#FF2D55" fill-opacity="0.5"/>
<path d="M677.844 1035C677.844 1024.33 679.274 1014.51 679.844 1004C680.884 984.83 679.844 965.17 679.844 946C678.944 931.81 672.544 916.98 664.154 905.69C655.754 894.41 651.984 882.08 643.094 871.75C634.204 861.42 626.554 851.95 618.094 841.75C609.634 831.55 601.204 821.74 593.614 811.23C586.024 800.72 580.424 786.94 568.844 781C581.924 887.14 645.534 977.02 671.844 1079C674.404 1065.15 676.474 1049.16 677.844 1035Z" stroke="black"/>
</g>
<g id="inner_thigh_right">
<path d="M708.844 938C708.774 940.55 708.054 942.74 707.844 945C707.244 951.37 706.394 958.28 705.844 964C705.844 979.44 706.824 993.96 707.844 1009C708.434 1017.63 710.114 1026.43 710.844 1035C711.024 1037.08 711.224 1039.95 710.844 1042C713.524 1053.87 712.414 1068.27 715.844 1080C741.164 977.27 806.134 887.6 818.844 781C802.784 793.56 792.224 813.75 779.144 830.3C766.064 846.85 750.444 861.36 739.154 879.31C727.854 897.25 712.814 917.44 708.844 938Z" fill="#CAA593"/>
<path d="M708.844 938C708.774 940.55 708.054 942.74 707.844 945C707.244 951.37 706.394 958.28 705.844 964C705.844 979.44 706.824 993.96 707.844 1009C708.434 1017.63 710.114 1026.43 710.844 1035C711.024 1037.08 711.224 1039.95 710.844 1042C713.524 1053.87 712.414 1068.27 715.844 1080C741.164 977.27 806.134 887.6 818.844 781C802.784 793.56 792.224 813.75 779.144 830.3C766.064 846.85 750.444 861.36 739.154 879.31C727.854 897.25 712.814 917.44 708.844 938Z" fill="#FF2D55" fill-opacity="0.5"/>
<path d="M708.844 938C708.774 940.55 708.054 942.74 707.844 945C707.244 951.37 706.394 958.28 705.844 964C705.844 979.44 706.824 993.96 707.844 1009C708.434 1017.63 710.114 1026.43 710.844 1035C711.024 1037.08 711.224 1039.95 710.844 1042C713.524 1053.87 712.414 1068.27 715.844 1080C741.164 977.27 806.134 887.6 818.844 781C802.784 793.56 792.224 813.75 779.144 830.3C766.064 846.85 750.444 861.36 739.154 879.31C727.854 897.25 712.814 917.44 708.844 938Z" stroke="black"/>
</g>
<g id="quads_left">
<path d="M562.844 833C561.864 851.3 560.604 870.29 553.824 886.98C547.034 903.66 542.984 919.38 542.844 938C542.704 956.62 543.094 979.33 545.914 996.93C548.744 1014.52 552.994 1032.52 556.854 1048.99C560.704 1065.46 565.554 1082.63 570.064 1097.78C574.574 1112.93 582.184 1130.19 585.914 1143.93C589.644 1157.66 594.814 1184.86 612.094 1174.25C629.374 1163.64 625.094 1144.75 628.854 1128.01C632.604 1111.26 633.774 1089.77 634.844 1072C635.914 1054.23 635.474 1028.88 632.774 1012.07C630.064 995.27 620.564 982.45 614.614 967.23C608.664 952.01 601.804 939.05 595.774 924.07C589.734 909.1 585.364 892.41 580.624 877.22C575.884 862.03 574.634 842.6 562.844 833Z" fill="#CAA593"/>
<path d="M562.844 833C561.864 851.3 560.604 870.29 553.824 886.98C547.034 903.66 542.984 919.38 542.844 938C542.704 956.62 543.094 979.33 545.914 996.93C548.744 1014.52 552.994 1032.52 556.854 1048.99C560.704 1065.46 565.554 1082.63 570.064 1097.78C574.574 1112.93 582.184 1130.19 585.914 1143.93C589.644 1157.66 594.814 1184.86 612.094 1174.25C629.374 1163.64 625.094 1144.75 628.854 1128.01C632.604 1111.26 633.774 1089.77 634.844 1072C635.914 1054.23 635.474 1028.88 632.774 1012.07C630.064 995.27 620.564 982.45 614.614 967.23C608.664 952.01 601.804 939.05 595.774 924.07C589.734 909.1 585.364 892.41 580.624 877.22C575.884 862.03 574.634 842.6 562.844 833Z" fill="#FFCC00" fill-opacity="0.5"/>
<path d="M562.844 833C561.864 851.3 560.604 870.29 553.824 886.98C547.034 903.66 542.984 919.38 542.844 938C542.704 956.62 543.094 979.33 545.914 996.93C548.744 1014.52 552.994 1032.52 556.854 1048.99C560.704 1065.46 565.554 1082.63 570.064 1097.78C574.574 1112.93 582.184 1130.19 585.914 1143.93C589.644 1157.66 594.814 1184.86 612.094 1174.25C629.374 1163.64 625.094 1144.75 628.854 1128.01C632.604 1111.26 633.774 1089.77 634.844 1072C635.914 1054.23 635.474 1028.88 632.774 1012.07C630.064 995.27 620.564 982.45 614.614 967.23C608.664 952.01 601.804 939.05 595.774 924.07C589.734 909.1 585.364 892.41 580.624 877.22C575.884 862.03 574.634 842.6 562.844 833Z" stroke="black"/>
</g>
<g id="quads_right">
<path d="M824.844 833C811.084 843.5 812.234 865.98 806.164 882.32C800.094 898.67 796.574 915.93 788.764 931.92C780.964 947.92 776.844 962.05 768.154 978.31C759.454 994.56 754.454 1011.36 753.824 1030.98C753.184 1050.59 753.224 1075.23 754.844 1095C756.464 1114.77 761.184 1134.71 762.914 1153.93C764.654 1173.14 789.214 1184.72 795.064 1165.22C800.924 1145.73 805.644 1133.22 811.864 1115.02C818.084 1096.82 822.374 1081.68 827.064 1063.22C831.764 1044.77 836.544 1028.18 839.844 1009C843.144 989.82 844.614 967.14 844.844 947C845.074 926.86 842.454 907.93 834.774 890.07C827.084 872.22 826.074 852.54 824.844 833Z" fill="#CAA593"/>
<path d="M824.844 833C811.084 843.5 812.234 865.98 806.164 882.32C800.094 898.67 796.574 915.93 788.764 931.92C780.964 947.92 776.844 962.05 768.154 978.31C759.454 994.56 754.454 1011.36 753.824 1030.98C753.184 1050.59 753.224 1075.23 754.844 1095C756.464 1114.77 761.184 1134.71 762.914 1153.93C764.654 1173.14 789.214 1184.72 795.064 1165.22C800.924 1145.73 805.644 1133.22 811.864 1115.02C818.084 1096.82 822.374 1081.68 827.064 1063.22C831.764 1044.77 836.544 1028.18 839.844 1009C843.144 989.82 844.614 967.14 844.844 947C845.074 926.86 842.454 907.93 834.774 890.07C827.084 872.22 826.074 852.54 824.844 833Z" fill="#FFCC00" fill-opacity="0.5"/>
<path d="M824.844 833C811.084 843.5 812.234 865.98 806.164 882.32C800.094 898.67 796.574 915.93 788.764 931.92C780.964 947.92 776.844 962.05 768.154 978.31C759.454 994.56 754.454 1011.36 753.824 1030.98C753.184 1050.59 753.224 1075.23 754.844 1095C756.464 1114.77 761.184 1134.71 762.914 1153.93C764.654 1173.14 789.214 1184.72 795.064 1165.22C800.924 1145.73 805.644 1133.22 811.864 1115.02C818.084 1096.82 822.374 1081.68 827.064 1063.22C831.764 1044.77 836.544 1028.18 839.844 1009C843.144 989.82 844.614 967.14 844.844 947C845.074 926.86 842.454 907.93 834.774 890.07C827.084 872.22 826.074 852.54 824.844 833Z" stroke="black"/>
</g>
<g id="outer_quad_left">
<path d="M540.844 921C537.374 933.11 534.124 943.37 531.824 955.98C529.514 968.58 527.694 982.54 527.844 996C527.994 1009.46 528.824 1024.15 530.914 1036.93C533.014 1049.7 535.194 1061.66 537.844 1074C540.494 1086.34 542.354 1098.79 544.914 1110.93C547.474 1123.07 550.354 1134.86 553.064 1146.78C555.784 1158.69 560.234 1168.94 563.064 1180.78C565.894 1192.61 571.914 1200.2 575.924 1211.92C579.934 1223.65 592.734 1230.3 594.064 1215.22C595.394 1200.14 595.544 1187.25 592.774 1174.07C590.004 1160.9 585.854 1152.6 582.164 1140.68C578.484 1128.76 574.864 1119.27 571.164 1107.68C567.464 1096.08 563.914 1085.88 560.774 1074.07C557.634 1062.27 554.634 1051.15 551.834 1039.01C549.044 1026.86 546.594 1014.75 544.844 1002C543.084 989.26 541.714 975.22 540.844 962C539.974 948.78 542.054 933.24 540.844 921Z" fill="#CAA592"/>
<path d="M540.844 921C537.374 933.11 534.124 943.37 531.824 955.98C529.514 968.58 527.694 982.54 527.844 996C527.994 1009.46 528.824 1024.15 530.914 1036.93C533.014 1049.7 535.194 1061.66 537.844 1074C540.494 1086.34 542.354 1098.79 544.914 1110.93C547.474 1123.07 550.354 1134.86 553.064 1146.78C555.784 1158.69 560.234 1168.94 563.064 1180.78C565.894 1192.61 571.914 1200.2 575.924 1211.92C579.934 1223.65 592.734 1230.3 594.064 1215.22C595.394 1200.14 595.544 1187.25 592.774 1174.07C590.004 1160.9 585.854 1152.6 582.164 1140.68C578.484 1128.76 574.864 1119.27 571.164 1107.68C567.464 1096.08 563.914 1085.88 560.774 1074.07C557.634 1062.27 554.634 1051.15 551.834 1039.01C549.044 1026.86 546.594 1014.75 544.844 1002C543.084 989.26 541.714 975.22 540.844 962C539.974 948.78 542.054 933.24 540.844 921Z" fill="#FF8D28" fill-opacity="0.5"/>
<path d="M540.844 921C537.374 933.11 534.124 943.37 531.824 955.98C529.514 968.58 527.694 982.54 527.844 996C527.994 1009.46 528.824 1024.15 530.914 1036.93C533.014 1049.7 535.194 1061.66 537.844 1074C540.494 1086.34 542.354 1098.79 544.914 1110.93C547.474 1123.07 550.354 1134.86 553.064 1146.78C555.784 1158.69 560.234 1168.94 563.064 1180.78C565.894 1192.61 571.914 1200.2 575.924 1211.92C579.934 1223.65 592.734 1230.3 594.064 1215.22C595.394 1200.14 595.544 1187.25 592.774 1174.07C590.004 1160.9 585.854 1152.6 582.164 1140.68C578.484 1128.76 574.864 1119.27 571.164 1107.68C567.464 1096.08 563.914 1085.88 560.774 1074.07C557.634 1062.27 554.634 1051.15 551.834 1039.01C549.044 1026.86 546.594 1014.75 544.844 1002C543.084 989.26 541.714 975.22 540.844 962C539.974 948.78 542.054 933.24 540.844 921Z" stroke="black"/>
</g>
<g id="outer_quad_right">
<path d="M846.844 921C845.924 933.28 847.594 949.67 846.844 963C846.094 976.33 844.854 990.25 842.774 1002.93C840.694 1015.6 838.494 1027.66 835.624 1039.78C832.754 1051.9 829.834 1063.1 826.774 1074.93C823.714 1086.76 819.764 1096.74 816.174 1108.33C812.584 1119.91 809.004 1129.5 805.164 1141.32C801.324 1153.14 797.434 1162.22 795.174 1175.33C792.904 1188.43 791.044 1201.26 793.524 1216.32C796.004 1231.38 808.594 1222.65 812.094 1211.25C815.594 1199.84 822.324 1191.79 824.874 1180.02C827.414 1168.26 832.114 1157.88 834.844 1146C837.574 1134.13 840.284 1122.13 842.854 1110.01C845.424 1097.89 847.784 1085.51 849.914 1073.07C852.054 1060.64 855.314 1048.83 856.844 1036C858.374 1023.18 859.994 1008.32 859.844 995C859.694 981.68 857.784 967.63 855.774 955.07C853.764 942.51 849.494 933.13 846.844 921Z" fill="#C9A592"/>
<path d="M846.844 921C845.924 933.28 847.594 949.67 846.844 963C846.094 976.33 844.854 990.25 842.774 1002.93C840.694 1015.6 838.494 1027.66 835.624 1039.78C832.754 1051.9 829.834 1063.1 826.774 1074.93C823.714 1086.76 819.764 1096.74 816.174 1108.33C812.584 1119.91 809.004 1129.5 805.164 1141.32C801.324 1153.14 797.434 1162.22 795.174 1175.33C792.904 1188.43 791.044 1201.26 793.524 1216.32C796.004 1231.38 808.594 1222.65 812.094 1211.25C815.594 1199.84 822.324 1191.79 824.874 1180.02C827.414 1168.26 832.114 1157.88 834.844 1146C837.574 1134.13 840.284 1122.13 842.854 1110.01C845.424 1097.89 847.784 1085.51 849.914 1073.07C852.054 1060.64 855.314 1048.83 856.844 1036C858.374 1023.18 859.994 1008.32 859.844 995C859.694 981.68 857.784 967.63 855.774 955.07C853.764 942.51 849.494 933.13 846.844 921Z" fill="#FF8D28" fill-opacity="0.5"/>
<path d="M846.844 921C845.924 933.28 847.594 949.67 846.844 963C846.094 976.33 844.854 990.25 842.774 1002.93C840.694 1015.6 838.494 1027.66 835.624 1039.78C832.754 1051.9 829.834 1063.1 826.774 1074.93C823.714 1086.76 819.764 1096.74 816.174 1108.33C812.584 1119.91 809.004 1129.5 805.164 1141.32C801.324 1153.14 797.434 1162.22 795.174 1175.33C792.904 1188.43 791.044 1201.26 793.524 1216.32C796.004 1231.38 808.594 1222.65 812.094 1211.25C815.594 1199.84 822.324 1191.79 824.874 1180.02C827.414 1168.26 832.114 1157.88 834.844 1146C837.574 1134.13 840.284 1122.13 842.854 1110.01C845.424 1097.89 847.784 1085.51 849.914 1073.07C852.054 1060.64 855.314 1048.83 856.844 1036C858.374 1023.18 859.994 1008.32 859.844 995C859.694 981.68 857.784 967.63 855.774 955.07C853.764 942.51 849.494 933.13 846.844 921Z" stroke="black"/>
</g>
<g id="inner_quad_left">
<path d="M635.844 1014C635.354 1031.37 638.144 1052.31 636.844 1071C635.544 1089.69 634.344 1107.62 631.774 1125.93C629.204 1144.24 625.194 1158.83 623.624 1177.78C622.054 1196.73 623.544 1211.05 630.544 1229.31C637.534 1247.56 654.694 1241.55 658.064 1223.22C661.444 1204.9 662.604 1186.13 661.844 1167C661.084 1147.87 662.494 1126.14 660.824 1108.02C659.144 1089.91 655.304 1074.46 650.824 1058.02C646.334 1041.59 640.884 1029.84 635.844 1014Z" fill="#CAA593"/>
<path d="M635.844 1014C635.354 1031.37 638.144 1052.31 636.844 1071C635.544 1089.69 634.344 1107.62 631.774 1125.93C629.204 1144.24 625.194 1158.83 623.624 1177.78C622.054 1196.73 623.544 1211.05 630.544 1229.31C637.534 1247.56 654.694 1241.55 658.064 1223.22C661.444 1204.9 662.604 1186.13 661.844 1167C661.084 1147.87 662.494 1126.14 660.824 1108.02C659.144 1089.91 655.304 1074.46 650.824 1058.02C646.334 1041.59 640.884 1029.84 635.844 1014Z" fill="#6155F5" fill-opacity="0.4"/>
<path d="M635.844 1014C635.354 1031.37 638.144 1052.31 636.844 1071C635.544 1089.69 634.344 1107.62 631.774 1125.93C629.204 1144.24 625.194 1158.83 623.624 1177.78C622.054 1196.73 623.544 1211.05 630.544 1229.31C637.534 1247.56 654.694 1241.55 658.064 1223.22C661.444 1204.9 662.604 1186.13 661.844 1167C661.084 1147.87 662.494 1126.14 660.824 1108.02C659.144 1089.91 655.304 1074.46 650.824 1058.02C646.334 1041.59 640.884 1029.84 635.844 1014Z" stroke="black"/>
</g>
<g id="inner_quad_right">
<path d="M750.844 1018C746.714 1030.54 741.354 1039.98 737.824 1052.98C734.284 1065.98 731.124 1078.03 728.844 1092C726.564 1105.97 726.414 1121.95 725.844 1137C725.274 1152.05 726.834 1169.69 725.844 1185C724.854 1200.31 727.384 1213.74 731.064 1227.78C734.754 1241.81 749.184 1246.71 755.584 1232.74C761.984 1218.77 763.554 1209.11 764.844 1194C766.134 1178.89 762.404 1165.17 759.844 1151C757.284 1136.83 755.844 1123.49 753.844 1109C751.844 1094.51 751.554 1079.06 750.844 1064C750.134 1048.94 752.334 1032.14 750.844 1018Z" fill="#CAA593"/>
<path d="M750.844 1018C746.714 1030.54 741.354 1039.98 737.824 1052.98C734.284 1065.98 731.124 1078.03 728.844 1092C726.564 1105.97 726.414 1121.95 725.844 1137C725.274 1152.05 726.834 1169.69 725.844 1185C724.854 1200.31 727.384 1213.74 731.064 1227.78C734.754 1241.81 749.184 1246.71 755.584 1232.74C761.984 1218.77 763.554 1209.11 764.844 1194C766.134 1178.89 762.404 1165.17 759.844 1151C757.284 1136.83 755.844 1123.49 753.844 1109C751.844 1094.51 751.554 1079.06 750.844 1064C750.134 1048.94 752.334 1032.14 750.844 1018Z" fill="#6155F5" fill-opacity="0.4"/>
<path d="M750.844 1018C746.714 1030.54 741.354 1039.98 737.824 1052.98C734.284 1065.98 731.124 1078.03 728.844 1092C726.564 1105.97 726.414 1121.95 725.844 1137C725.274 1152.05 726.834 1169.69 725.844 1185C724.854 1200.31 727.384 1213.74 731.064 1227.78C734.754 1241.81 749.184 1246.71 755.584 1232.74C761.984 1218.77 763.554 1209.11 764.844 1194C766.134 1178.89 762.404 1165.17 759.844 1151C757.284 1136.83 755.844 1123.49 753.844 1109C751.844 1094.51 751.554 1079.06 750.844 1064C750.134 1048.94 752.334 1032.14 750.844 1018Z" stroke="black"/>
</g>
<g id="shins_left">
<path d="M577.844 1336C570.424 1333.63 570.184 1347.47 568.624 1352.78C567.064 1358.09 566.084 1368.41 564.824 1374.98C563.554 1381.55 563.074 1391.49 562.624 1398.78C562.174 1406.07 560.874 1416.33 561.914 1423.93C562.964 1431.52 563.314 1439.21 564.064 1446.78C564.814 1454.35 567.034 1461.56 567.844 1469C568.654 1476.43 571.264 1483.18 572.514 1490.33C573.774 1497.48 575.944 1504.17 577.864 1510.98C579.794 1517.78 581.644 1524.42 583.854 1530.99C586.064 1537.57 586.814 1544.28 589.064 1550.78C591.324 1557.27 593.504 1563.82 595.514 1570.33C597.534 1576.84 599.264 1584.35 601.074 1590.77C602.884 1597.19 605.904 1604.66 606.854 1610.99C607.794 1617.32 610.364 1626.73 611.854 1631.99C613.334 1637.26 615.454 1649.08 622.764 1645.92C630.064 1642.75 624.234 1631.25 623.844 1625C623.454 1618.75 621.234 1609.9 619.844 1603C618.454 1596.1 619.144 1586.42 617.824 1579.02C616.504 1571.63 616.184 1562.86 615.824 1555.02C615.454 1547.19 614.684 1539.61 614.174 1531.67C613.664 1523.73 613.104 1515.06 612.844 1507C612.584 1498.94 611.994 1490.06 611.774 1482.07C611.554 1474.09 608.924 1466.85 608.844 1459C608.764 1451.15 606.654 1443.44 605.844 1436C605.034 1428.56 603.314 1422.01 601.844 1415C600.374 1408 600.124 1399.49 597.824 1393.02C595.514 1386.56 594.464 1378.24 592.624 1372.22C590.784 1366.21 588.384 1357.74 585.824 1353.02C583.254 1348.31 582.924 1337.62 577.844 1336Z" fill="#CAA593"/>
<path d="M577.844 1336C570.424 1333.63 570.184 1347.47 568.624 1352.78C567.064 1358.09 566.084 1368.41 564.824 1374.98C563.554 1381.55 563.074 1391.49 562.624 1398.78C562.174 1406.07 560.874 1416.33 561.914 1423.93C562.964 1431.52 563.314 1439.21 564.064 1446.78C564.814 1454.35 567.034 1461.56 567.844 1469C568.654 1476.43 571.264 1483.18 572.514 1490.33C573.774 1497.48 575.944 1504.17 577.864 1510.98C579.794 1517.78 581.644 1524.42 583.854 1530.99C586.064 1537.57 586.814 1544.28 589.064 1550.78C591.324 1557.27 593.504 1563.82 595.514 1570.33C597.534 1576.84 599.264 1584.35 601.074 1590.77C602.884 1597.19 605.904 1604.66 606.854 1610.99C607.794 1617.32 610.364 1626.73 611.854 1631.99C613.334 1637.26 615.454 1649.08 622.764 1645.92C630.064 1642.75 624.234 1631.25 623.844 1625C623.454 1618.75 621.234 1609.9 619.844 1603C618.454 1596.1 619.144 1586.42 617.824 1579.02C616.504 1571.63 616.184 1562.86 615.824 1555.02C615.454 1547.19 614.684 1539.61 614.174 1531.67C613.664 1523.73 613.104 1515.06 612.844 1507C612.584 1498.94 611.994 1490.06 611.774 1482.07C611.554 1474.09 608.924 1466.85 608.844 1459C608.764 1451.15 606.654 1443.44 605.844 1436C605.034 1428.56 603.314 1422.01 601.844 1415C600.374 1408 600.124 1399.49 597.824 1393.02C595.514 1386.56 594.464 1378.24 592.624 1372.22C590.784 1366.21 588.384 1357.74 585.824 1353.02C583.254 1348.31 582.924 1337.62 577.844 1336Z" fill="#00C8B3" fill-opacity="0.5"/>
<path d="M577.844 1336C570.424 1333.63 570.184 1347.47 568.624 1352.78C567.064 1358.09 566.084 1368.41 564.824 1374.98C563.554 1381.55 563.074 1391.49 562.624 1398.78C562.174 1406.07 560.874 1416.33 561.914 1423.93C562.964 1431.52 563.314 1439.21 564.064 1446.78C564.814 1454.35 567.034 1461.56 567.844 1469C568.654 1476.43 571.264 1483.18 572.514 1490.33C573.774 1497.48 575.944 1504.17 577.864 1510.98C579.794 1517.78 581.644 1524.42 583.854 1530.99C586.064 1537.57 586.814 1544.28 589.064 1550.78C591.324 1557.27 593.504 1563.82 595.514 1570.33C597.534 1576.84 599.264 1584.35 601.074 1590.77C602.884 1597.19 605.904 1604.66 606.854 1610.99C607.794 1617.32 610.364 1626.73 611.854 1631.99C613.334 1637.26 615.454 1649.08 622.764 1645.92C630.064 1642.75 624.234 1631.25 623.844 1625C623.454 1618.75 621.234 1609.9 619.844 1603C618.454 1596.1 619.144 1586.42 617.824 1579.02C616.504 1571.63 616.184 1562.86 615.824 1555.02C615.454 1547.19 614.684 1539.61 614.174 1531.67C613.664 1523.73 613.104 1515.06 612.844 1507C612.584 1498.94 611.994 1490.06 611.774 1482.07C611.554 1474.09 608.924 1466.85 608.844 1459C608.764 1451.15 606.654 1443.44 605.844 1436C605.034 1428.56 603.314 1422.01 601.844 1415C600.374 1408 600.124 1399.49 597.824 1393.02C595.514 1386.56 594.464 1378.24 592.624 1372.22C590.784 1366.21 588.384 1357.74 585.824 1353.02C583.254 1348.31 582.924 1337.62 577.844 1336Z" stroke="black"/>
</g>
<g id="shins_right">
<path d="M813.844 1336C807.314 1333.03 804.944 1345.54 802.774 1349.93C800.594 1354.31 798.164 1363.05 796.624 1368.78C795.074 1374.5 792.314 1381.59 790.824 1387.98C789.324 1394.36 787.754 1402.04 786.774 1408.93C785.784 1415.81 783.404 1422.7 782.774 1429.93C782.134 1437.16 780.444 1444.57 779.834 1451.99C779.234 1459.42 777.264 1466.38 776.844 1474C776.424 1481.62 775.784 1489.64 775.174 1497.33C774.564 1505.03 775.184 1513.42 773.844 1521C772.504 1528.58 774.234 1537.44 772.834 1544.99C771.444 1552.54 772.434 1561.14 771.624 1568.78C770.814 1576.42 770.244 1583.58 768.844 1591C767.434 1598.42 768.094 1605.8 765.824 1612.98C763.544 1620.15 764.844 1627.11 762.174 1634.33C759.504 1641.55 766.184 1649.97 771.594 1643.75C776.994 1637.52 775.934 1631.93 777.864 1625.02C779.804 1618.12 780.914 1611.7 782.854 1605.01C784.794 1598.31 785.814 1591.55 787.874 1585.02C789.924 1578.5 791.744 1572.47 793.864 1566.02C795.994 1559.58 797.344 1553.08 799.524 1546.68C801.704 1540.28 803.244 1533.75 805.064 1527.22C806.894 1520.7 809.044 1514.63 810.864 1508.02C812.694 1501.41 814.284 1494.79 815.864 1488.02C817.444 1481.26 818.884 1474.23 820.064 1467.22C821.244 1460.21 822.984 1453.23 823.844 1446C824.704 1438.77 825.554 1430.34 825.844 1423C826.134 1415.66 826.374 1405.16 825.774 1398.07C825.174 1390.98 824.054 1382.41 822.844 1376C821.634 1369.59 821.834 1359.34 819.624 1354.22C817.414 1349.11 818.594 1338.16 813.844 1336Z" fill="#CAA593"/>
<path d="M813.844 1336C807.314 1333.03 804.944 1345.54 802.774 1349.93C800.594 1354.31 798.164 1363.05 796.624 1368.78C795.074 1374.5 792.314 1381.59 790.824 1387.98C789.324 1394.36 787.754 1402.04 786.774 1408.93C785.784 1415.81 783.404 1422.7 782.774 1429.93C782.134 1437.16 780.444 1444.57 779.834 1451.99C779.234 1459.42 777.264 1466.38 776.844 1474C776.424 1481.62 775.784 1489.64 775.174 1497.33C774.564 1505.03 775.184 1513.42 773.844 1521C772.504 1528.58 774.234 1537.44 772.834 1544.99C771.444 1552.54 772.434 1561.14 771.624 1568.78C770.814 1576.42 770.244 1583.58 768.844 1591C767.434 1598.42 768.094 1605.8 765.824 1612.98C763.544 1620.15 764.844 1627.11 762.174 1634.33C759.504 1641.55 766.184 1649.97 771.594 1643.75C776.994 1637.52 775.934 1631.93 777.864 1625.02C779.804 1618.12 780.914 1611.7 782.854 1605.01C784.794 1598.31 785.814 1591.55 787.874 1585.02C789.924 1578.5 791.744 1572.47 793.864 1566.02C795.994 1559.58 797.344 1553.08 799.524 1546.68C801.704 1540.28 803.244 1533.75 805.064 1527.22C806.894 1520.7 809.044 1514.63 810.864 1508.02C812.694 1501.41 814.284 1494.79 815.864 1488.02C817.444 1481.26 818.884 1474.23 820.064 1467.22C821.244 1460.21 822.984 1453.23 823.844 1446C824.704 1438.77 825.554 1430.34 825.844 1423C826.134 1415.66 826.374 1405.16 825.774 1398.07C825.174 1390.98 824.054 1382.41 822.844 1376C821.634 1369.59 821.834 1359.34 819.624 1354.22C817.414 1349.11 818.594 1338.16 813.844 1336Z" fill="#00C8B3" fill-opacity="0.5"/>
<path d="M813.844 1336C807.314 1333.03 804.944 1345.54 802.774 1349.93C800.594 1354.31 798.164 1363.05 796.624 1368.78C795.074 1374.5 792.314 1381.59 790.824 1387.98C789.324 1394.36 787.754 1402.04 786.774 1408.93C785.784 1415.81 783.404 1422.7 782.774 1429.93C782.134 1437.16 780.444 1444.57 779.834 1451.99C779.234 1459.42 777.264 1466.38 776.844 1474C776.424 1481.62 775.784 1489.64 775.174 1497.33C774.564 1505.03 775.184 1513.42 773.844 1521C772.504 1528.58 774.234 1537.44 772.834 1544.99C771.444 1552.54 772.434 1561.14 771.624 1568.78C770.814 1576.42 770.244 1583.58 768.844 1591C767.434 1598.42 768.094 1605.8 765.824 1612.98C763.544 1620.15 764.844 1627.11 762.174 1634.33C759.504 1641.55 766.184 1649.97 771.594 1643.75C776.994 1637.52 775.934 1631.93 777.864 1625.02C779.804 1618.12 780.914 1611.7 782.854 1605.01C784.794 1598.31 785.814 1591.55 787.874 1585.02C789.924 1578.5 791.744 1572.47 793.864 1566.02C795.994 1559.58 797.344 1553.08 799.524 1546.68C801.704 1540.28 803.244 1533.75 805.064 1527.22C806.894 1520.7 809.044 1514.63 810.864 1508.02C812.694 1501.41 814.284 1494.79 815.864 1488.02C817.444 1481.26 818.884 1474.23 820.064 1467.22C821.244 1460.21 822.984 1453.23 823.844 1446C824.704 1438.77 825.554 1430.34 825.844 1423C826.134 1415.66 826.374 1405.16 825.774 1398.07C825.174 1390.98 824.054 1382.41 822.844 1376C821.634 1369.59 821.834 1359.34 819.624 1354.22C817.414 1349.11 818.594 1338.16 813.844 1336Z" stroke="black"/>
</g>
<g id="calves_inner_left">
<path d="M651.844 1572C653.104 1539.06 660.994 1507.42 663.844 1475C665.554 1455.54 666.584 1433.77 664.844 1414C663.404 1397.59 659.664 1381.55 658.844 1365C656.274 1363.74 659.344 1359.33 656.844 1358C650.184 1374.66 643.994 1388.04 638.164 1405.32C632.334 1422.6 630.604 1443.8 630.844 1463C631.084 1482.2 635.084 1502.69 637.914 1520.93C640.754 1539.16 648.114 1555.88 651.844 1572Z" fill="#C9A492"/>
<path d="M651.844 1572C653.104 1539.06 660.994 1507.42 663.844 1475C665.554 1455.54 666.584 1433.77 664.844 1414C663.404 1397.59 659.664 1381.55 658.844 1365C656.274 1363.74 659.344 1359.33 656.844 1358C650.184 1374.66 643.994 1388.04 638.164 1405.32C632.334 1422.6 630.604 1443.8 630.844 1463C631.084 1482.2 635.084 1502.69 637.914 1520.93C640.754 1539.16 648.114 1555.88 651.844 1572Z" fill="#FF2D55" fill-opacity="0.5"/>
<path d="M651.844 1572C653.104 1539.06 660.994 1507.42 663.844 1475C665.554 1455.54 666.584 1433.77 664.844 1414C663.404 1397.59 659.664 1381.55 658.844 1365C656.274 1363.74 659.344 1359.33 656.844 1358C650.184 1374.66 643.994 1388.04 638.164 1405.32C632.334 1422.6 630.604 1443.8 630.844 1463C631.084 1482.2 635.084 1502.69 637.914 1520.93C640.754 1539.16 648.114 1555.88 651.844 1572Z" stroke="black"/>
</g>
<g id="calves_inner_right">
<path d="M728.844 1366C728.814 1370.72 727.424 1375 726.844 1379C727.654 1382.96 726.284 1388.03 725.844 1392C723.414 1413.78 720.844 1437.32 722.844 1460C723.274 1464.84 723.844 1469.83 723.844 1475C724.544 1482.21 725.984 1490.31 726.844 1498C729.504 1521.81 735.844 1545.61 735.844 1570C737.284 1569.94 736.584 1571.92 737.844 1572C746.774 1535.86 755.364 1498.97 756.844 1461C758.324 1423.03 745.554 1391.01 730.844 1358C729.934 1359.78 729.074 1364.07 728.844 1366Z" fill="#C9A492"/>
<path d="M728.844 1366C728.814 1370.72 727.424 1375 726.844 1379C727.654 1382.96 726.284 1388.03 725.844 1392C723.414 1413.78 720.844 1437.32 722.844 1460C723.274 1464.84 723.844 1469.83 723.844 1475C724.544 1482.21 725.984 1490.31 726.844 1498C729.504 1521.81 735.844 1545.61 735.844 1570C737.284 1569.94 736.584 1571.92 737.844 1572C746.774 1535.86 755.364 1498.97 756.844 1461C758.324 1423.03 745.554 1391.01 730.844 1358C729.934 1359.78 729.074 1364.07 728.844 1366Z" fill="#FF2D55" fill-opacity="0.5"/>
<path d="M728.844 1366C728.814 1370.72 727.424 1375 726.844 1379C727.654 1382.96 726.284 1388.03 725.844 1392C723.414 1413.78 720.844 1437.32 722.844 1460C723.274 1464.84 723.844 1469.83 723.844 1475C724.544 1482.21 725.984 1490.31 726.844 1498C729.504 1521.81 735.844 1545.61 735.844 1570C737.284 1569.94 736.584 1571.92 737.844 1572C746.774 1535.86 755.364 1498.97 756.844 1461C758.324 1423.03 745.554 1391.01 730.844 1358C729.934 1359.78 729.074 1364.07 728.844 1366Z" stroke="black"/>
</g>
</g>
</svg>
